/* XPM */
static const char *const folder_blue_xpm[] = {
/* columns rows colors chars-per-pixel */
"16 16 74 1 ",
"  c black",
". c #0046B5",
"X c #234DE5",
"o c #2850E5",
"O c #2F54E5",
"+ c #3658E5",
"@ c #3E5DE5",
"# c #1274FF",
"$ c #207EFF",
"% c #4962E5",
"& c #3288FF",
"* c #4695FF",
"= c #479BFF",
"- c #4B9DFF",
"; c #50A0FF",
": c #53A2FF",
"> c #54A2FF",
", c #57A4FF",
"< c #5BA1FF",
"1 c #58A4FF",
"2 c #5BA6FF",
"3 c #5CA7FF",
"4 c #5DA7FF",
"5 c #5EA8FF",
"6 c #5FA8FF",
"7 c #5FA9FF",
"8 c #62AAFF",
"9 c #65ABFF",
"0 c #67ADFF",
"q c #6BAFFF",
"w c #71AEFF",
"e c #6CB0FF",
"r c #6FB1FF",
"t c #70B1FF",
"y c #71B2FF",
"u c #72B3FF",
"i c #76B2FF",
"p c #76B6FF",
"a c #79B7FF",
"s c #7DB9FF",
"d c #7EBAFF",
"f c #83BCFF",
"g c #84BDFF",
"h c #86BEFF",
"j c #87BEFF",
"k c #88BBFF",
"l c #8AC0FF",
"z c #8BC0FF",
"x c #8EC3FF",
"c c #90C4FF",
"v c #95C7FF",
"b c #96C6FF",
"n c #97C8FF",
"m c #98C8FF",
"M c #9AC8FF",
"N c #9ACAFF",
"B c #9FC9FF",
"V c #9ECBFF",
"C c #A2CEFF",
"Z c #A4CEFF",
"A c #A9D1FF",
"S c #ACD3FF",
"D c #ADD3FF",
"F c #AFD5FF",
"G c #B3D5FF",
"H c #B4D5FF",
"J c #B5D5FF",
"K c #B5D6FF",
"L c #B5D8FF",
"P c #B9DAFF",
"I c #BEDCFF",
"U c #C7E0FF",
"Y c white",
"T c None",
/* pixels */
"T.....TTTTTTTTTT",
".YYYYY.TTTTTTTTT",
".UUUUUY.....TTTT",
".HHHHGGYYYYY.TTT",
".Cw...........TT",
".k.YYYYYYYYYYY.T",
".w.IIPHFACNn%x.T",
".<.SSAZCvclg@d. ",
".*.Mmvclgdpu+e. ",
".&.jgfdauq09O6. ",
".$.uuue963,;o;. ",
".#.3311,;-==X=. ",
"T............. T",
"TTT           TT",
"TTTTTTTTTTTTTTTT",
"TTTTTTTTTTTTTTTT"
};
