/* XPM */
static const char *const folder_delete_xpm[] = {
/* columns rows colors chars-per-pixel */
"16 16 134 2 ",
"   c #B94403",
".  c #B94503",
"X  c #BC4204",
"o  c #BC4304",
"O  c #BD4D04",
"+  c #BC4C07",
"@  c #C1570C",
"#  c #C65D16",
"$  c #C3571A",
"%  c #C1591A",
"&  c #DD6401",
"*  c #CA741D",
"=  c #E16803",
"-  c #EE7600",
";  c #EA7905",
":  c #F87600",
">  c #EF7F18",
",  c #FF7711",
"<  c #FF7F18",
"1  c #C96425",
"2  c #CB6C2D",
"3  c #D27538",
"4  c #E67721",
"5  c #D8872D",
"6  c #D8882D",
"7  c #D98E33",
"8  c #DA9435",
"9  c #DA9A36",
"0  c #DE9B3C",
"q  c #DE9C3F",
"w  c #FF8621",
"e  c #DAA136",
"r  c #DAA435",
"t  c #DAA637",
"y  c #DAAB35",
"u  c #DAAA36",
"i  c #DAAB36",
"p  c #DAAE34",
"a  c #DAAF35",
"s  c #DAAF36",
"d  c #DAB336",
"f  c #D9B434",
"g  c #DBB63C",
"h  c #EB8A40",
"j  c #FF924D",
"k  c #F49D63",
"l  c #F5A872",
"z  c #E1C25E",
"x  c #E2C35F",
"c  c #F4D754",
"v  c #F4D85C",
"b  c #E2C360",
"n  c #E3C76B",
"m  c #E4C76B",
"M  c #EDCA6A",
"N  c #EACB6C",
"B  c #F5DA63",
"V  c #F5DB65",
"C  c #F5DB68",
"Z  c #F6DC6C",
"A  c #E9C173",
"S  c #E5CA74",
"D  c #EECF72",
"F  c #EECF76",
"G  c #E6CD79",
"H  c #EFD07A",
"J  c #F6DE72",
"K  c #F6DE76",
"L  c #F6DF76",
"P  c #F2D47F",
"I  c #F6E07C",
"U  c #F6B58D",
"Y  c #F7B58D",
"T  c #EECE88",
"R  c #EFD280",
"E  c #EFD385",
"W  c #F2D581",
"Q  c #F3D786",
"!  c #F3D88E",
"~  c #EFD494",
"^  c #F5DE91",
"/  c #F4DC93",
"(  c #F3DA96",
")  c #F5DE94",
"_  c #F4DB9E",
"`  c #F7E181",
"'  c #F7E285",
"]  c #F7E385",
"[  c #F7E38B",
"{  c #F8E48E",
"}  c #F8E591",
"|  c #F8E694",
" . c #F8E695",
".. c #F5E09F",
"X. c #F9E89C",
"o. c #FECDAE",
"O. c #F4DDA7",
"+. c #FED6B8",
"@. c #F9E9A1",
"#. c #F9E9A4",
"$. c #F6E1AC",
"%. c #FAECAC",
"&. c #FAEDB3",
"*. c #FBEFB9",
"=. c #F6E9C9",
"-. c #FCF2C8",
";. c #FCF4D7",
":. c #FCF6D8",
">. c #FAF0DC",
",. c #FBF6E8",
"<. c #FBF7E9",
"1. c #FBF7EA",
"2. c #FEFBEE",
"3. c #FEFAEF",
"4. c #FEFBEF",
"5. c #FDFAF1",
"6. c #FDFAF2",
"7. c #FEFCF0",
"8. c #FEFCF1",
"9. c #FEFCF2",
"0. c #FEFCF3",
"q. c #FEFDF4",
"w. c #FFFCF5",
"e. c #FEFCF6",
"r. c #FFFDF6",
"t. c #FEFCF7",
"y. c #FFFDF8",
"u. c #FFFDFA",
"i. c #FEFEFD",
"p. c #FFFEFD",
"a. c #FFFEFE",
"s. c #FFFFFE",
"d. c white",
"f. c None",
/* pixels */
"f.f.f.f.f.f.f.f.f.f.f.f.f.f.f.f.",
"f.f.f.f.f.f.f.f.f.f.f.f.f.f.f.f.",
"f.f.f.f.f.f.f.f.f.f.f.f.f.f.f.f.",
"f.f z b b b b g f.f.f.f.f.f.f.f.",
"f.d i.i.i.i.i.1.m n n n G S f.f.",
"f.a t.{ / @.$.2.q.6.6.2.2.u.d f.",
"f.y 6.) / W N N E R P D D 1.a f.",
"f.y ,.~ T l =.7.q.8.8.2.2.i.y f.",
"f.r i.q.q.q.6.:.| ] L C v ;.r f.",
"f.e u.-.*.%.X.[ I Z q # o % * f.",
"f.9 6.&.#.| ] L V 0 3 U +.l 2 f.",
"f.8 6.@.} ' J B c @ U j , w h   ",
"f.7 >.O._ ( ! Q W o o.i.i.i.w   ",
"f.f.6 5 6 6 6 6 6 + k < : - &   ",
"f.f.f.f.f.f.f.f.f.$ 1 4 ; & O f.",
"f.f.f.f.f.f.f.f.f.f.f.  o   f.f."
};
