/* XPM */
static const char *const folder_violet_xpm[] = {
/* columns rows colors chars-per-pixel */
"16 16 53 1 ",
"  c black",
". c #5E1697",
"X c #871FD9",
"o c #8920DD",
"O c #8B21E0",
"+ c #8D25E0",
"@ c #902AE1",
"# c #912DE1",
"$ c #9431E2",
"% c #993BE3",
"& c #993DE3",
"* c #A34FE6",
"= c #A450E6",
"- c #A452E6",
"; c #A756E7",
": c #A757E7",
"> c #AA5BE8",
", c #AB5EE8",
"< c #AC60E8",
"1 c #AD62E9",
"2 c #AE64E9",
"3 c #AF67E9",
"4 c #B169EA",
"5 c #B26CEA",
"6 c #B470EB",
"7 c #B572EB",
"8 c #B775EB",
"9 c #B979EC",
"0 c #BA7CEC",
"q c #BD81ED",
"w c #BE83ED",
"e c #BF85EE",
"r c #C087EE",
"t c #C188EE",
"y c #C28AEE",
"u c #C38CEF",
"i c #C48FEF",
"p c #C591EF",
"a c #C793F0",
"s c #C896F0",
"d c #C998F0",
"f c #CA9AF1",
"g c #CD9FF1",
"h c #CEA1F2",
"j c #CFA3F2",
"k c #CFA4F2",
"l c #D2A8F3",
"z c #D3AAF3",
"x c #D4ADF3",
"c c #D6B1F4",
"v c #DAB9F5",
"b c #F3E7FC",
"n c None",
/* pixels */
"n.....nnnnnnnnnn",
".bbbbb.nnnnnnnnn",
".vvvvvb.....nnnn",
".zlllllbbbbb.nnn",
".s8...........nn",
".r.bbbbbbbbbbb.n",
".7.ccxlkgfap&y.n",
".,.hhhfdiyrq$0. ",
".*.siautq087@5. ",
".%.rqq997542+1. ",
".#.666541,>;X;. ",
".O.,1,>:;--*X-. ",
"n............. n",
"nnn           nn",
"nnnnnnnnnnnnnnnn",
"nnnnnnnnnnnnnnnn"
};
