/* XPM */
static const char *const folder_edit_xpm[] = {
/* columns rows colors chars-per-pixel */
"16 16 143 2 ",
"   c #553D11",
".  c #AA641C",
"X  c #BE7A1A",
"o  c #875F28",
"O  c #83652B",
"+  c #D8862C",
"@  c #D8872D",
"#  c #D7882F",
"$  c #D8882D",
"%  c #C38333",
"&  c #D98E33",
"*  c #DA9435",
"=  c #DA9835",
"-  c #DA9A36",
";  c #D89C38",
":  c #DAA136",
">  c #DAA637",
",  c #DAAB35",
"<  c #DAAA36",
"1  c #DAAF35",
"2  c #DAB336",
"3  c #D9B434",
"4  c #DBB63C",
"5  c #EDC328",
"6  c #AA8943",
"7  c #BC8D42",
"8  c #BD8849",
"9  c #C98541",
"0  c #C78C48",
"q  c #C59849",
"w  c #DC9742",
"e  c #D09D46",
"r  c #DD9841",
"t  c #DC9945",
"y  c #D89A54",
"u  c #D39C5A",
"i  c #D8A558",
"p  c #E2A14D",
"a  c #D39F66",
"s  c #D7A363",
"d  c #D2AF6C",
"f  c #D7B973",
"g  c #D5B67A",
"h  c #E7BE77",
"j  c #E4C955",
"k  c #E1C25E",
"l  c #E2C25F",
"z  c #E2C35F",
"x  c #EBC75B",
"c  c #F5DF5B",
"v  c #F5DC5E",
"b  c #F5DC5F",
"n  c #F7E15A",
"m  c #F7E25B",
"M  c #F8E25D",
"N  c #E1C260",
"B  c #E2C360",
"V  c #EEC765",
"C  c #E3C76B",
"Z  c #E4C76B",
"A  c #EDCA6A",
"S  c #EACB6C",
"D  c #EDCA6D",
"F  c #F1CF69",
"G  c #EFD46D",
"H  c #F7DF63",
"J  c #F6DD6C",
"K  c #E9C173",
"L  c #E5CA74",
"P  c #E7CB77",
"I  c #E6CD79",
"U  c #EDD078",
"Y  c #EED379",
"T  c #EED47C",
"R  c #F2D974",
"E  c #F0D379",
"W  c #F1D47B",
"Q  c #F2D67A",
"!  c #DBB185",
"~  c #D1B790",
"^  c #E7C08B",
"/  c #EECE88",
"(  c #EFD280",
")  c #EED681",
"_  c #EFD385",
"`  c #F2D581",
"'  c #F9C794",
"]  c #F9C991",
"[  c #EFD494",
"{  c #F5DE91",
"}  c #F4DC93",
"|  c #F5DE94",
" . c #F8E48E",
".. c #F8E591",
"X. c #F8E695",
"o. c #F5E09F",
"O. c #F9E89C",
"+. c #EFD2AC",
"@. c #F4DDA7",
"#. c #F6D3AE",
"$. c #F4DDAD",
"%. c #F0D2B4",
"&. c #F9E9A1",
"*. c #F9E9A4",
"=. c #F6E1AC",
"-. c #F5E4AD",
";. c #FAECAC",
":. c #F4E3B1",
">. c #F9E3B2",
",. c #FAEDB3",
"<. c #FBEFB9",
"1. c #FCE0C4",
"2. c #F8EAC2",
"3. c #F6E9C9",
"4. c #FDF6C2",
"5. c #FDF6C4",
"6. c #FDF7C7",
"7. c #FBF2CA",
"8. c #FCF2C8",
"9. c #FCF6D8",
"0. c #FAF0DC",
"q. c #FFF2E0",
"w. c #FFF3E5",
"e. c #FBF6E8",
"r. c #FBF7EA",
"t. c #FEFAEF",
"y. c #FEFBEF",
"u. c #FDFAF1",
"i. c #FDFAF2",
"p. c #FEFCF1",
"a. c #FEFCF2",
"s. c #FEFCF3",
"d. c #FEFDF4",
"f. c #FFFCF5",
"g. c #FEFCF6",
"h. c #FFFDF6",
"j. c #FEFCF7",
"k. c #FFFDF8",
"l. c #FEFEFD",
"z. c #FFFEFD",
"x. c #FFFEFE",
"c. c #FFFFFE",
"v. c None",
/* pixels */
"v.v.v.v.v.v.v.v.v.v.v.v.v.v.v.v.",
"v.v.v.v.v.v.v.v.v.v.v.v.v.v.v.v.",
"v.v.v.v.v.v.v.v.v.v.v.v.v.v.v.v.",
"v.3 k B B B B 4 v.v.v.v.v.v.v.v.",
"v.2 l.l.l.l.l.r.Z C C C I L v.v.",
"v.1 j. .} &.=.t.d.p.p.:.i ! e v.",
"v., i.| } W A S _ ( x h %.w.#.0 ",
"v., e.[ / h 3.i.d.-.) :.^ #.1.a ",
"v.> l.k.d.j.d.9.R T 6.J A s u v.",
"v.: j.8.<.;.O.G Y 6.b M Q p ; v.",
"v.= i.,.*.X.B L 6.v n E r $.= v.",
"v.* t.&...B f 4.H M E w 5 7.* v.",
"v.& 0.@.d g ~ j c Y t V F 2.& v.",
"v.v.$ $ 6 q.y X q % # $ @ $ @ v.",
"v.v.v.v.O ' ] 9 . v.v.v.v.v.v.v.",
"v.v.v.v.  o 8 7 v.v.v.v.v.v.v.v."
};
