/* XPM */
static const char *const folder_blue_open_xpm[] = {
/* columns rows colors chars-per-pixel */
"16 16 55 1 ",
"  c black",
". c #0046B5",
"X c #2A51E5",
"o c #3356E5",
"O c #3658E5",
"+ c #1075FF",
"@ c #1176FF",
"# c #177AFF",
"$ c #1D7FFF",
"% c #435FE5",
"& c #4C65E5",
"* c #2A88FF",
"= c #3A92FF",
"- c #3C93FF",
"; c #4599FF",
": c #479BFF",
"> c #4B9DFF",
", c #4F9FFF",
"< c #51A0FF",
"1 c #55A3FF",
"2 c #57A4FF",
"3 c #59A5FF",
"4 c #5DA8FF",
"5 c #61AAFF",
"6 c #63ABFF",
"7 c #66ADFF",
"8 c #68AEFF",
"9 c #6AAFFF",
"0 c #6CB0FF",
"q c #73B4FF",
"w c #75B5FF",
"e c #77B6FF",
"r c #79B8FF",
"t c #7EBAFF",
"y c #84BEFF",
"u c #87BFFF",
"i c #89C0FF",
"p c #8BC2FF",
"a c #8EC3FF",
"s c #90C4FF",
"d c #92C5FF",
"f c #97C9FF",
"g c #99CAFF",
"h c #9CCCFF",
"j c #9ECDFF",
"k c #A0CEFF",
"l c #A3D0FF",
"z c #A8D2FF",
"x c #ADD5FF",
"c c #BBDDFF",
"v c #BEDEFF",
"b c #CDE6FF",
"n c #ECF6FF",
"m c white",
"M c None",
/* pixels */
"M.....MMMMMMMMMM",
".mmmmm.MMMMMMMMM",
".bbbbbm....MMMMM",
".vvcvccmmmm.MMMM",
".zkzz;........MM",
".sss6.nmmmmmmm.M",
".rrr*.xzkkg&ss.M",
".66-.khfspu%y. M",
".,,@.auyyeeo0. M",
".=$.treq999o. MM",
".@..9976431X. MM",
"..#9311<,>;. MMM",
"M........... MMM",
"MMM        MMMMM",
"MMMMMMMMMMMMMMMM",
"MMMMMMMMMMMMMMMM"
};
