/* XPM */
static const char *const folder_add_xpm[] = {
/* columns rows colors chars-per-pixel */
"16 16 126 2 ",
"   c #376B19",
".  c #3E6D1C",
"X  c #4C7B31",
"o  c #538C28",
"O  c #578F2D",
"+  c #628944",
"@  c #618A47",
"#  c #668E4F",
"$  c #759758",
"%  c #928C32",
"&  c #D8872D",
"*  c #D8882D",
"=  c #D98E33",
"-  c #DA9435",
";  c #DA9A36",
":  c #DAA136",
">  c #DAA435",
",  c #DAA637",
"<  c #DAAB35",
"1  c #DAAA36",
"2  c #DAAB36",
"3  c #DAAE34",
"4  c #DAAF35",
"5  c #DAAF36",
"6  c #DAB336",
"7  c #D9B434",
"8  c #DBB63C",
"9  c #AEB354",
"0  c #B4B75B",
"q  c #81AB61",
"w  c #87B960",
"e  c #87BA60",
"r  c #8BBA62",
"t  c #8DBA64",
"y  c #8CBC65",
"u  c #8FBC67",
"i  c #8FBB6A",
"p  c #E1C25E",
"a  c #E2C35F",
"s  c #F4D754",
"d  c #F4D85C",
"f  c #E2C360",
"g  c #E3C76B",
"h  c #E4C76B",
"j  c #EDCA6A",
"k  c #EACB6C",
"l  c #F5DA63",
"z  c #F5DB65",
"x  c #F5DB68",
"c  c #F6DC6C",
"v  c #E9C173",
"b  c #E5CA74",
"n  c #EECF72",
"m  c #EECF76",
"M  c #E6CD79",
"N  c #EFD07A",
"B  c #F6DE72",
"V  c #F6DE76",
"C  c #F6DF76",
"Z  c #F2D47F",
"A  c #F6E07C",
"S  c #B1D390",
"D  c #B1D692",
"F  c #B2D295",
"G  c #B4D495",
"H  c #B6D49C",
"J  c #EECE88",
"K  c #EFD280",
"L  c #EFD385",
"P  c #F2D581",
"I  c #F3D786",
"U  c #F3D88E",
"Y  c #EFD494",
"T  c #F5DE91",
"R  c #F4DC93",
"E  c #F3DA96",
"W  c #F5DE94",
"Q  c #F4DB9E",
"!  c #F7E181",
"~  c #F7E285",
"^  c #F7E385",
"/  c #F7E38B",
"(  c #F8E48E",
")  c #F8E591",
"_  c #F8E694",
"`  c #F8E695",
"'  c #F5E09F",
"]  c #F9E89C",
"[  c #F4DDA7",
"{  c #D0E6BA",
"}  c #F9E9A1",
"|  c #F9E9A4",
" . c #F6E1AC",
".. c #FAECAC",
"X. c #FAEDB3",
"o. c #FBEFB9",
"O. c #F6E9C9",
"+. c #FCF2C8",
"@. c #FCF4D7",
"#. c #FCF6D8",
"$. c #FAF0DC",
"%. c #FBF6E8",
"&. c #FBF7E9",
"*. c #FBF7EA",
"=. c #FEFBEE",
"-. c #FEFAEF",
";. c #FEFBEF",
":. c #FDFAF1",
">. c #FDFAF2",
",. c #FEFCF0",
"<. c #FEFCF1",
"1. c #FEFCF2",
"2. c #FEFCF3",
"3. c #FEFDF4",
"4. c #FFFCF5",
"5. c #FEFCF6",
"6. c #FFFDF6",
"7. c #FEFCF7",
"8. c #FFFDF8",
"9. c #FFFDFA",
"0. c #FEFEFD",
"q. c #FFFEFD",
"w. c #FFFEFE",
"e. c #FFFFFE",
"r. c white",
"t. c None",
/* pixels */
"t.t.t.t.t.t.t.t.t.t.t.t.t.t.t.t.",
"t.t.t.t.t.t.t.t.t.t.t.t.t.t.t.t.",
"t.t.t.t.t.t.t.t.t.t.t.t.t.t.t.t.",
"t.7 p f f f p 8 t.t.t.t.t.t.t.t.",
"t.6 0.0.0.0.0.-.h g g g M b t.t.",
"t.4 7.( R } [ -.3.,.>.-.-.9.6 t.",
"t.< >.W R P j k L K Z n n *.4 t.",
"t.< %.Y J v O.>.3.,.,.;.-.0.< t.",
"t., 0.9.3.3.>.#.` ^ C x d @., t.",
"t.: 7.+.o...] / A c 0 $ # + % t.",
"t.; >.X.| ` ^ C z 9 q G { i O   ",
"t.- -.} ) ~ B l s + S D 0.y u   ",
"t.= $.[ Q E U I Z X H 0.0.0.F   ",
"t.t.* & * * * * * . y e 0.r u   ",
"t.t.t.t.t.t.t.t.t.  o t F t o   ",
"t.t.t.t.t.t.t.t.t.t.          t."
};
