/* XPM */
static const char *const project_link_delete_xpm[] = {
/* columns rows colors chars-per-pixel */
"16 16 76 1 ",
"  c #323232",
". c #3F3F3F",
"X c #414141",
"o c #464646",
"O c gray29",
"+ c #4B4B4B",
"@ c #4C4C4C",
"# c gray30",
"$ c #515151",
"% c gray32",
"& c #585858",
"* c #646464",
"= c #656565",
"- c #676767",
"; c gray42",
": c #717171",
"> c gray45",
", c gray47",
"< c #797979",
"1 c #7B7B7B",
"2 c #7C7C7C",
"3 c #A24109",
"4 c #AF460A",
"5 c #B94403",
"6 c #B94503",
"7 c #BC4204",
"8 c #BC4205",
"9 c #BD4D04",
"0 c #BE571F",
"q c #C3571A",
"w c #DD6401",
"e c #E16803",
"r c #EE7600",
"t c #EA7905",
"y c #F87600",
"u c #EF7F18",
"i c #FF7711",
"p c #FF7F18",
"a c #C96425",
"s c #CB6B2D",
"d c #CF7339",
"f c #E67721",
"g c #966146",
"h c #FF8621",
"j c #B8866A",
"k c #EB8A40",
"l c #FF924D",
"z c #F49D63",
"x c #F5A872",
"c c #818181",
"v c gray51",
"b c gray52",
"n c #8D8D8D",
"m c gray57",
"M c #929292",
"N c #979797",
"B c gray62",
"V c gray66",
"C c #AAAAAA",
"Z c gray68",
"A c #AEAEAE",
"S c gray74",
"D c #F6B58D",
"F c #F7B58D",
"G c #FECDAE",
"H c #FED6B8",
"J c #C1C1C1",
"K c gray76",
"L c gray77",
"P c #CECECE",
"I c #D5D5D5",
"U c gray85",
"Y c #DDDDDD",
"T c gray91",
"R c white",
"E c None",
/* pixels */
"EEEEEEEEEEEEEEEE",
"EEEEEEEEEEEEEEEE",
"EEEEEEEEEEEEEEEE",
"EEEEEEEEEEEEEEEE",
"EEEEbB2EE2BbEEEE",
"EE@mTYJv1UYLm@EE",
"EE>I&+=m1=+&V>EE",
"E vEE.SPJZ.EEv E",
"EE=E$Xo$$oX$E-EE",
"EE@nVZN>,Nj0843E",
"EEE+=;;EEgdDHxsE",
"EEEEEEEEE5Dlihk5",
"EEEEEEEEE7GRRRu8",
"EEEEEEEEE5zhyre5",
"EEEEEEEEEqaftw9E",
"EEEEEEEEEEE585EE"
};
