/* XPM */
static const char *const project_edit_xpm[] = {
/* columns rows colors chars-per-pixel */
"16 16 94 2",
".  c None",
">  c #F7F7F7",
":  c #D1952B",
"S  c #FDF6C2",
"T  c #DD9D51",
"a  c #FDF6C4",
"V  c #DD9A4B",
"s  c #F6DD6C",
"1  c #F0F0F0",
"   c #FFFFFF",
"R  c #F5EBDF",
"y  c #FCE0C4",
")  c #F9C794",
"6  c #FFF3E5",
"C  c #F5E5D4",
"N  c #F7E15A",
"&  c #E9E9E9",
"X  c #F8F8F8",
"m  c #E7CB77",
"5  c #F0D2B4",
"$  c #F1F1F1",
"f  c #D7A363",
"!  c #BE7A1A",
"F  c #F8E25D",
"H  c #DC9849",
"2  c #EAEAEA",
"n  c #E5D4AF",
",  c #F9F9F9",
"Y  c #EDD078",
"d  c #EDCA6D",
"I  c #E4C955",
"0  c #F2F2F2",
"h  c #C48E4F",
"J  c #F2E9DE",
"i  c #F0E3BA",
"~  c #C59849",
"b  c #6B4A23",
"A  c #D7BA76",
"p  c #EED47D",
"-  c #DBB185",
"[  c #FAFAFA",
"_  c #F9C991",
"3  c #F3E4AF",
"8  c #C78C48",
"K  c #D7C3A5",
"W  c #FFF2E0",
"*  c #E4D5AC",
"<  c #F3F3F3",
"o  c #FBFBFB",
"4  c #E7BE77",
"c  c #F2D67A",
"@  c #F4F4F4",
"e  c #F9E3B2",
"j  c #F2E5BD",
"P  c #D1B790",
"t  c #F6D3AE",
"O  c #D0D0D0",
"G  c #F0D379",
"7  c #EFD2AC",
"u  c #D39F66",
"v  c #E2A251",
"{  c #5A4318",
"Q  c #D89A54",
"l  c #FDF7C7",
"w  c #EED681",
"E  c #AA8943",
"k  c #EED379",
"}  c #89612B",
"#  c #F5F5F5",
"^  c #C78E48",
"`  c #C98541",
"+  c #949494",
"x  c #F7E25B",
"(  c #85672E",
"'  c #AE6B26",
"B  c #F1D47B",
"L  c #D5B67A",
"g  c #CF995C",
"D  c #F7DF63",
"]  c #EEE2D4",
"/  c #F3E6D8",
" . c #CBA86F",
"U  c #F5DF5B",
"|  c #BE8A4C",
"9  c #F6F6F6",
";  c #D09D46",
".. c #F1E9E0",
"M  c #F5DC5E",
"z  c #F5DC5F",
"%  c #EFEFEF",
"Z  c #E5D5B2",
"r  c #E7C08B",
"q  c #E8D9A8",
"=  c #D8A558",
/* pixels */
"  . . . . . . . . . . . .       ",
"  . X o O O O O O O X + . .     ",
"  . o @ # # # $ % & O * = - ; : ",
". . O > , > > < 1 2 3 4 5 6 7 8 ",
". . O , , , > 9 0 q w e r t y u ",
". . O o O O o X i p a s d f g h ",
". . O O O O O j k l z x c v b . ",
". . O O O O n m l M N B V C . . ",
". . O O O Z A S D F G H J O . . ",
". . O O K L P I U Y T R X O . . ",
". . O O E W Q ! ~ ^ / X X O . . ",
". . O O ( ) _ ` ' ] [ [ [ O . . ",
". . O O { } |  ...o o o o O . . ",
". . O O O O O O O O O O O O .   ",
"  . , O O O O O O O O O O , .   ",
"  . . . . . . . . . . . . . .   "
};
