/* XPM */
static const char *const project_new_xpm[] = {
/* columns rows colors chars-per-pixel */
"16 16 62 1 ",
"  c gray5",
". c #161616",
"X c gray11",
"o c #1D1D1D",
"O c gray14",
"+ c #252525",
"@ c gray16",
"# c #2F2F2F",
"$ c gray19",
"% c #313131",
"& c #3C3C3C",
"* c #585858",
"= c gray35",
"- c #5A5A5A",
"; c #5B5B5B",
": c gray36",
"> c #5D5D5D",
", c gray37",
"< c #606060",
"1 c gray38",
"2 c #686868",
"3 c #6C6C6C",
"4 c gray44",
"5 c #727272",
"6 c #7E7E7E",
"7 c #909090",
"8 c gray58",
"9 c #A2A2A2",
"0 c #ACACAC",
"q c gray69",
"w c #B1B1B1",
"e c #D5D5D5",
"r c #D8D8D8",
"t c #DADADA",
"y c gray86",
"u c #DDDDDD",
"i c gray87",
"p c #DFDFDF",
"a c gray88",
"s c #E1E1E1",
"d c #E2E2E2",
"f c gray89",
"g c #E4E4E4",
"h c gray90",
"j c #E6E6E6",
"k c #E7E7E7",
"l c gray91",
"z c #E9E9E9",
"x c #EAEAEA",
"c c gray92",
"v c #ECECEC",
"b c gray93",
"n c #EEEEEE",
"m c #EFEFEF",
"M c gray94",
"N c #F1F1F1",
"B c gray95",
"V c #F3F3F3",
"C c #F4F4F4",
"Z c gray96",
"A c #F6F6F6",
"S c None",
/* pixels */
"So%%#%%###@ SSSS",
"S,AAANxhsye6.SSS",
"S,AAANnxhpyq8+SS",
"S,NAAAAnxhpqA5SS",
"S,NNAAANnhh097&S",
"S;nNAAAANnxspe,S",
"S;nnNNAAANxxsp,S",
"S;nnnNAAAANnhs<S",
"S;xnnNNNAAANxh<S",
"S;xxnnNNNAANnx2S",
"S;xxxnnNNAAAAn3S",
"S;hxxxnnNNAAAN5S",
"S;hhxxnnnNNAAA5S",
"S;hhhxxxnNNNAA5S",
"S;shhxxxnnnNNA5S",
"So#%###%##%%%%+S"
};
