/* XPM */
static const char *const project_copy_xpm[] = {
/* columns rows colors chars-per-pixel */
"16 16 43 1",
"y c #E3E4E2",
"o c None",
"6 c #F7F7F6",
"q c #8C8E89",
"@ c #F0F0EF",
"+ c #FFFFFF",
"t c #F8F8F7",
"  c #8D8F8A",
", c #C4C4C3",
"% c #9A9B97",
"4 c #EAEAEA",
"2 c #F9F9F9",
"f c #D4D4D4",
"i c #E3E3E2",
"0 c #F2F2F2",
"3 c #EBEBEB",
"u c #FAFAF9",
"< c #FAFAFA",
"= c #C6C6C5",
"8 c #F3F3F2",
"1 c #F3F3F3",
". c #888A85",
"> c #ECECEC",
"d c #FBFBFB",
"* c #C7C7C6",
"9 c #F4F4F3",
"p c #F4F4F4",
"O c #898B86",
"r c #989A95",
"g c #989A96",
"; c #EDEDEC",
"s c #FCFCFB",
"7 c #C3C4C3",
"$ c #C8C8C7",
"& c #8A8C87",
"w c #8F908B",
"- c #EEEEED",
"5 c #EEEEEE",
"a c #F6F6F5",
"X c #8E9189",
"# c #EFEFEE",
"e c #FEFEFD",
": c #FEFEFE",
/* pixels */
" ..........Xoooo",
"O++++++++++.oooo",
"O+@#####@@+.oooo",
"O+@$%.......... ",
"O+@@&++++++++++.",
"O+@$O+@@@@@@@@+.",
"O+@#&+@******@+.",
"O+#=O+@@@@@@@@+.",
"O+-;&+@*****@@+.",
"O:>,O+@@@@@@@<1.",
"O234&+@*****567.",
"O890&+@@@@@qqqq.",
"wOOOOe@@@@<r<ty.",
"ooooOu@@@<<r<i..",
"ooooOp6asdfgy..o",
"ooooqO........oo"
};
