/* XPM */
static const char *const arrow_up_down_xpm[] = {
/* columns rows colors chars-per-pixel */
"16 16 24 1",
". c Black",
"= c #696969",
"2 c #BEBFC0",
"  c None",
"o c #626262",
"# c #B2B4B6",
", c #E4E5E8",
": c #6A6A6A",
"% c #BFC0C1",
"+ c #636363",
"; c #646464",
"1 c #636262",
"& c #D1D5D7",
"X c #666666",
"* c #CFD2D3",
"@ c #C3C4C5",
"O c #D2D3D4",
"< c #E1E2E5",
"- c #676767",
"3 c #B2B5B7",
"4 c #ADAEAF",
"> c #DADBDC",
"5 c #3B3B3B",
"$ c #686868",
/* pixels */
"                ",
"                ",
"       XX       ",
"      oOOo      ",
"     +@##@+     ",
"    $%&**&%$    ",
"    =-;++;-=    ",
"                ",
"                ",
"    :X+oo+X:    ",
"    ->,<<,>-    ",
"     123321     ",
"      +44+      ",
"       --5      ",
"                ",
"                "
};
