/* XPM */
static const char *const folder_violet_open_xpm[] = {
/* columns rows colors chars-per-pixel */
"16 16 49 1 ",
"  c black",
". c #541487",
"X c #7E1DCB",
"o c #7F1ECD",
"O c #811ED0",
"+ c #821ED2",
"@ c #841FD4",
"# c #8820DB",
"$ c #8C23E0",
"% c #902AE1",
"& c #912CE1",
"* c #9433E2",
"= c #9534E2",
"- c #9738E3",
"; c #993BE3",
": c #993DE3",
"> c #9B3FE4",
", c #9C41E4",
"< c #9C42E4",
"1 c #9F46E5",
"2 c #A049E5",
"3 c #A14BE5",
"4 c #A24DE6",
"5 c #A34FE6",
"6 c #A450E6",
"7 c #A756E7",
"8 c #A757E7",
"9 c #A859E7",
"0 c #AA5BE8",
"q c #AC60E8",
"w c #AE64E9",
"e c #AF65E9",
"r c #AF67E9",
"t c #B169EA",
"y c #B26BEA",
"u c #B470EB",
"i c #B572EB",
"p c #B673EB",
"a c #B775EB",
"s c #B877EC",
"d c #B97AEC",
"f c #BA7CEC",
"g c #BD81ED",
"h c #C38CEF",
"j c #C48EEF",
"k c #C896F0",
"l c #D5AFF4",
"z c #DEBFF6",
"x c None",
/* pixels */
"x.....xxxxxxxxxx",
".zzzzz.xxxxxxxxx",
".kkkkkz....xxxxx",
".jjhjjjzzzz.xxxx",
".fsff*........xx",
".ttt3.lzzzzzzz.x",
".999@.gfdsi$yy.x",
".33&.spyyee#0. x",
".;>o.yeq007+6. x",
".%+.0887644+. xx",
".o..54411,>X. xx",
"..+4<<>>;--. xxx",
"x........... xxx",
"xxx        xxxxx",
"xxxxxxxxxxxxxxxx",
"xxxxxxxxxxxxxxxx"
};
