/* XPM */
static char *add_xpm[] = {
/* columns rows colors chars-per-pixel */
"20 20 37 1",
": c #1FC621",
"t c #BCC2CC",
"6 c #2CA92C",
"$ c #3CC23C",
"i c #3C7644",
"X c #17541C",
"& c #92B39C",
"  c None",
", c #04450C",
"+ c #C4FEC8",
"4 c #11C611",
"* c #045F05",
"8 c #9CF2A4",
"@ c #8FFD91",
"1 c #6CFE6C",
"# c #B4D0C0",
"3 c #0ED00E",
"9 c #4CBA4C",
"r c #24B724",
"q c #4C6E54",
"; c #7FFE7F",
"u c #34A434",
"= c #2FC331",
"O c #609868",
"> c #054B07",
"e c #84BE84",
"< c #6C8E74",
"- c #84BE8C",
"y c #28B028",
"7 c #144E1C",
". c #74997C",
"2 c #1CCE1C",
"o c #075609",
"5 c #19BB19",
"% c #046C04",
"0 c #99ACA3",
"w c #8CBA8C",
/* pixels */
"                    ",
"                    ",
"       .XoO         ",
"       X+@o#        ",
"       o@$%&        ",
"       *@=%-        ",
"       *@=%-        ",
"  .XXo*%;:%oo>,<    ",
"  X+@;;12334556,#   ",
"  789$=:3344556,0   ",
"  .7o7*%:5%o>>,q0   ",
"   #&we*rroe&&00t   ",
"       *ryo-        ",
"       oy6o&        ",
"       ouu>&        ",
"       O>>i0        ",
"        #00t        ",
"                    ",
"                    ",
"                    "
};
