/* XPM */
static const char *alltoleft_xpm[] = {
/* columns rows colors chars-per-pixel */
"20 20 84 1",
"f c #005FC5",
"3 c #A9DDFF",
"K c #4E6DA0",
"S c #567EB0",
"s c #6089BC",
"D c #B4B4B4",
"; c #689ACC",
"F c #658ABA",
"H c #4AB7FF",
"x c #6894C5",
"1 c #9E9E9E",
"^ c #BCBCBC",
"z c #5E83B6",
"A c #0241A6",
"& c #6190C4",
"U c #6384B5",
"- c #015DC1",
"> c #015DC2",
"N c #668EC0",
"u c #9ED9FF",
"+ c #78AADB",
"p c #0157BC",
"l c #2B6BB2",
"d c #6998C9",
"M c #5C7DB1",
"W c #4D6B9C",
"B c #0151B5",
"! c #BDBDBD",
"  c None",
"b c #5FBFFF",
"6 c #4E7BAF",
"n c #0148AC",
"/ c #B6B6B6",
"4 c #005EC2",
"i c #93D5FF",
"P c #49689B",
"v c #6CC5FF",
"q c #A0A0A0",
"Q c #AFAFAF",
"7 c #BEBEBE",
"Z c #4AB6FF",
"a c #327AC5",
"C c #54BBFF",
"J c #0243A5",
"Y c #0243A6",
"O c #7AACDE",
"r c #A1A1A1",
") c #B0B0B0",
"w c #BFBFBF",
"0 c #507DB1",
"= c #A8DDFF",
"5 c #2973BE",
"9 c #2973BF",
"k c #0150B4",
"@ c #0066CB",
"I c #939393",
"t c #C0C0C0",
", c #2A74BF",
"g c #93D4FF",
"~ c #9B9B9B",
"o c #7CAEDF",
"h c #87CFFF",
"2 c #7CAEE0",
"E c #6081B2",
"< c #4F7BAE",
"T c #516FA0",
"( c #949494",
": c #C1C1C1",
"L c #6388B8",
"# c #E7F6FF",
"V c #5EBFFF",
"$ c #0665C7",
"% c #6695C9",
"j c #79CAFF",
"8 c #015EC3",
"* c #AFE0FF",
"c c #0158BD",
". c #7DAFE1",
"m c #2B66AE",
"e c #5380B4",
"G c #0149AE",
"y c #0065C9",
"R c #9D9D9D",
"X c #0569CC",
/* pixels */
"                    ",
"                    ",
"                    ",
"       .Xo   OX+    ",
"      .@#$% O@#$&   ",
"     .@#*=-;@#*=-:  ",
"    .@#*=>,@#*=><1  ",
"   2@#*345@#*34617  ",
"  2@#*=89@#*=80qw   ",
"  @#*=8e@#*=80rt    ",
"  2y=uipay=uips     ",
"   dfghjklfghjkz    ",
"    xcjvbnmcjvbnM   ",
"     NBVCZASBVCZAD  ",
"      FGHJK1LGHJPI  ",
"       UYTR7 EYWIQ  ",
"        !~^   /()   ",
"                    ",
"                    ",
"                    "
};
