/* XPM */
static char *autotransact_xpm[] = {
/* columns rows colors chars-per-pixel */
"20 20 70 1",
". c Black",
"7 c #FCFEFC",
"> c #D4D5E0",
"g c #BBBBD8",
"a c #676F7E",
"= c #8483B3",
"m c #010101",
"@ c #3C3C6E",
"A c #8C8BBA",
"H c #747579",
"9 c #2E2E43",
"F c #ABAAAD",
"5 c #444474",
"  c None",
"D c #5B005B",
"z c #111118",
"+ c #4C4C80",
"B c #7979B1",
"1 c #D4DAE4",
"& c #848284",
"r c #A4A3C1",
"# c #343654",
"N c #FB00FB",
"2 c #7A7A99",
"s c #030305",
"4 c #B4B3B6",
"b c #46465F",
"e c #BCBEB4",
"< c #32304A",
"$ c #3C3B58",
"3 c #1C1D30",
"8 c #E4EAF4",
"i c #AAABCF",
"p c #E7F4FA",
"* c #64649B",
"K c #040404",
"y c #040406",
"q c #C4C6D1",
"v c #4A4B51",
"X c #9C9DB5",
"S c #1D1E2F",
"d c #A4A5AA",
"l c #9A9DAA",
"Z c #B400B4",
", c #7C7C88",
"G c #1B1B1E",
"c c #434446",
"x c #313150",
"% c #545374",
"w c #D4D3CA",
"j c #050509",
"O c #595A92",
"L c #0C000C",
"6 c #A5A6AB",
"M c #0D0D0D",
"t c #6C7178",
"u c #0D0D16",
"P c #D600D6",
"0 c #171827",
"V c #D5DAE4",
"C c #060607",
": c #E4E6EF",
"n c #505083",
"f c #9494AB",
"k c #7E7E82",
"J c #B5B6C1",
"o c #6C6EA0",
"; c #C9CCDD",
"- c #ABABBE",
"h c #161616",
/* pixels */
"                    ",
"                    ",
"  .                 ",
"  .. XoO+@@#$%&     ",
"  ...*=-;:>-,%<$    ",
"  ....=-;1;-2%<34   ",
"  .....O+@@###536   ",
"  ......78;&=O*36   ",
"  .....178;&9..06   ",
"  ....4qwerty..u6   ",
"  ...i;87p:a...sd   ",
"  ..Ofg178;h.j..k   ",
"  . OX4q78l.zx..c   ",
"    Oi;878v.bnm.MN  ",
"    BOBX7VC......Z  ",
"     A*%5S.......D  ",
"      >qFG.H-4JK.LP ",
"        ....  ..... ",
"        ....  ..... ",
"                    "
};
