/* XPM */
static char *connect_xpm[] = {
/* columns rows colors chars-per-pixel */
"20 20 44 1",
"% c #FCFEFC",
"7 c #ACACB3",
"& c #F0F0E4",
"p c #8C8B90",
". c #747864",
"# c #8C7044",
"0 c #6C6454",
"9 c #3A3C4A",
"d c #8D929F",
"; c #C1A279",
"X c #727574",
"@ c #7C745C",
"u c #7C622C",
": c #FCFDDD",
"  c None",
"= c #84857C",
"3 c #525457",
"a c #848284",
"o c #6B6B76",
"1 c #6E6C5C",
"4 c #4B4D54",
"s c #5D666D",
"h c #262B33",
"2 c #B4B3B8",
"< c #B7C6D7",
"+ c #CDD0E1",
"i c #785C34",
"> c #BCBBBD",
"w c #424348",
"y c #5F6228",
"* c #A4AEBB",
"e c #A4A2A4",
"5 c #5C5B5E",
"r c #91969C",
"8 c #626664",
"O c #999EA0",
"f c #8391A0",
"g c #9CAECC",
"$ c #EFFEF9",
", c #545E64",
"t c #2C3239",
"q c #A4A7A2",
"- c #F9F1C8",
"6 c #9798B0",
/* pixels */
"                    ",
"                    ",
"                    ",
"     .XXooO+        ",
"  .@##$%%&*=        ",
"  .-;;:>>>&,<       ",
"  ..@1%222>,3445O   ",
"   O6o%2222377*.4   ",
"     8%77773..XX9O  ",
"  o100%qqqq44wq.9O  ",
"  1&;;:qqe=4rw7XtO  ",
"  8yui%ppas8O97Xtr  ",
"   rr53344,a*9qXtr  ",
"      ddfdrg t7Xhf  ",
"             t7Xhr  ",
"             hhhhf  ",
"              ffff  ",
"                    ",
"                    ",
"                    "
};
