/* XPM */
static char *createdb_xpm[] = {
/* columns rows colors chars-per-pixel */
"20 20 77 1",
"9 c #FCFEFC",
"S c #00C100",
"J c #004C00",
"> c #D4D5E0",
"Z c #004900",
"d c #ECFFEC",
"E c #004600",
"j c #BBBBD8",
"= c #8483B3",
"i c #006600",
"q c #B4B4D6",
"+ c #3C3C6E",
"p c #29762B",
"D c #8C8BBA",
"V c #00D500",
"5 c #444474",
"  c None",
"n c #005400",
"W c #1C521E",
"O c #4C4C80",
"v c #347F34",
"& c #7979B1",
"1 c #D4DAE4",
"% c #848284",
"t c #A4A3C1",
"@ c #343654",
"y c #737980",
"s c #B4C2DC",
"K c #004800",
"2 c #7A7A99",
"4 c #B4B3B6",
"r c #BCBEB4",
"< c #32304A",
"# c #3C3B58",
"3 c #1C1D30",
"h c #B2B6BD",
"b c #006500",
"u c #125E24",
"8 c #E4EAF4",
"7 c #AAABCF",
"a c #E7F4FA",
"k c #006200",
"* c #64649B",
"A c #00D400",
"g c #005F00",
"c c #A1A4AB",
"w c #C4C6D1",
"x c #005900",
". c #9C9DB5",
"Y c #00CB00",
"H c #005600",
", c #7C7C88",
"m c #3A723D",
"P c #47477B",
"z c #00EE00",
"R c #3A6F3D",
"$ c #545374",
"e c #D4D3CA",
"N c #00E800",
"o c #595A92",
"T c #004700",
"6 c #A5A6AB",
"f c #8CFE8C",
"B c #00DF00",
"I c #ADB1B8",
"M c #006400",
": c #E4E6EF",
"0 c #9494AB",
"l c #86FE86",
"G c #005B00",
"X c #6C6EA0",
"; c #C9CCDD",
"F c #317C31",
"- c #ABABBE",
"C c #00CA00",
"L c #1C531E",
"U c #004F00",
/* pixels */
"                    ",
"                    ",
"   .XoO++@#$%       ",
"  &*=-;:>-,$<#      ",
"  o*=-;1;-2$<34     ",
"  o&XoO++@@@536     ",
"  o7;898;%=o*36     ",
"  o0q198;%&o$36     ",
"  o.4wertyXuiip     ",
"  o7;89a:s=idfgh    ",
"  o0j198;%=klzxc    ",
"  o.4w98vbkklzxxnm  ",
"  o7;898MdllzNBVCZh ",
"  &o&.98MfzzNBACSZc ",
"   D*$5@FGHHBVJJKLc ",
"    >w4-PPPHACJcccI ",
"           UYSTc    ",
"           REEWc    ",
"            hccI    ",
"                    "
};
