/* XPM */
static char *cut_xpm[] = {
/* columns rows colors chars-per-pixel */
"20 20 124 2",
"_  c #BA6A68",
"H  c #2D2D2C",
"q. c #9F1E1C",
"^  c #D41E01",
"k  c #4B4B4B",
")  c #B91000",
"7  c #A5A5A5",
"Q  c #ED2C02",
"L  c #D33A23",
">  c #C3C3C3",
"-  c #F0F0F0",
"C  c #626569",
"j  c #626261",
"w. c #9D5356",
"P  c #D13D28",
"4  c #76787C",
"-. c #BD6256",
"$  c #94969B",
",. c #A60700",
"T  c #C61600",
"`  c #DFE4ED",
"E  c #EB2901",
"w  c #474847",
":  c #3D3D3C",
"c  c #3D3D3D",
"7. c #A5969A",
"+  c #656666",
"r  c #5B5B5B",
"#  c #7E8084",
"O  c #929399",
"3. c #D97A68",
"m  c #272727",
"0. c #A3201C",
"~  c #DD2402",
"+. c #CD3A28",
"Y  c #E22500",
"0  c #777677",
"{  c #EC2A00",
"   c None",
"f  c #2A2B2B",
"8  c #2F2F2F",
"y  c #4D4D4D",
"I  c #D5807A",
"1  c #5C5C5D",
"s  c #525152",
"<. c #A00400",
"e  c #898989",
"@. c #C01300",
"2  c #B6B6B6",
"R  c #CF1C01",
"W  c #F42F02",
"'  c #BE8C8A",
"h  c #555554",
"A  c #F38F7A",
"b  c #A5A4A4",
"(  c #C31400",
">. c #AD0A00",
"O. c #D83A1C",
"G  c #303030",
"z  c #3F3F3F",
"v  c #4E4E4E",
"d  c #6C6C6C",
"a  c #8F9196",
"2. c #E8D8DC",
"=. c #E62700",
":. c #B50F00",
"]  c #C29D9C",
"&  c #383838",
" . c #B00B00",
"D  c #FF3503",
"8. c #E1D4DC",
"p  c #6F7075",
"[  c #DF2300",
"g  c #97999E",
"<  c #A1A4AB",
"|  c #C91900",
"*. c #E92800",
";. c #D27E7A",
"i  c #5E5E5E",
"1. c #9E5356",
"9  c #9FA1A6",
"#. c #A70700",
"@  c #C7C7C7",
"M  c #39393A",
"=  c #616261",
"$. c #A11F1C",
";  c #575757",
"6. c #BC6256",
"U  c #E2D5DC",
"!  c #E52802",
"%. c #ACB0B8",
"n  c #A2A2A2",
"q  c #989798",
"V  c #2D2E2D",
"5. c #D5381C",
"X. c #CF1B00",
"x  c #64666A",
"%  c #8C8C8C",
"B  c #9B9B9B",
"*  c #C3C7D0",
"&. c #F18E7A",
".. c #A7211C",
"/  c #CB1B01",
"S  c #FB5228",
".  c #A8AAAF",
"o. c #E62600",
"4. c #DB3D1C",
"e. c #A0939A",
",  c #333333",
"o  c #424242",
"l  c #474646",
"t  c #65676B",
"K  c #DF2503",
"6  c #6F6F6F",
"u  c #7E7E7F",
"5  c #929499",
"}  c #D31D00",
"3  c #818281",
"J  c #E72A04",
"Z  c #E9D8DC",
"9. c #B76968",
"F  c #FB3404",
"X  c #666566",
"N  c #9D9D9D",
/* pixels */
"                                        ",
"                                        ",
"          . X             o O           ",
"          + @ #         $ % & *         ",
"          = - ; *       : > , <         ",
"          1 2 3 4     5 6 7 8 <         ",
"          9 0 q w *   & e r t <         ",
"            y u i p a s d f < *         ",
"            g h j k l ; z x <           ",
"              c v b n o m < *           ",
"              a M N B V C <             ",
"      Z A S S D F G H J K L P I U       ",
"      A Y T R E W Q ! ~ ^ / ( ) _ `     ",
"      S T ' ] [ { < < } | ' ]  ...*     ",
"      S X.]   o.O.<   +.@.]   #.$.%.    ",
"      &.*.[ =.=.-.%.  ;.:.>.,.<.1.%.    ",
"      2.3.4.5.6.7.*   8.9.0.q.w.e.*     ",
"        ` * %.%.* `     ` * %.%.* `     ",
"                                        ",
"                                        "
};
