/* XPM */
static char *database_xpm[] = {
/* columns rows colors chars-per-pixel */
"16 16 37 1",
"@ c #FCFEFC",
"2 c #0B0A56",
"- c #B4C6E5",
"i c #0C0E3A",
"9 c #517197",
"5 c #040357",
"> c #54728C",
"7 c #040677",
"& c #8D929F",
"6 c #0C117E",
"y c #9CA1B6",
"1 c #14166C",
"$ c #040205",
"= c #BDCFE9",
"8 c #6462B4",
"  c None",
"q c #656699",
"; c #7D93AD",
"< c #040538",
"o c #6B6B76",
"e c #666A85",
"3 c #E4F9FC",
"% c #5D666D",
", c #7495BD",
". c #CDD0E1",
"u c #9B9FCC",
"r c #C4C6CC",
"X c #9C9A9E",
"4 c #6994BE",
"t c #6C6687",
"0 c #9C9AD2",
"* c #999EA0",
"w c #646689",
"+ c #8391A0",
"O c #C4D1DB",
"# c #EFFEF9",
": c #040321",
/* pixels */
"                ",
"  .XoooX        ",
" O+@@@#@$       ",
" %#@@##@#$      ",
" %&*#=-;::      ",
" %O@.;>,,<12    ",
" %+*@3-4<5678   ",
" %O@O;94,56770  ",
" %+*##-,<57772q ",
" %.@O,94,:w0 2q ",
"  er##-,:   w0  ",
"   *$$$*   0t   ",
"          yt    ",
"          t2    ",
"           u22i ",
"                "
};
