/* XPM */
static char *dbnew_xpm[] = {
/* columns rows colors chars-per-pixel */
"20 20 94 2",
"S  c #FCFEFC",
"3  c #973000",
"y  c #D4D5E0",
"o  c #714E60",
"M  c #831D00",
"`  c #BBBBD8",
"8  c #791200",
"6  c #E2BE37",
"+  c #FFFFFF",
"@  c #902900",
".. c #949694",
"w  c #8483B3",
"p  c #FFE633",
"T  c #85878D",
"9  c #A48384",
" . c #67666D",
"P  c #B4B4D6",
"<  c #3C3C6E",
"H  c #720B00",
"{  c #8C8BBA",
"k  c #E3BF37",
"}  c #444474",
"I  c #98757C",
"z  c #750F00",
"O  c #B87E69",
"   c None",
"-  c #844A3C",
".  c #735060",
",  c #4C4C80",
"K  c #707277",
"/  c #86859C",
"F  c #985D52",
"0  c #7979B1",
"J  c #5C2124",
"D  c #848284",
"f  c #D4DAE4",
"!  c #A4A3C1",
"l  c #DFBC37",
"b  c #343654",
"~  c #737980",
"Y  c #805C67",
"m  c #D7AB30",
"x  c #710900",
")  c #B4C2DC",
"G  c #7E1800",
"R  c #B4B3B6",
"U  c #740D00",
"Q  c #BCBEB4",
"[  c #32304A",
"]  c #3C3B58",
"*  c #8B2400",
"^  c #1C1D30",
"A  c #E4EAF4",
"4  c #E5C137",
"Z  c #AAABCF",
"(  c #E7F4FA",
"q  c #64649B",
"v  c #A1A4AB",
"%  c #963000",
"E  c #C4C6D1",
"=  c #D6A930",
";  c #9C9DB5",
"$  c #E7CDB1",
"'  c #545374",
"W  c #D4D3CA",
"c  c #8F6D6F",
"C  c #783E33",
"&  c #FFFF66",
"V  c #DCA513",
">  c #595A92",
"u  c #FFF95A",
"5  c #FFF653",
"_  c #A5A6AB",
"i  c #FFF048",
"#  c #6C3030",
"X  c #983200",
"h  c #932E00",
"B  c #771000",
"a  c #FFDB1E",
"N  c #FFDB1F",
"t  c #E4E6EF",
"L  c #9494AB",
"s  c #FFD20C",
"7  c #7F1800",
":  c #6C6EA0",
"|  c #454649",
"r  c #C9CCDD",
"d  c #700900",
"n  c #A4695B",
"e  c #ABABBE",
"1  c #D2AFA2",
"2  c #993300",
"g  c #CDA89F",
"j  c #8F2800",
/* pixels */
"                                        ",
"                        . X o           ",
"                      O X + @ #         ",
"                    O $ % & * = -       ",
"      ; : > , < < 1 2 3 4 5 6 7 8 9     ",
"    0 q w e r t y 2 + & u i p a s d     ",
"    > q w e r f r g h j k p l z x c v   ",
"    > 0 : > , < < b n m M N B V C v     ",
"    > Z r A S A r D w F G s H J K       ",
"    > L P f S A r D 0 > I U Y K T       ",
"    > ; R E W Q ! ~ : > > ^ /           ",
"    > Z r A S ( t ) w > q ^ _           ",
"    > L ` f S A r D w > ' ^ _           ",
"    > ; R E S A r D 0 > > ^ _           ",
"    > Z r A S A r D w > q ^ _           ",
"    0 > 0 ; S A r D 0 ] [ ] _           ",
"      { q ' } b b b b |  ...E           ",
"        y E R e _ _ e R E y             ",
"                                        ",
"                                        "
};
