/* XPM */
static char *edit_xpm[] = {
/* columns rows colors chars-per-pixel */
"20 20 35 1",
"< c #FCFEFC",
"8 c #CACDD5",
"t c #949694",
"% c #DCDAE4",
"; c #94969C",
"@ c #BCC2D8",
"# c #9C9EA1",
"4 c #ECEAF3",
"  c None",
"1 c #ACAEB1",
"& c #D4DAE4",
"+ c #848286",
". c #B4B6BE",
"* c #8C8A94",
"q c #E4EAE7",
"3 c #CBCDCB",
"X c #A3A7B3",
"> c #BCBEC4",
"y c #ECF2E4",
"o c #C4C6C9",
"O c #EEE6EA",
"6 c #A4A59C",
"- c #F4F7F8",
", c #8C8F93",
": c #444244",
"= c #E4E6E4",
"5 c #E4DAD4",
"0 c #9C9690",
"9 c #CCD3CF",
"r c #7C7B79",
"2 c #545254",
"7 c #EFF2F7",
"$ c #9C99B7",
"w c #61615F",
"e c #F4EAE0",
/* pixels */
"                    ",
"               .X   ",
"              .oO+  ",
"  .@#####$#o.#%%%&. ",
"  *=--------;:#%=>. ",
"  ,O<<<<<<<#12:>>.  ",
"  ,=<<<<<<#o3122>   ",
"  ,4<<<<-#333o+o    ",
"  ,=<<<<#35536%     ",
"  ,O<<76353&6&      ",
"  ,=<768%3905.      ",
"  ,qO1853o;%7.      ",
"  &5w=983,e<q*      ",
"  4#4r5o,e<<=,      ",
"  o==4+t<<<<4,      ",
"  #qO9*-<<<<=,      ",
" >r>1o.yOqOq&*      ",
" w;    o#####1      ",
"                    ",
"                    "
};
