/* XPM */
static char *explain_xpm[] = {
/* columns rows colors chars-per-pixel */
"20 20 49 1",
"> c #343754",
"* c #9899A8",
"s c #54558B",
"d c #9B9D9C",
"1 c #8C8B8C",
"% c #CC9A64",
"0 c #949694",
", c #3C3C6D",
"; c #676983",
"x c #BABCB4",
"g c #6A76A1",
"e c #C9CBD6",
"+ c #F1D9B3",
"& c #673604",
"  c None",
"p c #65669A",
"@ c #E4B27C",
": c #454567",
"a c #7979B4",
"3 c #848284",
"$ c #D4DAE5",
"w c #AC967C",
"5 c #D4D4EA",
"l c #E9F4F9",
"i c #5C5C96",
"q c #8C7866",
"h c #BCA67C",
"9 c #474748",
"z c #BABBC1",
"8 c #33314B",
"O c #8A5404",
". c #CCB68C",
"j c #C4C3E6",
"y c #CCCEE7",
"t c #D4D6D9",
"# c #77450A",
"6 c #ACAAC9",
"u c #6C6E6C",
"< c #555468",
"= c #B4B5C3",
"r c #1C1C2A",
"7 c #78799B",
"2 c #E4E6EF",
"- c #8785AD",
"f c #A6A7AB",
"4 c #C4C2C4",
"k c #DBE5F2",
"X c #9C6604",
"o c #925E0B",
/* pixels */
"                    ",
"                    ",
"  .XoO.             ",
"  X+@@#$            ",
"  o%%%&*=-;:>,<12   ",
"  OO#&&3=45567<8:   ",
"   =9=0qXoOwe7<8rt  ",
"    9=yX+@@#u>>:r=  ",
"    999o%%%&1-ipr=  ",
"    9=0OO#&&1assr=  ",
"    9=$$dff13gsir=  ",
"    9=yhXoOwj-ipr=  ",
"    9=yX+@@#6assr=  ",
"    d99o%%%&3gsir=  ",
"     t0OO#&&1-ipr=  ",
"      kj10f*3i,8,=  ",
"       y6-;:>>:uft  ",
"        l2tz=x4t2   ",
"                    ",
"                    "
};
