/* XPM */
static char *indexedrop_xpm[] = {
/* columns rows colors chars-per-pixel */
"16 16 67 1",
"+ c #FCFEFB",
"f c #B94B39",
"# c #BCDAF9",
"4 c #CCCDF8",
"5 c #4F4E86",
"N c #780505",
"i c #5C1311",
"O c #055AB8",
"q c #B28283",
"t c #740E04",
"C c #CC361C",
"X c #0473CE",
"F c #9C7274",
"8 c #B08890",
"J c #BCC2D4",
"e c #660F0B",
"1 c #687373",
"> c #BCBCCB",
"3 c #E4E5F2",
"2 c #CBCBD9",
": c #5F5E92",
"w c #BC7E81",
"x c #ADA4AB",
"v c #F44410",
"9 c #4F150F",
"h c #DCC5CC",
". c #5197D9",
"B c #FC8D67",
"r c #FC937B",
"@ c #DBE4F4",
"  c None",
"y c #BC6658",
"a c #E44E2C",
"b c #FC3A0C",
"- c #696B92",
"o c #0666C3",
"d c #D24629",
"l c #DC451C",
"G c #975551",
"c c #474775",
"u c #690606",
"% c #B6B5B2",
"p c #E55727",
"Z c #D22E1C",
"n c #A84C4C",
"$ c #ABD8FB",
"D c #AC3428",
"& c #044EB2",
"M c #D1C6CF",
"; c #68699D",
"* c #696A6D",
"j c #EC4C1C",
"0 c #AA6C69",
"k c #EE3A0E",
"s c #890306",
"z c #885A5C",
", c #ABB4B2",
"6 c #747674",
"S c #5C0204",
"V c #E42C14",
"H c #BB9EA5",
"A c #BC3224",
"m c #CC989C",
"< c #D6DEED",
"g c #4A0906",
"= c #797AA5",
"7 c #C5C6C2",
/* pixels */
"         .XXooO ",
"         X+@#$O%",
"         X#$$$&%",
"        *ooO&&&%",
"==-;:  *>,%%%%%%",
"=+<<:%12%.XXooO ",
"=344567890+q98O%",
"-<445*wertyuru0%",
"-<445*irpasrdfgh",
"-<445%8epjklduzx",
"::55c% ysvbksnmM",
" %%%%%wNBkkkVs0%",
"      9rddsCZAgM",
"      qSfunNDSzx",
"       FgGm0gGHM",
"        hHM MHJ "
};
