/* XPM */
static char *indexes_xpm[] = {
/* columns rows colors chars-per-pixel */
"16 16 75 1",
"O c #FCFEFB",
"8 c #BCDAF9",
"C c #9CA171",
"V c #909652",
"h c #CCCDF8",
"b c #4F4E86",
"K c #055AB8",
"m c #486A64",
"f c #9395BF",
"z c #A4CAF4",
"w c #687373",
"j c #5F5E92",
", c #CBCBD9",
"l c #8CA596",
"R c #A6A6A9",
"I c #485860",
"& c #7A681B",
"c c #3886D6",
"0 c #5197D9",
"s c #245264",
"F c #847C54",
"U c #DBE4F4",
"= c #CBBE51",
"o c None",
"t c #8888B1",
"3 c #5EA6E5",
"Z c #24465C",
"H c #4C84CC",
"* c #B0B075",
"G c #A1AA8F",
"# c #B0A776",
"A c #696B92",
"$ c #D9D77E",
": c #B8C7C3",
"@ c #8E7A1C",
"a c #518794",
"6 c #75879F",
"L c #57481D",
"d c #8994A3",
"u c #9C9AC4",
"4 c #76A9ED",
"Y c #B6B5B2",
"p c #949772",
"9 c #ABD8FB",
"D c #68699D",
"n c #696A6D",
"2 c #B4CC79",
"P c #6C5917",
"N c #7AB4D6",
"k c #8F8A73",
"e c #2C62B4",
"T c #A8B9DD",
"X c #8C8511",
"< c #E8E893",
"x c #8CCAF9",
"7 c #ABB4B2",
"+ c #F7F7A2",
". c #9D8B1E",
"i c #747674",
"B c #5B5C62",
"5 c #3777C7",
"J c #346AC3",
"1 c #DCDD8E",
"q c #507389",
"% c #84711C",
"v c #D5D4ED",
"M c #87BAF1",
"r c #1B4799",
"  c #CAC48D",
"> c #5C5A3D",
"y c #A6AACA",
"g c #D6DEED",
"S c #797AA5",
"; c #EBECC3",
"- c #C9C872",
/* pixels */
" ....X ooooooooo",
".OOOO+@#oooooooo",
".O++++$@@%%%%&*o",
".=====-;;;;:::>,",
".O++;;;<<1234356",
"X++<<<<<1$73890q",
"X+<<    $ weeerw",
"@;<<tyui*ppaaqsd",
"@;<<fghjkpl4zxc6",
"@;<<tvhbnnm0MNcq",
"@;<<tvhBiVCaqqZw",
"@;<1ASDBCFGH5JKd",
" %%&&LLLPPINU80q",
"ooYYYYYYYYdc00J6",
"oooooooooooTdddR",
"oooooooooooooooo"
};
