/* XPM */
static const char *last_xpm[] = {
/* columns rows colors chars-per-pixel */
"20 20 100 2",
"&  c #CACACA",
"O  c #0062C7",
"g  c #62C1FF",
"+  c #005FC4",
"l  c #31ACFF",
"q  c #005CC1",
".. c #0059BD",
"m  c #56BCFF",
"7  c #82CDFF",
"4  c #A5A5A5",
"{  c #4E6A9E",
"<  c #8CD2FF",
"#  c #FFFFFF",
"J  c #4AB7FF",
"@  c #77A6D9",
"Y  c #9E9E9E",
"j  c #48B7FF",
"B  c #32ADFF",
"Q  c #4DB8FF",
"]  c #4F6EA3",
"T  c #979797",
"e  c #83CEFF",
"z  c #26A8FF",
">  c #A6A6A6",
"R  c #5278AC",
"u  c #0041A6",
"8  c #77C9FF",
"t  c #6BC4FF",
"   c None",
"x  c #00359A",
"I  c #00359B",
"L  c #33AEFF",
"(  c #5072A7",
"$  c #DFFEFF",
"-  c #95D5FF",
"/  c #989898",
"@. c #A7A7A7",
"o  c #0064C9",
"f  c #6EC5FF",
"r  c #78CAFF",
"s  c #005EC4",
"5  c #005BC1",
"%  c #0058BD",
"w  c #0058BE",
"*  c #A7DCFF",
",  c #96D6FF",
"'  c #999999",
"h  c #54BBFF",
"+. c #A8A8A8",
"n  c #6FC6FF",
"W  c #59BCFF",
"3  c #0049AE",
"k  c #3CB1FF",
"[  c #2BABFF",
"H  c #57BCFF",
"Z  c #365084",
"6  c #8DD2FF",
"i  c #003DA3",
"p  c #003AA0",
"1  c #81CDFF",
"|  c #B8B8B8",
"K  c #3FB2FF",
"a  c #00379D",
"C  c #00349A",
"2  c #75C8FF",
"}  c #00349B",
"X  c #0066CB",
"N  c #3DB2FF",
".  c #79ADE0",
"U  c #375185",
"=  c #9FD9FF",
")  c #42B3FF",
"O. c #AAAAAA",
"!  c #40B3FF",
"`  c #2AA9FF",
":  c #0054B9",
"~  c #34AEFF",
"b  c #7BCAFF",
"D  c #0051B6",
"9  c #6AC4FF",
"#. c #A3A3A3",
"P  c #28A9FF",
";  c #8AD0FF",
"E  c #0048AE",
"0  c #0045AA",
"V  c #26A9FF",
"A  c #9C9C9C",
"o. c #ABABAB",
"_  c #35AFFF",
"S  c #5580B3",
"v  c #86D0FF",
"^  c #29AAFF",
" . c #B3B3B3",
"d  c #ABE3FF",
"F  c #70C6FF",
"y  c #5FC0FF",
"M  c #49B6FF",
"G  c #64C1FF",
"c  c #9D9D9D",
"X. c #ACACAC",
/* pixels */
"                                        ",
"                                        ",
"            . X X o O + @               ",
"            X # $ $ $ $ % &             ",
"            X $ * = - ; : >             ",
"            + $ , < 1 2 3 4             ",
"            5 $ 6 7 8 9 0 4             ",
"      O + q w $ e r t y u i p a         ",
"      s $ $ $ d f g h j k l z x c       ",
"      @ w v b n g m M N B V C Z A       ",
"        S D F G H J K L P I U Y T       ",
"          R E W Q ! ~ ^ I U Y /         ",
"            ( u ) _ ` x U Y '           ",
"              ] p [ I U Y /             ",
"                { } Z Y /               ",
"                  | A  .                ",
"      ..........................        ",
"        X.X.o.o.O.O.O.O.+.@.> 4 #.      ",
"                                        ",
"                                        "
};
