/* XPM */
static char *leftarrow2_xpm[] = {
/* columns rows colors chars-per-pixel */
"16 16 152 2",
"s  c #A6D0E8",
"h  c #D9DFEB",
"<. c #F2F3F3",
"~  c #0F7DFF",
"4. c #2584FE",
"Z  c #698AD4",
"#. c #1982FF",
"%  c #92BADD",
"+  c #3A6CCC",
"}  c #214FB2",
"8. c #1359C8",
"P  c #1A51B6",
"y  c #BDE7FF",
"p. c #94AEDD",
"|  c #1E7AEB",
"^  c #0566EC",
"i. c #1475FD",
"c  c #206EE2",
"1. c #4F89E3",
"-  c #A6C4EC",
"!  c #5099E6",
",  c #CFF4F6",
"n. c #2B8CFF",
"b. c #3287FB",
"*  c #DFE4F0",
":  c #9EAAD4",
"l  c #6D98DF",
".  c #8DA4D5",
"5. c #217BF6",
"3  c #406ECD",
"6  c #377CE0",
"g. c #E7ECF3",
"=  c #456FCC",
"0. c #1883FF",
"j  c #F6F5F5",
"C. c #2482FD",
"3. c #1D84FF",
"a  c #3654AA",
"d  c #8BD3FF",
"E  c #0B65E7",
"U  c #8EABDE",
"$  c #5275BE",
"   c None",
"F  c #1A6EE4",
"6. c #96BFF6",
"f. c #3F7EE0",
";  c #447FDB",
"@. c #136DE9",
"u. c #1179FE",
"{  c #C5CEE2",
"N. c #0962E3",
"m  c #97C3E2",
"i  c #246DDF",
"V. c #C8DBF6",
"2. c #1B78F1",
"t  c #7BA2E2",
"B  c #2655B5",
".. c #3680EA",
">. c #3D75D1",
"'  c #006DFF",
"n  c #3755A9",
"I  c #C8D2E6",
"]  c #0C66E8",
"5  c #D6FAFF",
"w  c #5D7EC3",
"W  c #6F9DE5",
"+. c #5B8ADC",
"y. c #2186FF",
"q. c #0A66E7",
"Q  c #385FAD",
"z  c #A7D9FF",
",. c #DFE6F0",
"j. c #2687FE",
";. c #1A85FF",
"h. c #3283F4",
":. c #2D7CEA",
"K  c #60B7FF",
"f  c #4B8EE3",
"S  c #96CDFE",
"Y  c #4D82D8",
"z. c #176CE1",
"(  c #D3DBEB",
"O  c #D3DBED",
"#  c #92A1D2",
"k  c #597ED1",
"0  c #ABE7FF",
"X  c #1647A7",
"X. c #3969C6",
"T  c #85C1FD",
"r  c #4875CF",
"k. c #0973FE",
"N  c #2E80E8",
"v  c #89ACE9",
"q  c #538DD7",
"H  c #395DAE",
"7  c #AEB9DA",
"8  c #3459AE",
"w. c #6493E0",
"C  c #F4F4F5",
"e  c #EFF0F4",
"v. c #D4E2F4",
"4  c #91B4E7",
"*. c #B6C4DE",
"@  c #306BCE",
"`  c #2A8CFF",
"9. c #2585F6",
" . c #1482FF",
"J  c #88B6DE",
"x. c #2582F4",
"[  c #7BA7EB",
"A  c #5D8CDB",
"M. c #80A8E6",
"o  c #8299C9",
"s. c #2D90FC",
"_  c #3B80E0",
"=. c #1A55BD",
">  c #355DB0",
"V  c #CDD5E6",
"p  c #C3CAE1",
"L  c #0F6FEE",
"Z. c #1E7EFD",
"x  c #64B0FB",
"e. c #E9EDF2",
")  c #88A7DF",
"b  c #D0D6E5",
"&. c #86B0F1",
"&  c #4767B5",
"7. c #A1B5DC",
"%. c #327FEF",
"d. c #1076F5",
"l. c #86A7E0",
"O. c #F1F2F2",
"D  c #429BFE",
"2  c #F1F2F4",
"/  c #2A5CBB",
"R  c #2286FF",
"B. c #78A8EC",
"m. c #137AFE",
"g  c #2F5AB6",
"t. c #1D7FF7",
"r. c #3F85EB",
"u  c #83C3F9",
"-. c #2280F1",
"c. c #3F82E5",
"1  c #4367B8",
"a. c #105ED3",
"$. c #2280FE",
"o. c #D4DEED",
"M  c #75C4FF",
"9  c #B0DBEE",
"<  c #92C3E9",
"G  c #789FE6",
/* pixels */
"                                ",
"          . X o           O + @ ",
"        # $ % &         * = - ; ",
"      : > , < 1       2 3 4 5 6 ",
"    7 8 9 0 q w     e r t y u i ",
"  p a s d f g h   j k l z x c v ",
"b n m M N B V   C Z A S D F G   ",
"H J K L P I     U Y T R E W     ",
"Q ! ~ ^ / (     ) _ ` ' ] [     ",
"{ } |  ...X.o.  O.+.@.#.$.%.&.  ",
"  *.=.-.;.:.>.,.  <.1.2.3.4.5.6.",
"    7.8.9.0.q.w.    e.r.t.y.u.i.",
"      p.a.s.d.f.      g.h.j.R k.",
"        l.z.x.c.        v.b.n.m.",
"          M.N.B.          V.C.Z.",
"                                "
};
