/* XPM */
static const char *left_xpm[] = {
/* columns rows colors chars-per-pixel */
"20 20 63 1",
"t c #005FC5",
"> c #A9DDFF",
"5 c #A5A5A5",
"M c #4AB7FF",
"b c #BCBCBC",
"v c #0241A6",
"C c #6384B5",
"; c #527EB1",
"* c #015DC1",
"- c #015DC2",
"k c #668EC0",
"7 c #A6A6A6",
"0 c #9ED9FF",
"w c #0157BC",
"r c #6998C9",
"l c #0151B5",
"  c None",
"g c #5FBFFF",
"h c #0148AC",
"2 c #C5C5C5",
", c #005EC2",
"q c #93D5FF",
"f c #6CC5FF",
"c c #4AB6FF",
"V c #999999",
"x c #54BBFF",
"S c #B7B7B7",
"N c #0243A5",
"Z c #0243A6",
"a c #6186B9",
"$ c #6493C7",
"& c #A8DDFF",
"p c #0150B4",
"e c #648DC0",
"D c #B8B8B8",
"8 c #C7C7C7",
"o c #7BADDE",
"O c #7BADDF",
"j c #5F80B4",
"A c #506E9F",
"+ c #0066CB",
"< c #517EB2",
"y c #93D4FF",
"= c #C8C8C8",
"u c #87CFFF",
". c #7CAEE0",
"B c #4C6B9E",
": c #A3A3A3",
"@ c #E7F6FF",
"z c #5EBFFF",
"# c #0665C7",
"i c #79CAFF",
"6 c #527FB3",
"3 c #015EC3",
"% c #AFE0FF",
"d c #0158BD",
"1 c #A4A4A4",
"n c #6489B9",
"4 c #5380B4",
"m c #0149AE",
"s c #6793C4",
"9 c #0065C9",
"X c #0569CC",
/* pixels */
"                    ",
"                    ",
"                    ",
"          .Xo       ",
"         O+@#$      ",
"        O+@%&*=     ",
"       O+@%&-;:     ",
"      O+@%>,<12     ",
"     O+@%&3452      ",
"     +@%&3678       ",
"     O9&0qwe        ",
"      rtyuipa       ",
"       sdifghj      ",
"        klzxcvb     ",
"         nmMNBV     ",
"          CZAVS     ",
"           bVD      ",
"                    ",
"                    ",
"                    "
};
