/* XPM */
static char *log_xpm[] = {
/* columns rows colors chars-per-pixel */
"20 20 16 1",
"+ c #DEE3FF",
"# c #E7F5FF",
". c #5B5E65",
"% c #DAE0FA",
"O c #5F7276",
"  c None",
"$ c #C8DBFB",
"- c #D7E1ED",
"@ c #566272",
"& c #FFEFF4",
"o c #A6A5B5",
"; c #667282",
"X c #EBFFFF",
"* c #895353",
": c #586A98",
"= c #F5E6ED",
/* pixels */
"                    ",
"                    ",
"                    ",
"  ...............   ",
"  .XXXXXXXXXXXXX.o  ",
"  .XOXOOOOOOOXXX.o  ",
"  .XXXXXXXX+++++.o  ",
"  .X@#@@@@@@@@$%.o  ",
"  .&&&&&&&&&++++.o  ",
"  .&*&******++++.o  ",
"  .&&&&=++++++++.o  ",
"  .-;+;;;;;;;;++.o  ",
"  .+++++++++++++.o  ",
"  .+:+:::::::+++.o  ",
"  .+++++++++++++.o  ",
"  ...............o  ",
"   ooooooooooooooo  ",
"                    ",
"                    ",
"                    "
};
