/* XPM */
static char *paste_xpm[] = {
/* columns rows colors chars-per-pixel */
"20 20 127 2",
"0  c #C89400",
"q. c #4A4A7E",
"<. c #B3B3DA",
"A  c #4A4A7F",
"W  c #E3E4F1",
"t  c #5E5D92",
"+  c #645027",
"'  c #8686BC",
"`  c #8B8ABF",
",  c #754700",
"D  c #D0A526",
"r. c #3E3F72",
"s  c #FFFFFF",
"[  c #C0BFE0",
"k  c #525285",
"o. c #DCDDEE",
"y. c #37386C",
"U  c #CEA226",
"t. c #3C3C6F",
"1. c #3C3C70",
"p  c #8A5B00",
"#  c #797979",
"2  c #CC9900",
" . c #B07B00",
"z  c #C28E00",
"d  c #FBFCFE",
"^  c #444478",
"R  c #5D5E92",
"g  c #F1F1F8",
"=  c #B09C7D",
":. c #8587BC",
"H  c #8F8FC1",
")  c #B37F00",
"/  c #7E5000",
"5  c #C59200",
"   c None",
"8. c #BFC0E0",
"3. c #6F4100",
"P  c #47487B",
"O  c #8B5C00",
"{  c #424175",
"_  c #5B5B8E",
"F  c #BB8700",
"%  c #7A7A7A",
"K  c #8888BE",
"=. c #AC7800",
"M  c #BE8B00",
"@  c #464646",
"i  c #545488",
"X  c #555555",
"9. c #AEAED8",
"G  c #F7F6FA",
"V  c #F7F6FB",
"]  c #8181BA",
"4. c #6B3E00",
">  c #CBA026",
"o  c #B9A57D",
"#. c #3E3E72",
".. c #57588C",
"T  c #B78400",
"E  c #EBEBF5",
"C  c #EBEBF6",
"J  c #8E8DC0",
";. c #DCDCEE",
",. c #7A7AB7",
"L  c #CDCDE6",
"O. c #CDCDE7",
"Y  c #BA8800",
"-. c #555589",
"w  c #646498",
"x  c #646499",
"j  c #E4E4F2",
"9  c #A1A4AB",
"Z  c #D5D5EA",
"~  c #C6C6E3",
"$  c #C4C3C4",
"5. c #673B00",
":  c #313131",
";  c #313132",
"f  c #F6F7FB",
"b  c #4E4E82",
"3  c #CA9800",
"-  c #EAD493",
"c  c #8A8ABF",
"$. c #794B00",
"!  c #CECEE7",
"+. c #BFBFE0",
"w. c #47477B",
"6. c #653800",
"%. c #C59A26",
"2. c #AE9B7D",
"n  c #865700",
"y  c #5B5A8F",
"4  c #C89500",
"m  c #D2A626",
"8  c #724400",
"B  c #FCFCFD",
"*. c #AF7B00",
"&  c #5F4A27",
"q  c #66669A",
"|  c #B78300",
".  c #717274",
"h  c #EBEAF5",
"7  c #BF8B00",
"e. c #414175",
"@. c #B9B9DD",
"(  c #BA8700",
"}  c #C99C26",
"X. c #E4E3F1",
"*  c #7B4D00",
">. c #7D7DB7",
"<  c #C4C8D0",
"6  c #C28F00",
"0. c #3A3A6D",
"e  c #626396",
"N  c #626397",
"u  c #58588C",
"l  c #885900",
"S  c #835500",
"&. c #B38000",
"a  c #CA9700",
"v  c #DDDCEE",
"Q  c #DDDCEF",
"1  c #D4A826",
"7. c #515185",
"r  c #606094",
"I  c #815200",
/* pixels */
"                                        ",
"                                        ",
"            . X .                       ",
"    o O + @ # $ % @ & * =               ",
"    O - ; : : : : : : > , <             ",
"    O 1 2 2 2 3 4 5 6 7 8 9             ",
"    O 1 2 2 3 0 q q w e r t y u i       ",
"    p 1 2 a 4 5 q s s d f g h j k 9     ",
"    l 1 a 4 5 z x s c c c c c v b 9     ",
"    n m 4 5 6 M N B V g C j v Z A 9     ",
"    S D 5 z 7 F r G H J J c K L P 9     ",
"    I U 6 M Y T R g E W Q Z ! ~ ^ 9     ",
"    / > M ( T ) _ E ` K K ' ] [ { 9     ",
"    * } Y | )  ...X.o.Z O.~ +.@.#.9     ",
"    $.%.T &.*.=.-.;.:.] ] >.,.<.1.9     ",
"    2.8 3.4.5.6.7.Z O.~ 8.@.<.9.0.9     ",
"      < 9 9 9 9 b q.w.^ e.r.t.0.y.9     ",
"                  9 9 9 9 9 9 9 9 9     ",
"                                        ",
"                                        "
};
