/* XPM */
static char *power_sqlite_xpm[] = {
/* columns rows colors chars-per-pixel */
"140 53 97 2",
"6  c #E1E7E1",
"~  c #90AEA1",
"i  c #A6B8A6",
"j  c #557956",
"`  c #BACEC8",
"3  c #B5C4B5",
"a  c #759176",
"+  c #7A957A",
" . c #64886D",
"7  c #446A45",
"{  c #4E7554",
"O. c #2E5A30",
"d  c #496E4A",
"/  c #98B6AC",
"M  c #CED8CE",
"I  c #9DBAB1",
"h  c #9DB19D",
"T  c #6C9078",
"=  c #A2B5A3",
"#  c #718E72",
"g  c #F6F8F6",
"5  c #3B633B",
"X  c #BBC9BC",
")  c #94B3A9",
"c  c #8AA28B",
"S  c #D4E0DD",
"K  c #D9E4E1",
"}  c #83A493",
"o. c #7E9D89",
"*  c #99AE99",
"   c None",
"V  c #DEE8E5",
"r  c #638363",
"2  c #E3E9E5",
"q  c #0D400E",
"O  c #688768",
"b  c #124413",
"[  c #B7C6B8",
"]  c #A6C0B8",
"U  c #90B0A6",
"@  c #C6D2C6",
"F  c #9AB8AE",
"<  c #90A790",
".. c #5F8366",
"p  c #5A7C5B",
"'  c #8EB0A5",
"J  c #C4D5D0",
"y  c #9FB3A0",
"1  c #29552A",
"A  c #B8CDC6",
"9  c #335D34",
"_  c #BDD1CB",
"C  c #A2BDB4",
"&  c #B8C7B9",
"n  c #E2EAE8",
"$  c #829C83",
"z  c #4C714D",
"D  c #D1DEDA",
"w  c #517551",
"H  c #85A99D",
"t  c #567958",
"E  c #8AADA2",
"^  c #8AAA9C",
"e  c #85A089",
"l  c #AABCAA",
"4  c #6A896B",
"Y  c #B4CAC3",
"P  c #C8D7D3",
"%  c #D2DCD3",
"R  c #81A69A",
",  c #174718",
"-  c #F2F4F2",
":  c #1C4B1D",
"L  c #C1D3CE",
"s  c #214F21",
"o  c #FCFCFC",
"!  c #ABC3BC",
"f  c #265328",
"B  c #B0C7C0",
"v  c #3F6740",
"Q  c #CEDCD8",
"|  c #87ABA0",
"(  c #C7D8D3",
"8  c #ECF1ED",
";  c #2C582E",
"m  c #CCD6CC",
"Z  c #A5C0B7",
"0  c #DBE2DB",
"N  c #CAD9D4",
".  c #0A3D0B",
"u  c #0F4110",
"G  c #7EA498",
"X. c #3E6843",
"x  c #1E4D20",
"k  c #235124",
">  c #E8EEEC",
"W  c #EDF2F0",
/* pixels */
"                                                                                                                                                                                                                                                                                        ",
"                                                                                                                                                                                                                                                                                        ",
"                                                                                                                                                                                                                                                                                        ",
"                                  . . . . . . . . . . . . . . . . . . . . . . . . . . . . . . . . . . . . . . . . . . . . . . . . . . . . . . . . . . . . . . . . . . . . . . . . . . . . . . . . . . . . . . . . . . . . . . . . . . . . .                                             ",
"                                  . . . . . . . . . . . . . . . . . . . . . . . . . . . . . . . . . . . . . . . . . . . . . . . . . . . . . . . . . . . . . . . . . . . . . . . . . . . . . . . . . . . . . . . . . . . . . . . . . . . . .                                             ",
"                                  . . . . . . . . . . . . . . . . . . . . . . . . . . . . . . . . . . . . . . . . . . . . . . . . . . . . . . . . . . . . . . . . . . . . . . . . . . . . . . . . . . . . . . . . . . . . . . . . . . . . .                                             ",
"                                  . . . . . . . . . . . . . . . . . . . . . . . . . . . . . . . . . . . . . . . . . . . . . . . . . . . . . . . . . . . . . . . . X o . . . O + . . . . . . . . . . . . . . . . . . . . . . . . . . . . . .                                             ",
"                                  . . . . . . . . . . . . . . . . . . . . . . . . . . . . . . . . . . . . . . . . . . . . . . . . . . . . . . . . . . . . . . . . @ o . . . # $ . . . . . . . . . . . . . . . . . . . . . . . . . . . . . .                                             ",
"                                  . . . . . . . . . . . . . . . . . . . . . . . . . o % & o * . = o X - ; : > . , o < 1 2 3 4 - X > 5 . X 6 & 7 + % X 8 9 . o 0 0 8 o . . q 4 2 % & - w o e . r o . . . . . . . . . . . . . . . . . . . . .                                             ",
"                                  . . . . . . . . . . . . . . . . . . . . . . . . . o t . 0 - ; o 3 . 4 y u i ; 9 - % p o 4 % 0 . p = . X a . 1 6 s . # < 5 0 ; d - o . . . 4 % f . o X > 0 . X g . . . . . . . . . . . . . . . . . . . . .                                             ",
"                                  . . . . . . . . . . . . . . . . . . . . . . . . . o q . h o j o 4 . k 0 . : 3 X ; 8 0 l . g % d z s . X 5 . 7 g z z d x w = . . % o . . . 4 c . . - 0 v o + o w . . . . . . . . . . . . . . . . . . . . .                                             ",
"                                  . . . . . . . . . . . . . . . . . . . . . . . . . o r . 2 - k o X . + * . . g - b X g p . % n . f < . X 5 . f 0 9 . ; + 1 0 9 w 8 o . . . 4 % f . g i q m % 6 b . . . . . . . . . . . . . . . . . . . . .                                             ",
"                                  . . . . . . . . . . . . . . . . . . . . . . . . q o % M o $ . < o N g f . . g - . + 0 : . p 8 M 2 4 . X 5 . . 4 2 M 2 p . g > % 2 o . . . 4 % 0 M > 5 . 4 o $ . . . . . . . . . . . . . . . . . . . . . .                                             ",
"                                  . . . . . . . . . . . . . . . . . . . . . . . . . o . . . . . . . . . . . . . . . . . . . . . . . . . . . . . . . . . . . . . . . . . . . . . . . . . . j & . . . . . . . . . . . . . . . . . . . . . . .               B V C Z A S D n               ",
"                                  . . . . . . . . . . . . . . . . . . . . . . . . . o . . . . . . . . . . . . . . . . . . . . . . . . . . . . . . . . . . . . . . . . . . . . . . . . . % g 7 . . . . . . . . . . . . . . . . . . . . . . .           8 N F G G G G G H Z J             ",
"                                  . . . . . . . . . . . . . . . . . . . . . . . . . . . . . . . . . . . . . . . . . . . . . . . . . . . . . . . . . . . . . . . . . . . . . . . . . . . . . . . . . . . . . . . . . . . . . . . . . . . . .           A C K >               N D   N L   ",
"                                  . . . . . . . . . . . . . . . . . . . . . . . . . . . . . . . . . . . . . . . . . . . . . . . . . . . . . . . . . . . . . . . . . . . . . . . . . . . . . . . . . . . . . . . . . . . . . . . . . . . . .   n P N I B                           U Y   ",
"                                  . . .                                                                                                                                                                                               b 1 T R H Z E G I n         W n D Q       ! E L   ",
"                                  . . .                                                                                                                                                                                               U ~ ^ Y n / R U Z       ! ( Q n V       Y E C J   ",
"                                  . . .                                                                                                                                                                                           K A E d b K Y G E J     Q Q Z ! >         J ) U U     ",
"                                  . . .                                                                                                                 S _ _ -                                                         S N F G R     . . 9 H H Z   ` F ) _ >         Q ! I N n         ",
"                                  . . .                                                         8 K K                                                   I G ' B                                                       D ) H G H C     . 1 R ) A     E I _         Q C C F V             ",
"                                  . . .                   ` A G G G G G ! J               J ] E G G G )           F H I D                 [ U           ) G E                                                       Z H E G E         . { } J _ Q           K C U A K                   ",
"                                  . . .                 S U G G E ' Z Y Y J             Z E G G G G G H           H G G C n               G G D         | G !                                                   Q ! ) Y H H A         s 1  .) )           ( Z ) !                       ",
"                                  . . .               8 ! G G E ! Y                   F G G G | _ 8 ) Z           G G ) D                 A Y           G G !                                             n ! G     J I U n       Y F ^ H ..          A U I J                           ",
"                                  . . .                 V I E G G U Y J             A G G H I _     U R J         G G C Q                               G G A _                                           Z G G     ! R J     J ! G E e s f         Y ' ) Q                             ",
"                                  . . .                           S H G H C       ! ^ G U           8 C G ! N     G G ) W                 ` F Y   ! I E G G G G H E U ` ) G G H ) )                 J U H ! ' E     Y E V Y U H / C I U { :     J ) J                                   ",
"                                  . . .                             ! / G G I     ) G E !             A G G I     G G C                   F G C > ) G G G G G U C ( K N U G G G G E             n B E ' C C G Z       J I R H B ! / B : . ; K 8 Q !                                     ",
"                                  . . .                               Y E G E `   H G !                 G G G Y   G G Y                   E G H _ G G G G G ! _       A G G G G G G       n B Z ) U ) Q   H ' Q     Y I H ) A ) F (   . 1 / ) F E E _ >                                 ",
"                                  . . .                                 A U G ' D G G             C H _ ! G G B   G G N                   B G G I ] H A G R           ) G I K H G G       ! Y D           / n   J ) E Z ) ) !         . 1 X.E E U U J W                                 ",
"                                  . . .                                 Q / G E _ G G             I G ) L H G /   G G U                   U G G I D ! K G G           U G Y   H G G       C N             _   J H R Y ) C N         W H H H U Z m n                                     ",
"                                  . . .           ! G               D Z E G G ' D H G C K         N G H ! R G N   G G J       W N Q       B G G )       E G !         U G ) C G G I       K H R Y         ! H H Y F ! A           U E F 1 .                                             ",
"                                  . . .           L ' ! Y Y Y ! ) B E H G G G U n F G H C n       W G G R G G `   G G L     ! ) ' ' F Y K D G G U       U G U D     ( R G R G G E C         Y Z J ! !   Y G U A E U >         Z ` Y _ . . 5 W                                           ",
"                                  . . .             C G G G G G G G G G G G C J     B G G G G R H H G G G G C     G G G G G G G G G G G G K I G I       ` ) G G F W _ R G G H (                 N Y _ H | J H H J             Z C ) ) o.O.;                                             ",
"                                  . . .             D U G G G G G G G G G U Y         Z ' G G G G G G G G F N     G G G G G G G G G G G F   J G !         ! G G H A > I H G G E / ! C )           _ U ' Q H E C         K ! ! ' ) B K . . .                                             ",
"                                  . . .               L ! R G G G G G E B Y           n Y / ) E H H U ) G E B     ' G G G G G R E U U B Y   N H Y         > ) R G H J Q C R G G G G G '           U R Y I U `         D ) H ' L D     . . .                                             ",
"                                  . . .                       W W W                                     N ! E 8     Q U I D                                     W W W       > Y Y N         n ! R N Q G F Q J   _ C G E N W           . . .                                             ",
"                                  . . .                                                                     Y Q                                                                             I G C L E C Y E I S E G I N               . . .                                             ",
"                                  . . .                                                                                                                                                 Z ' C ) Q G Z     B Y ! !                     . . .                                             ",
"                                  . . .                                                                                                                                                 E E Y ! E C N                                 . . .                                             ",
"                                  . . .                                                                                                                                             A E D n / G U                                     . . .                                             ",
"                                  . . .                                                                                                                                             E E W W G ' Q                                     . . .                                             ",
"                                  . . .                                                                                                                                           A E U   E E J K                                     . . .                                             ",
"                                  . . . . . . . . . . . . . . . . . . . . . . . . . . . . . . . . . . . . . . . . . . . . . . . . . . . . . . . . . . . . . . . . . . . . . . . T ' . ; R E . . . . . . . . . . . . . . . . . . . . . . . .                                             ",
"                                  . . . . . . . . . . . . . . . . . . . . . . . . . . . . . . . . . . . . . . . . . . . . . . . . . . . . . . . . . . . . . . . . . . . . . . . { / 1 ^ F t . . . . . . . . . . . . . . . . . . . . . . . .                                             ",
"                                                                                                                                                                                Y G H &                                                                                                 ",
"                                                                                                                                                                                Q ! _ N                                                                                                 ",
"                                                                                                                                                                                                                                                                                        ",
"                                                                                                                                                                                                                                                                                        ",
"                                                                                                                                                                                                                                                                                        ",
"                                                                                                                                                                                                                                                                                        ",
"                                                                                                                                                                                                                                                                                        ",
"                                                                                                                                                                                                                                                                                        "
};
