/* XPM */
static char *refresh_xpm[] = {
/* columns rows colors chars-per-pixel */
"20 20 68 1",
"r c #2A76BA",
": c #2C6498",
"@ c #B4C6E5",
"O c #275A8C",
"9 c #3472AC",
"2 c #8CD2FC",
"c c #2C6AC4",
"= c #96D7FC",
"N c #6CBAEC",
"x c #4FB5FC",
"V c #7C9ECC",
"0 c #6FC1FC",
"a c #1C5C98",
"e c #467CB7",
"J c #9CA1B6",
"b c #1C5690",
"6 c #BDCFE9",
"f c #1C4D81",
"  c None",
". c #719DCC",
"u c #94C2FC",
"S c #5CA6E4",
"v c #4467A0",
"w c #548CC4",
"M c #B4C2DC",
"l c #4070A4",
"> c #3668A2",
"C c #DFEFF9",
"q c #7495BD",
"A c #183E74",
"G c #4C6694",
"g c #16447A",
"p c #4C9EDC",
"h c #9CB2DC",
"; c #90AAD2",
"& c #3A79B6",
"3 c #80C0F8",
"X c #285484",
"o c #6994BE",
"1 c #80BAEC",
"i c #61BBFA",
"Z c #0C62AC",
"H c #A4A5B8",
"# c #6E8CB6",
"d c #5882B4",
"+ c #C0FBFC",
"$ c #647EAC",
"B c #3C96E0",
"z c #BCDEFC",
"y c #0E4D92",
"t c #5FB5F4",
"- c #115493",
"m c #70B5F0",
"5 c #386AB8",
"s c #70ACE4",
"F c #ADBACE",
"j c #9FCAFC",
"D c #51ADF7",
"K c #BCC9EB",
"% c #A4C2E8",
"* c #9CE0FC",
"8 c #84AAD4",
"4 c #4286C4",
"k c #BFF0FC",
", c #91B6E4",
"7 c #84D0FC",
"< c #2766A4",
"n c #7FC9FC",
/* pixels */
"                    ",
"                    ",
"  .XXXXXXo          ",
"  O++++++X@ #$%     ",
"  .&**===-; :&>,    ",
"   <1===2-;#3*456   ",
"  1<===77-8#930-q   ",
"  w4==427-8 er0&>6  ",
"  >t24997y8 uyipX%  ",
"  a77asdy<fo yitgh  ",
"  >t7-o jfk<rripf;  ",
"  w47&lz fk3rixcvh  ",
"  1b7n9e g+mixty$M  ",
"  ze4n1&jgkNixB-V6  ",
"  C%:&bVjg+txxxZl   ",
"    ,vv; AksSDDSA@  ",
"     6F@ #AggggAGH  ",
"          @;8;8;JK  ",
"                    ",
"                    "
};
