/* XPM */
static const char *right_xpm[] = {
/* columns rows colors chars-per-pixel */
"20 20 69 1",
"6 c #678DBE",
"D c #6283B3",
"& c #A9DDFF",
"> c #005CC0",
"n c #0050B4",
"F c #0244A4",
"j c #9E9E9E",
"L c #BCBCBC",
"u c #59BDFF",
"s c #75A0D3",
"8 c #015ABF",
"< c #6497CA",
"$ c #699BCC",
"+ c #096BCD",
"7 c #6494C7",
"e c #6688B9",
"z c #50B9FF",
"d c #0151B5",
"J c #BDBDBD",
"  c None",
"2 c #95D5FF",
"p c #0145A8",
"3 c #89D0FF",
"1 c #0061C6",
"h c #5373A3",
"Z c #51BAFF",
"9 c #7DCBFF",
"- c #77ABDE",
"C c #0249AA",
"t c #0052B6",
"G c #5170A1",
"r c #638FC2",
", c #6893C5",
"N c #004FB3",
"f c #D1EDFF",
"y c #99D7FF",
"k c #759FD2",
"O c #78ACDF",
"v c #BFBFBF",
"= c #6997C9",
"4 c #7CCCFF",
"S c #5271A2",
"B c #5ABDFF",
"# c #0066CB",
"M c #0144A6",
"x c #0144A7",
"g c #0144A8",
"* c #0063C7",
"c c #5372A3",
"m c #51B9FF",
"K c #9B9B9B",
"b c #749DD1",
"o c #7CAEE0",
"5 c #0054B8",
"l c #0051B5",
"a c #C1C1C1",
"; c #A0DAFF",
"@ c #E7F6FF",
"V c #7297CA",
"% c #AFE0FF",
"H c #9C9C9C",
". c #7DAFE1",
"i c #50BAFF",
"0 c #70C6FF",
"w c #014CAF",
": c #95D6FF",
"q c #64C1FF",
"X c #0569CC",
"A c #0143A6",
/* pixels */
"                    ",
"                    ",
"                    ",
"       .Xo          ",
"      O+@#$         ",
"      #@%&*=        ",
"      -#&;:>,       ",
"       <123456      ",
"        7890qwe     ",
"         rtyuipa    ",
"        sdfuighj    ",
"       klfuzxcjv    ",
"      bnfumMcjv     ",
"      NfBiMcjv      ",
"      VCZASjv       ",
"       DFGHv        ",
"        JKL         ",
"                    ",
"                    ",
"                    "
};
