/* XPM */
static char *rightarrow2_xpm[] = {
/* columns rows colors chars-per-pixel */
"16 16 152 2",
"5  c #3C63B6",
")  c #DEE3ED",
"1  c #E8EBF1",
"V  c #F2F3F4",
"i  c #A2B0DA",
"(  c #76A2E5",
"J  c #095DDB",
"p  c #96AEDC",
"u  c #3562B7",
"2. c #2C76E2",
"%. c #1A57C7",
"Q  c #85A5DF",
" . c #1782FF",
"1. c #4772C1",
">. c #4581DF",
"O. c #DAE0EB",
"A  c #2D7DE5",
"g. c #0D6EE9",
":. c #1C77EC",
"I  c #7CA4E6",
"Y  c #2056B9",
"k. c #8BA7DB",
";  c #8897CB",
"0. c #1F7BF0",
"a  c #1E5FC9",
"|  c #2482FC",
"v. c #5782CD",
"x  c #A8D8F0",
"N. c #1C6BDF",
"d. c #DBE4F2",
"t. c #1683FF",
"   c None",
"w  c #EAEDF2",
"o. c #EFF1F4",
"k  c #395EB2",
"a. c #2783F3",
"n. c #1A68D7",
"c. c #CAD8EF",
":  c #3069C5",
"X  c #3260BC",
"=  c #8AB1D8",
"l  c #4789DF",
"[  c #356DC9",
"V. c #8CABDC",
"y. c #2586F8",
"{  c #91AFE2",
"z. c #2A87F5",
"p. c #095FDB",
"j  c #DEE2EB",
"f  c #76A1E2",
"B. c #BED0EE",
"e  c #738BC4",
"+. c #3A65BC",
"g  c #4E7BD5",
"n  c #1862D4",
"$  c #A8C3E9",
"u. c #135BCB",
"o  c #C8D2E8",
"X. c #5185E1",
"/  c #3E88E9",
"%  c #446AC4",
"T  c #0F6DEC",
"R  c #58AFFF",
",  c #9CBBE7",
"e. c #7999D0",
"v  c #B7C3E3",
"m  c #3F98FC",
"3. c #1A85FF",
"'  c #0B79FF",
"b  c #839ED8",
"6. c #ABBEE1",
"q  c #4070CE",
"S  c #6FC0FF",
"]  c #4E9BF0",
"3  c #87B8E0",
"@. c #377EE5",
"*. c #A4BDE6",
"h. c #2C92FE",
"_  c #2F61BB",
"r  c #4B82CD",
"`  c #0666EA",
".. c #156FE9",
"j. c #125CCD",
"s. c #2B73DE",
"C. c #0851C6",
"8  c #7EBDF2",
".  c #3766BD",
"D  c #9CCCED",
"*  c #5C76BA",
"E  c #8DC0EB",
"G  c #C5D0E8",
"&  c #D4DCEC",
",. c #EDF0F3",
"c  c #3760BB",
"5. c #155AC8",
"i. c #96AFDD",
"9. c #1E87FF",
"f. c #5882CB",
"~  c #006FFF",
"M  c #90CAFF",
"y  c #B3E0F3",
"+  c #1745A3",
"B  c #5D89DB",
"K  c #1E84FF",
"$. c #1E7EF1",
"U  c #D2D9E7",
"z  c #87CFFF",
"<. c #E6E9EE",
"}  c #3172D9",
"O  c #94A9D2",
"0  c #83A9E3",
"P  c #548EE4",
"d  c #A2D7FF",
"b. c #2379E6",
"<  c #3867C7",
"m. c #799BD6",
"-  c #5B7DBE",
"H  c #799BDA",
"6  c #94A3D2",
"4  c #D2FCFC",
";. c #1A84FF",
"t  c #A8E5FF",
"-. c #2683FA",
"^  c #2489FF",
"&. c #BAC9E5",
"s  c #62ADF9",
"w. c #E2E9F2",
"7  c #255EC1",
"2  c #5B74B9",
"7. c #1962D4",
"W  c #346AC6",
"C  c #D3DAE8",
"F  c #3661BF",
"l. c #1267DF",
"r. c #085CD6",
"8. c #1073F5",
"#. c #1380FF",
"h  c #F1F2F4",
"L  c #80BFFE",
"Z. c #759BD9",
"M. c #2671DD",
"4. c #2283F5",
"=. c #216AD8",
"@  c #8194C7",
"N  c #6495E1",
"q. c #3577DF",
"#  c #3C6CC3",
"!  c #1061DB",
"9  c #BAE9FF",
"Z  c #2856B3",
">  c #CEF6FF",
"x. c #2972DF",
/* pixels */
"                                ",
". X o           O + @           ",
"# $ % &         * = - ;         ",
": > , < 1       2 3 4 5 6       ",
"7 8 9 0 q w     e r t y u i     ",
"p a s d f g h   j k l z x c v   ",
"  b n m M N B V   C Z A S D F G ",
"    H J K L P I     U Y T R E W ",
"    Q ! ~ ^ / (     ) _ ` ' ] [ ",
"  { } |  ...X.o.  O.+.@.#.$.%.&.",
"*.=.-.;.:.>.,.  <.1.2.3.4.5.6.  ",
"7.8.9.0.q.w.    e.r.t.y.u.i.    ",
"p.9.a.s.d.      f.g.h.j.k.      ",
"l.z.x.c.        v.b.n.m.        ",
"M.N.B.          V.C.Z.          ",
"                                "
};
