/* XPM */
static char *rightarrow1_xpm[] = {
/* columns rows colors chars-per-pixel */
"16 16 114 2",
"/  c #167BFF",
"J  c #EDEFF3",
"U  c #0A76FF",
"4  c #BFE4FE",
"q  c #245FC4",
"s  c #1553C4",
"T  c #2384F8",
"f  c #3794FE",
";. c #1478F9",
"(  c #0D7AFF",
"H  c #2F80F6",
" . c #127BFF",
"P  c #488BEB",
"n  c #1C80FF",
">. c #5797F2",
"m  c #7DBDFF",
"X. c #086AF2",
"|  c #0673FF",
"Z  c #1463DE",
"R  c #0D6BF4",
">  c #2C58BC",
"]  c #F6F5F3",
"$  c #224AAB",
"+. c #085BD7",
"I  c #2482FE",
"h  c #AFD9FD",
"i  c #BDCFEF",
"x  c #C7D4EB",
"r  c #9ED3FF",
"F  c #60ACFD",
"   c None",
"8  c #EFF1F4",
"`  c #2479F4",
"v  c #0B5FDB",
"*  c #11389D",
";  c #BED9F4",
"=  c #88BAE3",
"!  c #3F78D7",
"w  c #5EA6F2",
"7  c #698FD9",
"^  c #3B8DF8",
"S  c #0070FF",
"1  c #4C81CD",
"3. c #9EC1F3",
"{  c #116AE4",
"}  c #1E82FD",
"=. c #075FDE",
".  c #3A5FAE",
"C  c #477DD9",
"*. c #9CC1F4",
"D  c #1781FF",
"2  c #96D3FD",
"2. c #1972EF",
"W  c #E9EEF4",
"%. c #1274F3",
"d  c #2D7CE5",
"@  c #9ABBE1",
":. c #0869F0",
"-  c #D7FEFF",
")  c #2487FC",
"M  c #A2CCFA",
"c  c #346ED1",
"y  c #487EDB",
"3  c #9ED8FF",
"o. c #5A9AF5",
"O  c #ABB5D8",
"_  c #1575F6",
"1. c #0666ED",
"Y  c #278BFE",
"K  c #84A5E2",
"X  c #254DA7",
"t  c #AFD2F6",
",. c #D4E2F4",
"5  c #8CB0E5",
"a  c #7590D0",
"V  c #D4DFEF",
"9  c #C0CCE2",
"'  c #AFCCF4",
"$. c #167CFC",
"@. c #076DF4",
"E  c #679DF5",
"&. c #2278F1",
"[  c #1F65D3",
"B  c #3682F2",
"~  c #226CDC",
"b  c #0F75FA",
"A  c #056DF9",
"p  c #EBEDF1",
"G  c #4391F7",
"#. c #0877FF",
"u  c #2E68D7",
"g  c #64B0FF",
"o  c #3050A7",
":  c #567CC9",
"%  c #677FC5",
"e  c #6CB8FF",
"k  c #2066E2",
"j  c #7FAFED",
"<. c #2D78E7",
"6  c #1B56C5",
"&  c #E2E6EE",
"L  c #286BD7",
"+  c #13399D",
"Q  c #D1DDEE",
"N  c #3A84EF",
"#  c #ACC4E2",
"<  c #1B47A8",
"-. c #096FF6",
"z  c #EFF2F5",
"0  c #345BB7",
",  c #ACBEE3",
"l  c #739EED",
"O. c #E8EEF3",
".. c #1B7FF9",
/* pixels */
"                                ",
"    . X o O                     ",
"    + @ # $ % &                 ",
"    * = - ; : > ,               ",
"    < 1 2 3 4 5 6 7 8           ",
"    9 0 q w e r t y u i         ",
"      p a s d f g h j k l z     ",
"          x c v b n m M N B     ",
"          V C Z A S D F G H     ",
"      J K L P I U Y T R E W     ",
"    Q ! ~ ^ / ( ) _ ` ' ]       ",
"    [ { } |  ...X.o.O.          ",
"    +.@.#.$.%.&.*.              ",
"    =.-.;.:.>.,.                ",
"    <.1.2.3.                    ",
"                                "
};
