/* XPM */
static char *rollback_xpm[] = {
/* columns rows colors chars-per-pixel */
"20 20 58 1",
"0 c #FCFEFC",
"> c #D4D5E0",
"m c #8C1E1C",
"p c #BBBBD8",
"n c #949694",
"= c #8483B3",
"s c #67666D",
"w c #B4B4D6",
"+ c #3C3C6E",
"v c #8C8BBA",
"6 c #444474",
"  c None",
"a c #960204",
"k c #FC8A6C",
"O c #4C4C80",
"& c #7979B1",
"2 c #D4DAE4",
"% c #848284",
"e c #A4A3C1",
"@ c #343654",
"b c #FC7E5C",
"c c #737980",
"M c #B05E68",
"3 c #7A7A99",
"u c #8C8A8E",
"r c #B4B3B6",
"y c #BCBEB4",
"< c #32304A",
"# c #3C3B58",
"4 c #1C1D30",
"9 c #E4EAF4",
"8 c #AAABCF",
"i c #E7F4FA",
"* c #64649B",
"f c #C72E2C",
"V c #CCA2AC",
"5 c #C4C6D1",
". c #9C9DB5",
"B c #C48284",
", c #7C7C88",
"j c #E45644",
"$ c #545374",
"t c #D4D3CA",
"d c #9BA4AB",
"o c #595A92",
"7 c #A5A6AB",
"x c #B16769",
": c #E4E6EF",
"q c #9494AB",
"N c #9C9C9C",
"z c #A01A1C",
"h c #E45E44",
"X c #6C6EA0",
"1 c #454649",
"; c #C9CCDD",
"l c #F17359",
"- c #ABABBE",
"g c #EC664C",
/* pixels */
"                    ",
"                    ",
"   .XoO++@#$%       ",
"  &*=-;:>-,$<1      ",
"  o*=-;2;-3$<45     ",
"  o&XoO++@@@647     ",
"  o8;909;8=o*47     ",
"  oqw209;e&o$47     ",
"  o.r5tyeuXoo47     ",
"  o8;90i:8=.wu7     ",
"  oqp20ia>psaaad    ",
"  o.r5t2aafaghjad   ",
"  o8;90iakalaaajz7  ",
"  &o&.>9aklaxrcaf%  ",
"   v*$6.akblan5mf%  ",
"    >5r-aaaaaa MM7  ",
"         rrrrrNB7   ",
"              VV    ",
"                    ",
"                    "
};
