/* XPM */
static char *runscript_xpm[] = {
/* columns rows colors chars-per-pixel */
"20 20 63 1",
"o c #FCFEFC",
"- c #D4D5E0",
"a c #BBBBD8",
"h c #24751A",
"Z c #1C4731",
"4 c #8483B3",
"x c #1C6418",
"< c #49944C",
"8 c #B7F589",
"k c #B4B4D6",
"s c #3C3C6E",
"t c #68DC45",
"c c #2F474F",
"l c #348E2C",
"& c #8C8BBA",
"d c #85E768",
"m c #7C8CA3",
", c #444474",
"z c #2C9A1C",
"q c #649964",
"  c None",
"6 c #C4C4E2",
"i c #5C6E94",
"# c #4C4C80",
"b c #248316",
"5 c #7979B1",
"= c #D4DAE4",
"N c #467250",
"A c #343654",
"w c #BCCDE4",
"r c #74E34C",
"+ c #E4EAF4",
"0 c #3C9E2C",
"V c #AAABCF",
"9 c #6CD24C",
"O c #E7F4FA",
"y c #4DCA32",
"C c #14521C",
"f c #5CD63C",
". c #64649B",
"7 c #589C58",
"$ c #C4C6D1",
"n c #547655",
"e c #99F074",
"u c #287C24",
"2 c #447D4F",
"j c #919C9C",
"v c #545374",
"X c #595A92",
"% c #A5A6AB",
"@ c #DAE4F2",
"B c #8895A4",
": c #C7D5C9",
"* c #E4E6EF",
"1 c #84BB7F",
"; c #386654",
"3 c #7482A4",
"D c #9C9C9C",
"p c #6C6EA0",
"> c #C9CCDD",
"g c #34A921",
"M c #ABABBE",
"S c #333664",
/* pixels */
"                    ",
"                    ",
"   .......XXXXXX    ",
"   .oooooOOOO+@#$   ",
"   .oooooOOOO+@#%   ",
"   .o&&&&&&&&&@#%   ",
"   .ooooOO+++*=#%   ",
"   .o&&&&&&&&&-#%   ",
"   ;:OOO++**@=>,%   ",
"   <12344455556,%   ",
"   7890qw@==->6,%   ",
"   7ertyu;i55pas%   ",
"   <dtfyyghj66ks%   ",
"   lrfyyzxcv..ks%   ",
"   bfyghnmMaakks%   ",
"   bguNBk666akVs%   ",
"   CZAs,,,sssssS%   ",
"    BD%%%%%%%%%%%   ",
"                    ",
"                    "
};
