/* XPM */
static const char *sort_xpm[] = {
/* columns rows colors chars-per-pixel */
"20 20 118 2",
"4  c Black",
",  c #CACACA",
";. c #36376A",
"5. c #3B3B6F",
"$. c #B3B3DA",
"C  c #59598C",
"8  c #A5A5A5",
"@. c #C5C6E3",
"U  c #CFCEE7",
"O. c #1153A2",
"*  c #FFFFFF",
"T  c #434377",
"-. c #A7A8D4",
"E  c #012B81",
";  c #F5F4FA",
"(  c #1B58A7",
"L  c #E1E1F0",
"N  c #6CBDFF",
"`  c #CDCEE7",
"b  c #D7D6EB",
"$  c #566688",
"X. c #B4B4DA",
"X  c #646598",
")  c #504F84",
"+  c #5F5E92",
"!  c #DADAED",
"9  c #64A6FF",
"7  c #535387",
"0  c #87BCFE",
"u  c #02266D",
"o  c #626297",
"a  c #022979",
"3. c #9797B1",
"#  c #A6A6C0",
"_  c #D3D3E9",
"   c None",
"j  c #3D90FF",
"&. c #38396D",
"g  c #4C4C81",
"q  c #7A8CB1",
"x  c #5B5B90",
"6  c #EAEAF5",
"r  c #EFEEF7",
"5  c #7A7A7E",
"P  c #DBDBED",
"|  c #CCCCE6",
"G  c #86C6FF",
"/  c #556DA0",
"o. c #3B3A6E",
"1  c #636396",
"v  c #E3E3F1",
"p  c #4CB3FF",
"]  c #BBBADE",
"V  c #01308F",
"k  c #C4E1FE",
"w  c #616094",
"O  c #616095",
".  c #AAABC4",
"A  c #DCDCEE",
"M  c #CEE6FF",
"F  c #56688D",
"z  c #7990BC",
"D  c #46467A",
"*. c #46467B",
"d  c #F3F3F9",
"H  c #2DA8FF",
"e  c #F8F7FB",
"t  c #E4E4F2",
"I  c #D5D5EA",
"'  c #656574",
" . c #C6C6E3",
"2. c #353469",
"<. c #ADACD7",
"f  c #DDDDEE",
":. c #265A9F",
"#. c #5E5E70",
"=. c #BFBFDF",
"6. c #38386C",
"l  c #265DAC",
"%  c #7A8BAC",
">  c #56568A",
":  c #EFF0F8",
">. c #B8B8DC",
"^  c #404074",
"=  c #FCFCFD",
"2  c #FCFCFE",
"s  c #5E5E92",
"%. c #AEADD7",
"+. c #8C8C8C",
"S  c #CFCFE7",
"{  c #4CB2FF",
"4. c #3E3D72",
"R  c #012979",
"}  c #4D4C81",
"1. c #A2A2D2",
"Y  c #C8C8E4",
"B  c #87C6FF",
"h  c #56678A",
"-  c #F8F9FB",
"K  c #7992C4",
"y  c #505083",
"c  c #EEEEF6",
"i  c #E7F3FE",
"3  c #7E7E80",
"J  c #3467B9",
"~  c #C1C1E1",
"n  c #49497D",
",. c #B2B2D9",
"7. c #6F6F88",
"m  c #022773",
"<  c #022469",
"Z  c #E7E7F3",
"[  c #3D3E71",
".. c #BABADD",
"Q  c #003399",
"W  c #00308F",
"@  c #5B5C90",
"&  c #656498",
/* pixels */
"  . X o O + @ #             $ %         ",
"  & * = - ; : > ,           < <         ",
"  1 2 3 4 5 6 7 8         $ 9 0 q       ",
"  w e 4 r 4 t y 8         u i p a       ",
"  s d 4 4 4 f g 8       h j k p l z     ",
"  x c 4 v 4 b n 8       m M N N B V     ",
"  C Z 4 A 4 S D 8     F j k G G H J K   ",
"  > L P I U Y T 8     R E W G H W Q Q   ",
"  > L P 4 U Y T 8         W G H W 8 8   ",
"  > L P I U Y T 8         W k G W       ",
"  > L P 4 U Y T 8         W k G W       ",
"  > L P I U Y T 8     Q Q W k G W E R   ",
"  7 ! 4 4 4 ~ ^ 8     / J k G G N ( F   ",
"  ) _ ` ' 4 ] [ 8       V B N N { m 8   ",
"  } |  .4 ..X.o.8       z l p p O.h +.  ",
"  n @.4 #.$.%.&.8         a H H u 8     ",
"  *.=.4 4 4 -.;.8         q :.:.$ 8     ",
"  T >.,.<.-.1.2.8           < < 8 ,     ",
"  3.4.5.6.;.2.7.8           % $ 8       ",
"    , 8 8 8 8 8 ,             , ,       "
};
