/* XPM */
static char *sqlhisto_xpm[] = {
/* columns rows colors chars-per-pixel */
"16 16 76 1",
"o c #FCFEFC",
"G c #3C5A9C",
"1 c #D4D5E0",
"v c #BBBBD8",
"; c #5FA2DC",
"t c #B4767C",
"9 c #4C6DA9",
"g c #C5ECFA",
"C c #B4B4D6",
"b c #3C3C6E",
"* c #8C8BBA",
"e c #ABB6CD",
"R c #7C8CA3",
"w c #444474",
"2 c #91BBDF",
"6 c #8F715F",
"  c None",
"J c #2771B4",
"p c #C4C4E2",
"z c #94C2EC",
"y c #B7DBEC",
"# c #4C4C80",
"h c #5886C3",
"0 c #7979B1",
"= c #D4DAE4",
"c c #A4A3C1",
"L c #343654",
"8 c #2768B4",
"x c #1C4AA0",
"P c #445E87",
"T c #44649C",
"N c #B05E68",
"S c #88AED8",
"D c #8C8A8E",
"Z c #B4B3B6",
"- c #BCCDE4",
"A c #9CB8D4",
"+ c #E4EAF4",
"H c #AAABCF",
"O c #E7F4FA",
"s c #DBF2FC",
". c #64649B",
"$ c #C4C6D1",
"n c #8CAABC",
"I c #7C7C88",
", c #2C7DD1",
"U c #919C9C",
"V c #545374",
"3 c #3482C8",
"X c #595A92",
": c #196BB4",
"u c #B8E4F8",
"5 c #7CA2B4",
"& c #A5A6AB",
"4 c #4689B9",
"j c #244E9C",
"Y c #16529A",
"M c #9C3E44",
"d c #B16769",
"% c #DAE4F2",
"B c #043CA4",
"@ c #E4E6EF",
"F c #649EDC",
"< c #6EA3D4",
"> c #0468CC",
"m c #A01A1C",
"k c #6C6EA0",
"q c #C9CCDD",
"l c #AC4E54",
"r c #B7D9D1",
"E c #ABABBE",
"K c #333664",
"f c #A8CAD8",
"i c #98A8C4",
"a c #C6E5EE",
"7 c #6F9BB7",
/* pixels */
"    ......XXXXX ",
"    .ooooOOO+@#$",
"    .oooOO++@%#&",
"    .o*******=#&",
"  -;:>,<-+@%=1#&",
" 234567489000qw&",
"-37ertyu<8i1qpw&",
";4easdfgghjkkpw&",
",5rsslfggzxcpvb&",
">nas$mMNvuBV.Cb&",
",7sggZnAASxDCCb&",
"F4ugggyuuhGDCHb&",
"-J<ggguu<xKLbbK&",
" S8hzu2hjPIU&&&&",
"  A9YBxTRE1     ",
"   =$Z&Z$=      "
};
