/* XPM */
static char *stop_xpm[] = {
/* columns rows colors chars-per-pixel */
"20 20 3 1",
"X c #FCFEFC",
"  c None",
". c #C72E2C",
/* pixels */
"                    ",
"                    ",
"                    ",
"       .....        ",
"     .........      ",
"    ...........     ",
"   ..XX.....XX..    ",
"   ...XX...XX...    ",
"  .....XXXXX.....   ",
"  ......XXX......   ",
"  ......XXX......   ",
"  .....XXXXX.....   ",
"   ...XX...XX...    ",
"   ..XX.....XX..    ",
"    ...........     ",
"     .........      ",
"       .....        ",
"                    ",
"                    ",
"                    "
};
