/* XPM */
static char *table_tmp_xpm[] = {
/* columns rows colors chars-per-pixel */
"16 16 127 2",
"8. c #BDBEE1",
"{  c #8182AD",
"M  c #9595BC",
"9. c #3B3B71",
"t. c #403F74",
"$  c #59598D",
"|  c #7C7BA9",
"_  c #403F75",
"I  c #CFD1EA",
"s  c #D4D5EB",
",. c #D9D9EE",
"%. c #7F7FAB",
"S  c #434378",
"N  c #9392BA",
"1  c #F0F0F9",
">. c #DCDDEF",
"W  c #E1E1F1",
"y  c #E6E5F4",
"@. c #D2D2EA",
"]  c #8787B1",
"P  c #8787B2",
"7  c #4B4B80",
"H  c #E4E5F4",
"t  c #E9E9F5",
"<. c #D5D6ED",
")  c #C6C7E4",
"r  c #999AC0",
"0. c #535387",
"[  c #8584AF",
"0  c #626295",
"*  c #535388",
",  c #F6F5FB",
"J  c #DDDEF0",
"u  c #E2E2F2",
".  c None",
"k  c #9797BD",
"m  c #9797BE",
"-. c #3D3D71",
" . c #7979A7",
":  c #FEFDFF",
"#  c #5B5B8F",
"R  c #EFEEF8",
"!  c #D6D7ED",
"*. c #C2C4E3",
"i  c #9090B8",
"n  c #454579",
"<  c #636397",
"g  c #F7F6FC",
"z  c #DEDFF0",
"4  c #E3E3F2",
"=. c #C0C1E2",
".. c #3E3E73",
"w. c #4D4D81",
";  c #4D4D82",
"F  c #EBEBF6",
"e  c #F0EFF8",
"c  c #D7D8ED",
"a  c #D7D8EE",
"6  c #DCDCEF",
"4. c #C8C9E6",
"T  c #414276",
"A  c #8282AD",
"f  c #5F6094",
";. c #555589",
"o  c #646498",
":. c #E4E4F2",
"5  c #DFE0F1",
"G  c #E9E8F5",
"b  c #D0D1EA",
"`  c #9495BB",
"V  c #8A8AB4",
"5. c #7B7BA8",
"@  c #5D5D91",
"E  c #E7E8F4",
"j  c #ECECF7",
"v  c #D3D5EB",
"O. c #DDDDEF",
"7. c #BFC2E2",
"Y  c #C9CAE6",
"(  c #C9CAE7",
"}  c #7E7FAB",
"'  c #9292B9",
"   c #FF0000",
"C  c #8887B1",
"d  c #47477C",
">  c #F9F8FC",
"X  c #656599",
"o. c #E0E1F2",
"l  c #E5E5F4",
"3  c #EAE9F5",
"U  c #CCCEE7",
"6. c #C2C3E3",
"q. c #4F4F83",
"Q  c #908FB8",
"-  c #4F4F84",
"+  c #5E5E92",
"2  c #EDEDF7",
"w  c #F2F1F9",
"+. c #D9DAEE",
"&. c #C5C7E4",
"#. c #CFCFE9",
"Z  c #8484AF",
"%  c #57578B",
"q  c #FAF9FD",
"L  c #D7D7EC",
"8  c #B2B2B2",
"1. c #8788B1",
"K  c #DADBEE",
"$. c #CBCCE7",
"3. c #CBCCE8",
"^  c #8585AF",
"y. c #3A3A6F",
"e. c #49497D",
"D  c #F1F2F9",
"9  c #49497E",
"X. c #E7E7F5",
"2. c #CED0E8",
"~  c #D3D4EB",
"B  c #8D8DB5",
"x  c #8D8DB6",
"=  c #515185",
"O  c #606094",
"r. c #47467C",
"&  c #565589",
"h  c #EFEFF8",
"p  c #DBDCEF",
"/  c #CCCDE7",
/* pixels */
"            . . . . . . . . . . ",
"  .     .   . . . . . . . . . . ",
"X o     O + @ # $ % & * = - ; . ",
"o :     > , < 1 2 3 < 4 5 6 7 8 ",
"< <     < < < < < < < < < < 9 8 ",
"0 q     w e r t y u i p a s d 8 ",
"f g     h j k l u z x c v b n 8 ",
"+         m M N i B V C Z A S 8 ",
"@ D < F G H N J K L P I U Y T 8 ",
"# R < E l W Q K ! ~ ^ / ( ) _ 8 ",
"$ < < ` ' i x V ] [ { } |  ...8 ",
"% X.< o.O.+.V @.#.$.%.&.*.=.-.8 ",
";.:.< >.,.<.1.2.3.4.5.6.7.8.9.8 ",
"0.= q.w.7 e.r.n S T t...-.9.y.8 ",
". 8 8 8 8 8 8 8 8 8 8 8 8 8 8 8 ",
". . . . . . . . . . . . . . . . "
};
