/* XPM */
static char *tabledrop_xpm[] = {
/* columns rows colors chars-per-pixel */
"20 20 136 2",
"X. c #B94B39",
"Z  c #9595BC",
"%  c #59598D",
"E  c #CFD1EA",
"f  c #D4D5EB",
",. c #D9D9EE",
"e. c #780505",
"{  c #5C1311",
"W  c #B28283",
"_  c #740E04",
"J  c #434378",
"A  c #9392BA",
"y. c #CC361C",
"2  c #F0F0F9",
"s. c #9C7274",
">. c #DCDDEF",
"~  c #E1E1F1",
"Y  c #B08890",
"i  c #E6E5F4",
"g. c #BCC2D4",
"(  c #660F0B",
"8  c #4B4B80",
"/  c #BC7E81",
"I  c #E4E5F4",
"u  c #E9E9F5",
"<. c #D5D6ED",
"-. c #ADA4AB",
"3. c #F44410",
"y  c #999AC0",
"T  c #4F150F",
"8. c #535387",
"O. c #DCC5CC",
"q  c #626295",
"=  c #535388",
"1  c #F6F5FB",
"U  c #DDDEF0",
"p  c #E2E2F2",
"r. c #FC8D67",
")  c #FC937B",
"   c None",
"`  c #BC6658",
"x  c #9797BD",
"C  c #9797BE",
"|  c #E44E2C",
">  c #FEFDFF",
"$  c #5B5B8F",
"Q  c #EFEEF8",
"a  c #9090B8",
"N  c #454579",
"o  c #636397",
"k  c #F2F2FA",
"j  c #F7F6FC",
"v  c #DEDFF0",
"5  c #E3E3F2",
"4. c #FC3A0C",
"0. c #4D4D81",
":  c #4D4D82",
"L  c #EBEBF6",
"t  c #F0EFF8",
"n  c #D7D8ED",
"d  c #D7D8EE",
"7  c #DCDCEF",
"H  c #8282AD",
"h  c #5F6094",
";. c #555589",
"X  c #646498",
".. c #D24629",
":. c #E4E4F2",
"6  c #DFE0F1",
"P  c #E9E8F5",
"M  c #D0D1EA",
"*. c #DC451C",
"]  c #9495BB",
"V  c #9999BF",
"D  c #8A8AB4",
"#  c #5D5D91",
"d. c #975551",
"!  c #E7E8F4",
"z  c #ECECF7",
"O  c #626196",
"m  c #D3D5EB",
"#. c #DDDDEF",
"[  c #9292B9",
"F  c #8887B1",
"g  c #47477C",
"'  c #690606",
"<  c #F9F8FC",
".  c #656599",
"@. c #E0E1F2",
"c  c #E5E5F4",
"4  c #EAE9F5",
"}  c #E55727",
"u. c #D22E1C",
"5. c #A84C4C",
"a. c #AC3428",
"9. c #4F4F83",
"7. c #D1C6CF",
"^  c #908FB8",
";  c #4F4F84",
"@  c #5E5E92",
"3  c #EDEDF7",
"r  c #F2F1F9",
"%. c #EC4C1C",
"$. c #D9DAEE",
"R  c #AA6C69",
"G  c #8484AF",
"&  c #57578B",
"e  c #F5F5FB",
"w  c #FAF9FD",
"&. c #EE3A0E",
" . c #890306",
"=. c #885A5C",
"9  c #B2B2B2",
"1. c #8788B1",
"B  c #9B9BC1",
"p. c #5C0204",
"t. c #E42C14",
"f. c #BB9EA5",
"q. c #49497D",
"K  c #F1F2F9",
"0  c #49497E",
",  c #FBFAFD",
"+. c #E7E7F5",
"2. c #CED0E8",
"i. c #BC3224",
"6. c #CC989C",
"o. c #4A0906",
"S  c #8D8DB5",
"b  c #8D8DB6",
"h. c #CCCDD7",
"-  c #515185",
"+  c #606094",
"w. c #47467C",
"*  c #565589",
"l  c #EFEFF8",
"s  c #DBDCEF",
/* pixels */
"                                        ",
"                                        ",
"    . X o O + @ # $ % & * = - ; :       ",
"    X > o , < 1 o 2 3 4 o 5 6 7 8 9     ",
"    o o o o o o o o o o o o o o 0 9     ",
"    q w o e r t y u i p a s d f g 9     ",
"    h j o k l z x c p v b n m M N 9     ",
"    @ o o B V C Z A a S D F G H J 9     ",
"    # K o L P I A U Y T R E W T Y 9     ",
"    $ Q o ! c ~ ^ / ( ) _ ` ' ) ' R     ",
"    % o o ] [ a b { ) } |  .) ..X.o.O.  ",
"    & +.o @.#.$.D Y ( } %.&.*...' =.-.  ",
"    ;.:.o >.,.<.1.2.`  .3.4.&. .5.6.7.  ",
"    8.- 9.0.8 q.w./ e.r.&.&.&.t. .R     ",
"      9 9 9 9 9 9 T ) .... .y.u.i.o.7.  ",
"                  W p.X.' 5.e.a.p.=.-.  ",
"                    s.o.d.6.R o.d.f.7.  ",
"                      O.f.7.  7.f.g.    ",
"                        h.              ",
"                                        "
};
