/* XPM */
static char *trigger2_xpm[] = {
/* columns rows colors chars-per-pixel */
"16 16 127 2",
"l  c #A1DA95",
"%  c #8EAB7B",
".. c #FFB26C",
"m  c #A0CAA4",
"o  c #7FC57F",
"h  c #AEBA88",
"+  c #2B7C2F",
"<  c #1E6112",
",  c #6ABC56",
"W  c #FFF6E0",
"b  c #65B85C",
"X  c #2D7334",
"}  c #FEDAC2",
"V  c #D89C78",
"O. c #E7A26B",
"Z  c #F3E2C4",
"g  c #95C9A3",
"$  c #5EAE4F",
"1  c #205221",
"4  c #1F6B2D",
"r  c #3E6D37",
"*  c #8CCB9E",
"7  c #49A834",
"u  c #4F9942",
"@  c #91EF8F",
"!  c #9DCEA1",
"E  c #E8B8A2",
"v  c #64BC56",
"a  c #177100",
"-. c #A57551",
"F  c #0E560D",
"y  c #206F1C",
"Y  c #FFC684",
"f  c #16671B",
"P  c #FFDBCF",
"   c None",
"C  c #FACEB1",
"U  c #EDA76B",
"0  c #016400",
"J  c #285117",
"`  c #FFC07B",
"i  c #8ED97A",
"_  c #EFA47C",
";  c #1D820C",
".  c #80BA88",
",. c #D99161",
"o. c #FFBA78",
"&. c #FFB775",
"8. c #A87351",
"-  c #8DEC88",
"S  c #C3EBB9",
":  c #9FFF86",
"9. c #B08469",
":. c #F8C8B4",
"@. c #E7BFA6",
"7. c #AD714C",
"=. c #D59768",
"T  c #F29F73",
"D  c #1B591A",
">. c #C18465",
"w. c #F1C4AF",
"<. c #D08752",
"n  c #145511",
"A  c #B3BD9A",
"8  c #0A6D00",
"4. c #DEC1AF",
"Q  c #90C494",
"R  c #C67F61",
"%. c #FDAB6F",
"{  c #AE7854",
"'  c #FFD185",
"t  c #A8EEA6",
"s  c #71D660",
" . c #F3A074",
"r. c #DEB5A1",
"0. c #CDAC99",
"X. c #FFC87B",
"2. c #B6805A",
"/  c #B6BEA7",
"5  c #A2FAA6",
"6. c #C08563",
"H  c #104904",
"x  c #206812",
"t. c #E4C3B2",
"I  c #CD9A7F",
"#. c #E3A78F",
"G  c #1B6118",
"O  c #85BA8C",
"e  c #7DAC8C",
"]  c #FFB676",
"N  c #EEB38B",
"&  c #313F25",
"K  c #2D481D",
"|  c #DC977A",
"+. c #A66F48",
"$. c #D78D68",
";. c #D6B29C",
")  c #D5997F",
"3. c #B38A6E",
"z  c #5F9F51",
"1. c #C48456",
"~  c #A3C39E",
"6  c #147109",
"*. c #FBB076",
"y. c #F5DDD1",
"^  c #A0B397",
"k  c #5A8F4B",
"M  c #F7D1C4",
"L  c #AFBFA2",
"d  c #49AC42",
"e. c #E3B59E",
"j  c #254B0E",
"5. c #DEAE98",
">  c #036200",
"q. c #F3DDD0",
"B  c #CF8D5D",
"p  c #5FB047",
"3  c #87BF98",
"=  c #207029",
"w  c #0E5415",
"(  c #AAAF9B",
"c  c #64B455",
"q  c #76D06E",
"#  c #15720A",
"[  c #EDA573",
"2  c #A9CBB2",
"9  c #86E96A",
/* pixels */
"                                ",
"                . X o           ",
"              O + @ # $   % &   ",
"            * = - ; : > , < 1 2 ",
"          3 4 5 6 7 8 9 0 q w e ",
"          r t y u i p a s d f g ",
"          h j k l z x c v b n m ",
"  M N B V C Z A S D F G H J K L ",
"P I U Y T R E W     Q ! ~ ^ / ( ",
") _ ` ' ] [ { }                 ",
"|  ...X.o.O.+.@.                ",
"#.$.%.&.*.=.-.;.                ",
":.>.,.<.1.2.3.4.                ",
"  5.6.7.8.9.0.q.                ",
"    w.e.r.t.y.                  ",
"                                "
};
