/* XPM */
static char *trigger2_tmp_xpm[] = {
/* columns rows colors chars-per-pixel */
"16 16 124 2",
"z  c #A1DA95",
"&  c #8EAB7B",
"}  c #FFB26C",
"M  c #A0CAA4",
"O  c #7FC57F",
"j  c #AEBA88",
"@  c #2B7C2F",
"1  c #1E6112",
"<  c #6ABC56",
"T  c #FFF6E0",
"n  c #65B85C",
"o  c #2D7334",
"]  c #FEDAC2",
".. c #E7A26B",
"B  c #F3E2C4",
"h  c #95C9A3",
"%  c #5EAE4F",
"2  c #205221",
"5  c #1F6B2D",
"t  c #3E6D37",
"=  c #8CCB9E",
"8  c #49A834",
"i  c #4F9942",
"#  c #91EF8F",
"E  c #9DCEA1",
"Y  c #E8B8A2",
"b  c #64BC56",
"s  c #177100",
"&. c #A57551",
"A  c #0E560D",
"u  c #206F1C",
"P  c #FFC684",
"g  c #16671B",
"J  c #FFDBCF",
".  c None",
"N  c #FACEB1",
"L  c #EDA76B",
"q  c #016400",
"F  c #285117",
"(  c #FFC07B",
"p  c #8ED97A",
"/  c #EFA47C",
":  c #1D820C",
"X  c #80BA88",
";. c #D99161",
" . c #FFBA78",
"#. c #FFB775",
"5. c #A87351",
";  c #8DEC88",
"C  c #C3EBB9",
">  c #9FFF86",
"6. c #B08469",
"=. c #F8C8B4",
"o. c #E7BFA6",
"4. c #AD714C",
"%. c #D59768",
"I  c #F29F73",
"Z  c #1B591A",
"-. c #C18465",
"9. c #F1C4AF",
":. c #D08752",
"m  c #145511",
"V  c #B3BD9A",
"9  c #0A6D00",
"1. c #DEC1AF",
"R  c #90C494",
"U  c #C67F61",
"@. c #FDAB6F",
"'  c #AE7854",
")  c #FFD185",
"y  c #A8EEA6",
"d  c #71D660",
"{  c #F3A074",
"q. c #DEB5A1",
"7. c #CDAC99",
"|  c #FFC87B",
",. c #B6805A",
"!  c #B6BEA7",
"6  c #A2FAA6",
"3. c #C08563",
"   c #FF0000",
"D  c #104904",
"c  c #206812",
"w. c #E4C3B2",
"K  c #CD9A7F",
"O. c #E3A78F",
"S  c #1B6118",
"+  c #85BA8C",
"r  c #7DAC8C",
"_  c #FFB676",
"*  c #313F25",
"G  c #2D481D",
"[  c #DC977A",
"X. c #A66F48",
"+. c #D78D68",
"*. c #D6B29C",
"^  c #D5997F",
"<. c #B38A6E",
"x  c #5F9F51",
">. c #C48456",
"W  c #A3C39E",
"7  c #147109",
"$. c #FBB076",
"e. c #F5DDD1",
"Q  c #A0B397",
"l  c #5A8F4B",
"H  c #AFBFA2",
"f  c #49AC42",
"0. c #E3B59E",
"k  c #254B0E",
"2. c #DEAE98",
",  c #036200",
"8. c #F3DDD0",
"a  c #5FB047",
"4  c #87BF98",
"-  c #207029",
"e  c #0E5415",
"~  c #AAAF9B",
"v  c #64B455",
"w  c #76D06E",
"$  c #15720A",
"`  c #EDA573",
"3  c #A9CBB2",
"0  c #86E96A",
/* pixels */
"            . . . . . . . . . . ",
"  .     .   . . X o O . . . . . ",
". .     . . . + @ # $ % . & * . ",
". .     . . = - ; : > , < 1 2 3 ",
". .     . 4 5 6 7 8 9 0 q w e r ",
". .     . t y u i p a s d f g h ",
". .     . j k l z x c v b n m M ",
".         N B V C Z A S D F G H ",
"J K L P I U Y T . . R E W Q ! ~ ",
"^ / ( ) _ ` ' ] . . . . . . . . ",
"[ { } |  ...X.o.. . . . . . . . ",
"O.+.@.#.$.%.&.*.. . . . . . . . ",
"=.-.;.:.>.,.<.1.. . . . . . . . ",
". 2.3.4.5.6.7.8.. . . . . . . . ",
". . 9.0.q.w.e.. . . . . . . . . ",
". . . . . . . . . . . . . . . . "
};
