/* XPM */
static char *trigger_xpm[] = {
/* columns rows colors chars-per-pixel */
"16 16 11 1",
"# c #64CE35",
"  c None",
"O c #85EC53",
"X c #078C05",
"& c #056904",
"$ c #067905",
"@ c #71D83E",
"o c #94FA62",
"+ c #79E64D",
"% c #B7B6B6",
". c #049804",
/* pixels */
"                ",
"  .......XXX    ",
"  .oooO++@#$%   ",
"  XoooOO@@#&%   ",
"  $$$$&&&&&&%   ",
"   %%%#&%%%%%   ",
"  .......XXX    ",
"  .oooO++@#$%   ",
"  XoooOO@@#&%   ",
"  $$$$&&&&&&%   ",
"   %%%#&%%%%%   ",
"  .......XXX    ",
"  .oooO++@#$%   ",
"  XoooOO@@#&%   ",
"  $$$$&&&&&&%   ",
"   %%%%%%%%%%   "
};
