/* XPM */
static char *triggerdrop_xpm[] = {
/* columns rows colors chars-per-pixel */
"20 20 52 1",
"# c #64CE35",
"8 c #B94B39",
"s c #780505",
"3 c #5C1311",
"; c #B28283",
"< c #740E04",
"g c #CC361C",
"z c #9C7274",
"* c #B08890",
"v c #BCC2D4",
"> c #660F0B",
": c #BC7E81",
"t c #ADA4AB",
"y c #F44410",
"= c #4F150F",
"0 c #DCC5CC",
"d c #FC8D67",
", c #FC937B",
"  c None",
"1 c #BC6658",
"5 c #E44E2C",
"u c #FC3A0C",
"O c #85EC53",
"X c #078C05",
"& c #056904",
"$ c #067905",
"7 c #D24629",
"e c #DC451C",
"x c #975551",
"2 c #690606",
"4 c #E55727",
"h c #D22E1C",
"i c #A84C4C",
"l c #AC3428",
"a c #D1C6CF",
"q c #EC4C1C",
"- c #AA6C69",
"@ c #71D83E",
"w c #EE3A0E",
"o c #94FA62",
"6 c #890306",
"r c #885A5C",
"+ c #79E64D",
"% c #B7B6B6",
"k c #5C0204",
"f c #E42C14",
"c c #BB9EA5",
"j c #BC3224",
"p c #CC989C",
". c #049804",
"9 c #4A0906",
"b c #CCCDD7",
/* pixels */
"                    ",
"                    ",
"  .......XXX        ",
"  .oooO++@#$%       ",
"  XoooOO@@#&%       ",
"  $$$$&&&&&&%       ",
"   %%%#&%%%%%       ",
"  .......XXX        ",
"  .oooO++@*=- ;=*   ",
"  XoooOO@:>,<12,2-  ",
"  $$$$&&&3,456,7890 ",
"   %%%#&%*>4qwe72rt ",
"  .......X16yuw6ipa ",
"  .oooO++:sdwwwf6-  ",
"  XoooOO@=,776ghj9a ",
"  $$$$&&&;k82islkrt ",
"   %%%%%%%z9xp-9xca ",
"           0ca acv  ",
"            b       ",
"                    "
};
