/* XPM */
static char *triggercreate_xpm[] = {
/* columns rows colors chars-per-pixel */
"20 20 49 1",
"# c #64CE35",
"y c #00C100",
"a c #004C00",
"r c #004900",
"; c #ECFFEC",
"z c #004600",
"= c #006600",
"- c #29762B",
"w c #00D500",
"  c None",
"7 c #005400",
"x c #1C521E",
"5 c #347F34",
"s c #004800",
"O c #85EC53",
", c #B2B6BD",
"X c #078C05",
"6 c #006500",
"* c #125E24",
"& c #056904",
"$ c #067905",
"< c #006200",
"t c #00D400",
"> c #005F00",
"4 c #A1A4AB",
"3 c #005900",
"j c #00CB00",
"p c #005600",
"8 c #3A723D",
"f c #47477B",
"2 c #00EE00",
"l c #3A6F3D",
"0 c #00E800",
"k c #004700",
": c #8CFE8C",
"q c #00DF00",
"@ c #71D83E",
"o c #94FA62",
"g c #ADB1B8",
"+ c #79E64D",
"% c #B7B6B6",
"9 c #006400",
"1 c #86FE86",
"i c #005B00",
"u c #317C31",
". c #049804",
"e c #00CA00",
"d c #1C531E",
"h c #004F00",
/* pixels */
"                    ",
"                    ",
"  .......XXX        ",
"  .oooO++@#$%       ",
"  XoooOO@@#&%       ",
"  $$$$&&&&&&%       ",
"   %%%#&%%%%%       ",
"  .......XXX        ",
"  .oooO++@#*==-     ",
"  XoooOO@@#=;:>,    ",
"  $$$$&&&&&<1234    ",
"   %%%#&56<<123378  ",
"  ......9;1120qwer, ",
"  .oooO+9:220qteyr4 ",
"  XoooOOuippqwaasd4 ",
"  $$$$&&fffptea444g ",
"   %%%%%%%%hjyk4    ",
"           lzzx4    ",
"            ,44g    ",
"                    "
};
