/* XPM */
static char *undo_xpm[] = {
/* columns rows colors chars-per-pixel */
"20 20 151 2",
"&. c #B5E2FF",
"i  c #A9DDFF",
"K  c #768DA7",
"5. c #0053A3",
".. c #3BB1FF",
"r. c #C8CDD5",
"+. c #043B86",
"$  c #6BA7D8",
"]  c #0E438C",
"W  c #B8E3FF",
"i. c #205FA6",
"7. c #004A98",
"z  c #4AB7FF",
"M  c #054E9C",
"=  c #A7DAFB",
"q. c #4E9CDB",
"-. c #004493",
"h. c #D0D5DE",
"8. c #004494",
"r  c #E2F4FF",
",  c #2C8DD5",
"u. c #1958A2",
"S  c #BBE4FF",
"v  c #63C2FF",
":  c #125AA5",
"-  c #80C1EF",
")  c #B0B4BB",
";. c #BFC3CC",
"k  c #0073C9",
"3  c #2780C8",
"%  c #1173C2",
"w  c #0D4A92",
"d  c #83C5F4",
"y  c #0A75C7",
"2. c #2C7BC0",
"g. c #194383",
"^  c #4BB2F8",
"$. c #E0E5EE",
"x. c #93A9CB",
"x  c #CDEBFE",
"   c None",
"X. c #49B8FF",
"{  c #D6DAE4",
"p  c #75C9FF",
"t  c #5CAFEB",
"c. c #0B4A97",
"@  c #226AB1",
"+  c #075CAD",
"t. c #9DA2AA",
"/  c #0759A8",
">  c #9BB4D2",
"U  c #77B7E9",
"g  c #9AD6FE",
"q  c #72B0E2",
"!  c #42B4FF",
"M. c #355B97",
"4. c #0058A9",
">. c #1D5AA0",
"h  c #094792",
"N. c #8792A4",
"a  c #7DCBFF",
"9  c #98D6FF",
"y. c #7B96C0",
"Z  c #E1E6F0",
"7  c #8CD1FF",
"O. c #205B9D",
"d. c #093B86",
"b. c #8F97A6",
"e. c #999FA9",
"l. c #0E3C83",
":. c #839EC4",
"e  c #DADFE9",
"|  c #B6E2FF",
"1  c #2C89D1",
"T  c #5E7699",
"<  c #0075CB",
"L  c #A1A4AB",
"R  c #D8DCE6",
"A  c #006FC5",
"f. c #3184CB",
"Q  c #3AB1FF",
"E  c #006CC2",
"c  c #81CDFF",
"}  c #0069BD",
"a. c #A9ACB4",
"o. c #2F8AD4",
"0  c #9CD8FF",
"~  c #49B7FF",
"0. c #12448A",
"[  c #8490A2",
"B  c #77B9EA",
"Y  c #245DA0",
"C  c #647B9D",
"u  c #D2E8F9",
"P  c #ACB0B8",
"9. c #1F5393",
"s  c #75BCEF",
"<. c #35578C",
"8  c #93D4FF",
"k. c #2376C1",
"#. c #063681",
"j. c #335D98",
"N  c #024897",
"&  c #B5D7F1",
"V. c #C3C7D0",
"_  c #DCE1EA",
"*. c #2FADFF",
"G  c #5BBEFF",
"C. c #E1E5EF",
"v. c #093D86",
"4  c #5FA6DD",
"l  c #BDE5FF",
" . c #34AEFF",
";  c #5FA3DA",
"O  c #015EAF",
"B. c #ADB1B8",
"6  c #85CFFF",
"m  c #1261AD",
"s. c #E4E9F3",
"n  c #5BAFEB",
".  c #B3CEE9",
"2  c #B8D2EB",
"X  c #3383C7",
"F  c #52BAFF",
"o  c #0966B8",
"b  c #6DC5FF",
"6. c #014F9F",
"#  c #B8CCE4",
",. c #3574B5",
"w. c #05377F",
"=. c #35AFFF",
"@. c #6AAFE6",
"*  c #B4DBF6",
"j  c #9FA9B8",
"H  c #4DAAEB",
"V  c #215BA0",
"5  c #BEE3FD",
"f  c #97D6FF",
"'  c #60A1D8",
"1. c #AEB2B9",
"z. c #BDC1C9",
"n. c #B3B6BE",
"`  c #174D93",
"m. c #DBE2EF",
"J  c #0E5BA8",
"%. c #0065B9",
"(  c #8E9AAA",
"p. c #4B6692",
"I  c #06418E",
"D  c #42B5FF",
"3. c #005CAF",
/* pixels */
"                                        ",
"                                        ",
"                . X o O + @ #           ",
"              $ % & * = - ; : >         ",
"    , < 1 2 3 4 5 6 7 8 9 0 q w e       ",
"    < r t y u i p a 6 s d f g h j       ",
"    k l z x c v b n m M N B 9 V C Z     ",
"    A S D z F G H J K L P I U Y T R     ",
"    E W Q ! ~ ^ / ( ) _   ` ' ] [ {     ",
"    } |  ...! X.o.O.Z     +.@.#.L $.    ",
"    %.&.*.=...! z -.;.  :.>.,.<.1.      ",
"    2.3.4.5.6.7.8.9.L   0.q.w.e.r.      ",
"      ;.L L t.L L L ;.y.u.i.p.a.s.      ",
"                      d.f.g.L h.        ",
"                    j.k.l.e.z.          ",
"                  x.c.v.b.n.s.          ",
"                  m.M.N.B.Z             ",
"                    s.V.C.              ",
"                                        ",
"                                        "
};
