/* XPM */
static char *view_tmp_xpm[] = {
/* columns rows colors chars-per-pixel */
"16 16 20 1",
"* c #FCFEFC",
"+ c #CFCED0",
"O c #040E04",
"% c #9CA1B6",
"X c #040205",
"$ c #7C745C",
". c None",
"- c #6B6B76",
"# c #6E6C5C",
"< c #666A85",
"> c #B7C6D7",
", c #CCCEA9",
"& c #C4C6CC",
"@ c #6C6687",
"  c #FF0000",
"= c #626664",
"o c #9C9F84",
"; c #EFFEF9",
"1 c #9798B0",
": c #040321",
/* pixels */
"      ..........",
" .  . ..........",
"..  ............",
"..  ..XXo.......",
"..  oXo.O.......",
".+  X...........",
".@  #X.......XX.",
".    X.XXo..O.$.",
".%&**X=-*-oXo.X.",
"..X;&:->**X,....",
"...:X+<***X.....",
".......X;&X.....",
"........XX1.....",
"................",
"................",
"................"
};
