/* XPM */
static char *views_xpm[] = {
/* columns rows colors chars-per-pixel */
"16 16 32 1",
"- c #FCFEFC",
", c #CFCED0",
"1 c #F1FAE1",
"> c #040E04",
"7 c #9CA1B6",
"= c #040205",
"6 c #7C745C",
"& c #D1D0BE",
"* c #FCFDDD",
"  c None",
"0 c #6B6B76",
"3 c #6E6C5C",
"< c #666A85",
": c #FCF1E0",
"$ c #9C9A66",
"w c #B7C6D7",
"# c #CCCEA9",
"% c #5C5E30",
". c #CFCF97",
"X c #5F6228",
"8 c #C4C6CC",
"O c #FCFCC4",
"2 c #6C6687",
"9 c #626664",
"; c #9C9F84",
"o c #FCFEAC",
"4 c #EFFEF9",
"+ c #FCF8B4",
"@ c #5C5D3F",
"5 c #F9F1C8",
"e c #9798B0",
"q c #040321",
/* pixels */
"                ",
"  .XXXXX        ",
"  XoO+oo@       ",
"  XOoO.#$@@%%@@&",
"  @..****O*OOO*=",
"  @*-==;ooooooO=",
"   ;=;:>ooooooO=",
",<==1oooooooo+O=",
"2--3=++ooooo==O=",
"<4--=*==;O5>.6O=",
"78--=90-0;=;1=O=",
" =48q0w--=#:O5O=",
"  q=,<---=*====@",
"      =48=      ",
"       ==e      ",
"                "
};
