/* XPM */
static const char *alltoright_xpm[] = {
/* columns rows colors chars-per-pixel */
"20 20 86 1",
". c #7EB0E2",
"_ c #6283B3",
"- c #A9DDFF",
"2 c #005CC0",
"* c #689ACB",
"F c #0050B4",
"^ c #0244A4",
"( c #9E9E9E",
"C c #2A64AE",
"l c #BCBCBC",
"g c #59BDFF",
"L c #C895C8",
"4 c #6691C3",
"r c #015ABF",
"q c #2B6EB6",
"@ c #096BCD",
"S c #BEADBE",
"3 c #337CC8",
"B c #50B9FF",
"x c #0151B5",
"  c None",
"> c #6795C7",
"~ c #6485B5",
"7 c #95D5FF",
"j c #0145A8",
"5 c #6598CB",
"8 c #89D0FF",
"e c #6595C8",
"6 c #0061C6",
"R c #51BAFF",
"t c #7DCBFF",
"Q c #A0A0A0",
"& c #77ABDE",
"! c #6085B8",
"T c #0249AA",
"k c #5480B3",
"d c #0052B6",
"Z c #5170A1",
"z c #77A2D5",
"P c #004FB3",
"m c #999999",
"% c #6B9DCE",
"J c #2A63AE",
"c c #D1EDFF",
"f c #99D7FF",
", c #78ACDF",
"` c #BFBFBF",
"9 c #7CCCFF",
"/ c #5271A2",
"A c #9A9A9A",
"I c #5ABDFF",
"$ c #0066CB",
"H c #0144A6",
"V c #0144A7",
"v c #0144A8",
"+ c #79ADE0",
"; c #0063C7",
") c #C0C0C0",
": c #6A98CA",
"W c #5372A3",
"s c #6591C4",
"G c #51B9FF",
"K c #9B9B9B",
"w c #658BBC",
"O c #7CAEE0",
"0 c #0054B8",
"N c #0051B5",
"M c #77A1D4",
"b c #2A65B0",
"< c #A0DAFF",
"# c #E7F6FF",
"a c #6385B6",
"U c #5473A4",
"= c #AFE0FF",
"o c #7DAFE1",
"p c #2B69B1",
"h c #50BAFF",
"y c #70C6FF",
"i c #014CAF",
"Y c #7398CB",
"n c #5070A0",
"1 c #95D6FF",
"u c #64C1FF",
"X c #0569CC",
"E c #0143A6",
"D c #769FD3",
/* pixels */
"                    ",
"                    ",
"                    ",
"    .Xo   OXO       ",
"   +@#$% &@#$*      ",
"   $#=-;:$#=-;>     ",
"   ,$-<123$-<124    ",
"    567890q67890w   ",
"     ertyuiprtyuia  ",
"      sdfghjkdfghjl ",
"     zxcghvbxcghvnm ",
"    MNcgBVCNcgBVZAS ",
"   DFcgGHJFcgGHZKL  ",
"   PcIhHUPcIhHZKL   ",
"   YTREWQ!TREZAL    ",
"    ~^/() _^ZAL     ",
"     )(`   lKL      ",
"                    ",
"                    ",
"                    "
};
