/* XPM */
static char *attachdb_xpm[] = {
/* columns rows colors chars-per-pixel */
"20 20 98 2",
"4  c #8A761B",
"^  c #FCFEFC",
"X. c #D4D5E0",
"O  c #9A891D",
"H  c #7E6B1C",
"%  c #FFFFFF",
"+. c #949694",
"R  c #907E1B",
"C  c #8483B3",
"O. c #67666D",
"E  c #D9D884",
"5  c #86731A",
"<  c #F2F29E",
"`  c #B4B4D6",
"+  c #98861D",
"m  c #776418",
".. c #8C8BBA",
"=  c #F9F9CF",
"Q  c #8E7B1B",
"y  c #E6E793",
"i  c #E1E08D",
"6  c #847019",
"1  c #F0EF9C",
"|  c #444474",
"-  c #917F1C",
"u  c #E4E490",
"a  c #DAD986",
"w  c #F3F39F",
"   c None",
"9  c #B1A986",
"l  c #4C4C80",
"*  c #FAFAD0",
"B  c #7979B1",
"p  c #DDDD89",
"'  c #D4DAE4",
"v  c #848284",
"J  c #948332",
"z  c #343654",
";  c #A8A276",
"L  c #7A7A99",
"s  c #D6D682",
",  c #F4F4A1",
"I  c #B4B3B6",
"0  c #9A881D",
"N  c #95841D",
"D  c #32304A",
"x  c #3C3B58",
"&  c #FBFBD1",
"P  c #1C1D30",
"~  c #E4EAF4",
"r  c #EDED9A",
"Y  c #8B7925",
"!  c #AAABCF",
"K  c #93811C",
"F  c #9D8C2C",
"V  c #64649B",
"M  c #A1A4AB",
"#  c #BDB689",
"[  c #C4C6D1",
"8  c #7F6B19",
"h  c #9C9DB5",
"3  c #8C7A1B",
"t  c #E9EA96",
"S  c #7C7C88",
"X  c #9E8D1F",
"c  c #545374",
"{  c #D4D3CA",
">  c #F6F6A2",
":  c #9C8A1E",
"k  c #595A92",
"(  c #A5A9B0",
" . c #A5A6AB",
"U  c #D6D581",
"]  c #887419",
"f  c #C3C7D0",
")  c #8B781B",
"b  c #D9D985",
"g  c #98871D",
"o  c #9D8B1E",
"_  c #9494AB",
"/  c #867A44",
"T  c #A6AAB1",
"e  c #F0F09C",
"W  c #847428",
"j  c #6C6EA0",
"o. c #454649",
"A  c #C9CCDD",
"d  c #7A6618",
"@  c #96841D",
"Z  c #ABABBE",
"q  c #F3F4A0",
"}  c #B6AE87",
"7  c #826E19",
"$  c #9E8C1F",
".  c #C3BD8A",
"G  c #99882A",
"n  c #D3D37F",
"2  c #ECED99",
/* pixels */
"                                        ",
"  . X o O + @ #                         ",
"  $ % & & * = - ;                       ",
"  : & > , < 1 2 3 4 5 6 7 8 9           ",
"  0 & q w e r t y u i p a s d f         ",
"  g * h j k l z x c v b s n m M         ",
"  N B V C Z A Z S c D x F G H J         ",
"  K k V C Z A Z L c D P I p U Y T       ",
"  R k B j k l z h j k l c v E W M       ",
"  Q k ! A ~ ^ B V C Z A c D x / (       ",
"  ) k _ ` ' ^ k V C Z A h j k l c v     ",
"  ] k h I [ { k B j k B V C Z A c D x   ",
"  } k h I [ ^ k ! A ~ k V C Z A c D P I ",
"    k ! A ~ ^ k h I [ k B j k l z | P  .",
"    B k B h ^ k h I [ k ! A ~ ^ k V P  .",
"      ..V c | k ! A ~ k h I [ { k k P  .",
"        X.[ I B k B h k h I [ ^ k k P  .",
"                ..V c k ! A ~ ^ k V P  .",
"                  X.[ B k B h ^ x D x  .",
"                        ..V c | o.O.+.[ "
};
