/* XPM */
static char *booktable_xpm[] = {
/* columns rows colors chars-per-pixel */
"20 20 74 1",
"x c #5C607C",
"G c #CCCDEF",
"d c #70708C",
"< c #C4BE74",
"c c #E7E6A4",
"U c #646E8C",
"b c #D4D5F4",
"@ c #A4A66C",
"T c #94A8D1",
"J c #BEC5E5",
"C c #ACA6C4",
"% c #F4F2AC",
"p c #94969C",
"; c #686A48",
"2 c #F9F6C1",
"q c #9C9EA1",
"Y c #9CAACB",
", c #C0B870",
"F c #9496BC",
"S c #51597C",
"* c #DCD684",
"X c #8C8A56",
"1 c #F2EFC6",
"N c #BABCDB",
"  c None",
"6 c #D4CEAC",
"u c #ACAEB1",
"l c #8685A8",
"m c #CCC6E4",
"o c #88844D",
"5 c #DFD7A7",
"- c #747144",
"i c #8C8A94",
"a c #A3A7B3",
"8 c #C4C3AC",
"k c #8C8AB0",
"4 c #C4C6C9",
"I c #42496C",
"D c #E8E09C",
"H c #A4A59C",
"3 c #64664C",
"& c #EEEB9C",
"e c #F0EBB2",
"B c #7C7684",
"f c #7A7C88",
"s c #7C7CA0",
"A c #9F9EBC",
"9 c #B4B29C",
"K c #8C8F93",
"Z c #A2A5C7",
"v c #ACADCD",
"j c #847EA4",
"z c #64668C",
"> c #CCBE64",
". c #BABA9E",
"P c #444E74",
"t c #8A8FA2",
"V c #B4B5D5",
"# c #FCFEAF",
"= c #7C784A",
"M c #E4E6F5",
": c #A4AA9C",
"$ c #FCF8AF",
"w c #FCF29C",
"O c #FCFEC4",
"+ c #847D3F",
"g c #747078",
"L c #4C5074",
"r c #7C7B79",
"0 c #545254",
"h c #74769A",
"n c #EFF2F7",
"y c #9C99B7",
"7 c #BCC29C",
/* pixels */
"                    ",
"                    ",
"  .XXooo.           ",
"  XOOOOO+@          ",
"  o#$%%&*+=---;;:   ",
"  X>,<,,<$12111134  ",
"  o###55678...990q  ",
"  o#wertyuipastqdf  ",
"  +#&eghjksslhslzx  ",
"  o$&civbnmbMNmbtx  ",
"  =$&cBkvmvVVCZvhx  ",
"  =$&cfAVbVNmCVNsS  ",
"  =$DDBFNGvVmZvVsx  ",
"  -$D5glCVCCCFAAdS  ",
"  H--;fZNbVNGZvJsS  ",
"  4uKKxSLLLLPPIIIU  ",
"       ZZYYYZTZYYY  ",
"                    ",
"                    ",
"                    "
};
