/* XPM */
static char *booktrigger_xpm[] = {
/* columns rows colors chars-per-pixel */
"20 20 13 1",
"# c #64CE35",
"* c #A6A6A9",
"  c None",
"= c #9BA2A9",
"O c #85EC53",
"X c #078C05",
"& c #056904",
"$ c #067905",
"@ c #71D83E",
"o c #94FA62",
"% c #AAAAC3",
"+ c #79E64D",
". c #049804",
/* pixels */
"                    ",
"                    ",
"                    ",
"     .......XXX     ",
"     .oooO++@#$%    ",
"     XoooOO@@#&%    ",
"     $$$$&&&&&&%    ",
"      ***#&*****    ",
"     .......XXX     ",
"     .oooO++@#$*    ",
"     XoooOO@@#&*    ",
"     $$$$&&&&&&*    ",
"      ***#&*****    ",
"     .......XXX     ",
"     .oooO++@#$*    ",
"     XoooOO@@#&=    ",
"     $$$$&&&&&&=    ",
"      ==========    ",
"                    ",
"                    "
};
