/* XPM */
static char *clear_xpm[] = {
/* columns rows colors chars-per-pixel */
"20 20 33 1",
"; c #FCFEFC",
"q c #B74204",
"9 c #BC7E54",
"= c #4F2104",
"1 c #949694",
"5 c #67666D",
"O c #FCE264",
"@ c #E49A04",
"e c #A03604",
"# c #DC8604",
"  c None",
"$ c #D47204",
"- c #D4DAE4",
". c #A48E7C",
"w c #744224",
"% c #BCBEB4",
"8 c #E45604",
": c #C4A254",
"3 c #C4C6D1",
"> c #746254",
"* c #CC6604",
", c #A5A6AB",
"o c #FCCE04",
"r c #8C7760",
"X c #5C2E04",
"6 c #F86204",
"0 c #CC4E04",
"2 c #945E05",
"4 c #454649",
"7 c #EC9E74",
"< c #ABABBE",
"& c #F3D7BA",
"+ c #F4AE04",
/* pixels */
"                    ",
"                    ",
"           .X       ",
"          .XoO      ",
"         .XoO+@     ",
"        .XoO+@#$    ",
"       .X%&+@#$*=   ",
"      .X%-;:#$*=>,  ",
"     .X%-;<12*=>,3  ",
"    .X%-;<145=>,3   ",
"   .X67;<145=>,3    ",
"  .X6689145=>,3     ",
"  X6680qw5=>,3      ",
"  X680qee=>,3       ",
"  .X0qee=>,3        ",
"   r=ee=>,3         ",
"    r==>,3          ",
"     3,,3           ",
"                    ",
"                    "
};
