/* XPM */
static char *coldown_xpm[] = {
/* columns rows colors chars-per-pixel */
"20 20 14 1",
"+ c #FCFEFB",
"# c #BCDAF9",
"O c #055AB8",
"X c #0473CE",
". c #5197D9",
"@ c #DBE4F4",
"  c None",
"= c #960204",
"- c #FC8A6C",
"o c #0666C3",
"% c #B6B5B2",
"$ c #ABD8FB",
"& c #044EB2",
"* c #ABB4B2",
/* pixels */
"                    ",
" .XXXXXXooooooO     ",
" X+++@@@###$$$O%    ",
" X###$$$$$$$$$&%    ",
" ooooOOO&&&&&&&%    ",
" *%%%%%%%%%%%%%%    ",
" .XXXXXXooooooO     ",
" X+++@@@###$$$O%    ",
" X###$$$$$$$$$&%    ",
" ooooOOO&&&&&&&%    ",
"  %%%%%%%%%%=====   ",
" .XXXXXXoooo=---=   ",
" X+++@@@###$=---=   ",
" X###$$$$$===---=== ",
" ooooOOO&&=-------= ",
"  %%%%%%%%%=-----=  ",
"            =---=   ",
"             =-=    ",
"              =     ",
"                    "
};
