/* XPM */
static char *colup_xpm[] = {
/* columns rows colors chars-per-pixel */
"20 20 14 1",
"@ c #FCFEFB",
"$ c #BCDAF9",
"& c #055AB8",
"O c #0473CE",
"o c #5197D9",
"# c #DBE4F4",
"  c None",
". c #960204",
"X c #FC8A6C",
"+ c #0666C3",
"- c #B6B5B2",
"% c #ABD8FB",
"* c #044EB2",
"= c #ABB4B2",
/* pixels */
"                    ",
"              .     ",
"             .X.    ",
"            .XXX.   ",
" oOOOOOO+++.XXXXX.  ",
" O@@@###$$.XXXXXXX. ",
" O$$$%%%%%...XXX... ",
" ++++&&&****.XXX.   ",
" =----------.XXX.   ",
" oOOOOOO++++.....   ",
" O@@@###$$$%%%&-    ",
" O$$$%%%%%%%%%*-    ",
" ++++&&&*******-    ",
"  --------------    ",
" oOOOOOO++++++&     ",
" O@@@###$$$%%%&-    ",
" O$$$%%%%%%%%%*-    ",
" ++++&&&*******-    ",
"  --------------    ",
"                    "
};
