/* XPM */
static char *commit_xpm[] = {
/* columns rows colors chars-per-pixel */
"20 20 52 1",
"9 c #FCFEFC",
"g c #71A67A",
"h c #046604",
"> c #D4D5E0",
"e c #BBBBD8",
"b c #1C4731",
"= c #8483B3",
"p c #045A04",
"q c #B4B4D6",
"+ c #3C3C6E",
"5 c #444474",
"v c #5B5B7B",
"f c #044B04",
"  c None",
"O c #4C4C80",
"& c #7979B1",
"1 c #D4DAE4",
"% c #848284",
"w c #A4A3C1",
"@ c #343654",
"c c #04DA04",
"2 c #7A7A99",
"u c #8C8A8E",
"4 c #B4B3B6",
"y c #BCBEB4",
"< c #32304A",
"# c #3C3B58",
"3 c #1C1D30",
"8 c #E4EAF4",
"k c #04CE04",
"7 c #AAABCF",
"a c #E7F4FA",
"* c #64649B",
"i c #0C3E1C",
"r c #C4C6D1",
". c #9C9DB5",
"z c #04E804",
"x c #7CEE7C",
", c #7C7C88",
"s c #2F5D47",
"$ c #545374",
"t c #D4D3CA",
"o c #595A92",
"6 c #A5A6AB",
"l c #719B79",
"d c #C9F8C4",
": c #E4E6EF",
"0 c #9494AB",
"X c #6C6EA0",
"; c #C9CCDD",
"- c #ABABBE",
"j c #5C8668",
/* pixels */
"                    ",
"                    ",
"   .XoO++@#$%       ",
"  &*=-;:>-,$<#      ",
"  o*=-;1;-2$<34     ",
"  o&XoO++@@@536     ",
"  o7;898;7=o*36     ",
"  o0q198;w&oe66     ",
"  o.4rtywuXeeip     ",
"  o7;89a81;espdf    ",
"  o0ea9ghj;spdkkf   ",
"  o.48lhdhspdkkf66  ",
"  o7;ahdzxpdkkf66   ",
"  &o&>lhzcxkkf66    ",
"   2vq4bpckkf66     ",
"    r-666fkf66      ",
"          f66       ",
"           6        ",
"                    ",
"                    "
};
