/* XPM */
static char *compactdb_xpm[] = {
/* columns rows colors chars-per-pixel */
"20 20 43 1",
"e c #FCFEFC",
"g c #D4D5E0",
"f c #949694",
"1 c #8483B3",
"d c #67666D",
"t c #B4B4D6",
"@ c #66CCFF",
"a c #8C8BBA",
"9 c #444474",
"O c #0099CC",
"  c None",
"$ c #99CCFF",
"= c #4C4C80",
", c #7979B1",
"y c #D4DAE4",
"> c #848284",
"- c #343654",
"p c #737980",
"6 c #7A7A99",
"8 c #B4B3B6",
"5 c #32304A",
"; c #3C3B58",
"7 c #1C1D30",
"# c #6699CC",
"w c #E4EAF4",
"q c #AAABCF",
"< c #64649B",
"o c #006699",
". c #040404",
"u c #C4C6D1",
"% c #9C9DB5",
"4 c #7C7C88",
": c #545374",
"i c #D4D3CA",
"X c #003333",
"* c #595A92",
"0 c #A5A6AB",
"r c #9494AB",
"& c #6C6EA0",
"s c #454649",
"3 c #C9CCDD",
"+ c #33CCCC",
"2 c #ABABBE",
/* pixels */
"         ......X    ",
"        .oOO++@#X   ",
"       X.......o$X  ",
"    %&*=-;:>   .$.  ",
"   ,<12324:5;  .$.  ",
"   *<12326:578 .$.  ",
"   *,&*=---970 .$.  ",
"   *q3we>1*<70 .$.  ",
"   *rtye>,*:70 .$.  ",
"   *%8uip&**70 .$.  ",
"   *%8ue>,**70 .$.  ",
"   *q3we>1*<70 .$.  ",
"   ,*,%e>,;5;0 .$.  ",
"    a<:9--sdfu .$.  ",
"     gu8028ug .o$X  ",
"        .oOO++@#X   ",
"         ......X    ",
"             .O     ",
"          .o.O.o.o  ",
"          o.o.O.o.  "
};
