/* XPM */
static char *connect2_xpm[] = {
/* columns rows colors chars-per-pixel */
"16 16 60 1",
"0 c #FCFEFC",
". c #ACACB3",
"1 c #CFCED0",
"l c #FCE6BC",
"o c #5C5D80",
"c c #8C8B90",
"g c #443204",
"+ c #3A3C4A",
"u c #DCDAE4",
"$ c #8D929F",
"2 c #DDE1E8",
"t c #9CA1B6",
"x c #C1A279",
"s c #2C3147",
"; c #D0CFF9",
"- c #ECEAF4",
"X c #747597",
"  c None",
", c #656699",
"a c #343031",
"% c #7C7D9F",
"n c #848284",
"N c #6B6B76",
"> c #4B4D54",
"j c #FCF1E0",
"k c #262B33",
"* c #8485AC",
"8 c #B4B3B8",
"B c #CDD0E1",
"9 c #ACABD3",
"6 c #3C3E65",
"f c #383214",
"i c #BCBBBD",
"d c #424348",
"w c #B2B6D4",
"y c #C4C6CC",
"4 c #6C6C94",
"V c #9C9A9E",
"3 c #1A1A36",
"& c #6C6687",
"C c #A4A2A4",
"r c #A4A5B8",
"# c #5C5B5E",
"b c #9C9AD2",
": c #343244",
"z c #CCA770",
"p c #AC9E90",
"@ c #343259",
"M c #1C222C",
"e c #DEDEF9",
"h c #502C04",
"7 c #444264",
"= c #CDC9EF",
"Z c #2C3239",
"v c #A4A7A2",
"m c #F9F1C8",
"O c #4C4D74",
"q c #9291B8",
"5 c #545574",
"< c #A6A4CE",
/* pixels */
" .XoO++@+#$     ",
"%&*.=-;.%O:>    ",
"o,*<12=.%O:3    ",
"o%45O+6:@@738   ",
"o9;-0-=9*oo38   ",
"oqwe0-=r%o538   ",
"otwyuipaasd38   ",
"o<=-fghhj-$k.   ",
"oqi2flzxliica>v ",
"obiyffhhjiinind ",
"o9=-amxxjiinaiai",
"%oXtkaaa8inaaia8",
" q&57kMaaa+Naik8",
"  -B1i88nVCiaia8",
"            kZa8",
"             8y8"
};
