/* XPM */
static char *copy_xpm[] = {
/* columns rows colors chars-per-pixel */
"20 20 94 2",
"v  c #D1D1E9",
"V  c #6F6FB0",
"J  c #C7C6E3",
"'  c #C7C6E4",
"e  c #E8E8F3",
"r  c #E8E8F4",
"i  c #EDECF6",
"s  c #8686BC",
"9  c #8B8ABF",
"L  c #BBBBDD",
")  c #BBBBDE",
"@  c #FFFFFF",
"I  c #525287",
"O  c #616195",
"t  c #D2D2E8",
"Q  c #3C3C70",
"A  c #555689",
"X  c #646599",
"k  c #5A5A8E",
"!  c #504F83",
"(  c #C1C0E0",
"}  c #444478",
"p  c #8587BC",
"5  c #F1F1F9",
"4  c #F6F5FA",
"<  c #8F8FC1",
"x  c #DDDEEF",
"D  c #D8D7EB",
"   c None",
">  c #F9F9FC",
"0  c #8888BE",
"h  c #CCCCE6",
"R  c #6A6AB0",
".. c #36366A",
"y  c #4A497D",
"3  c #F2F2F8",
"^  c #4A497E",
"o  c #636397",
"l  c #E8E7F3",
"a  c #8181BA",
"C  c #C0C1E0",
"B  c #7272B3",
"|  c #3E3E72",
"8  c #F5F6FA",
"W  c #B6B6DB",
"2  c #F5F6FB",
"1  c #8E8DC0",
"N  c #7576B5",
"f  c #7A7AB7",
"Y  c #D2D1E8",
"F  c #D2D1E9",
"7  c #A1A4AB",
"b  c #C6C6E3",
"/  c #C6C6E4",
"n  c #444378",
"q  c #8A8ABF",
"6  c #DDDDEE",
"S  c #DDDDEF",
" . c #38386B",
"{  c #38386C",
"j  c #47477B",
"_  c #B0B0D8",
",  c #656599",
"H  c #D1D2E9",
":  c #FCFCFD",
"#  c #FCFCFE",
"*  c #EDEDF6",
"=  c #E3E2F1",
";  c #C3C7D0",
"K  c #C0C0E1",
"]  c #B6B5DB",
"-  c #4D4C80",
"$  c #FAF9FC",
".  c #66669A",
"G  c #D7D7EB",
"U  c #D7D7EC",
"T  c #7575B5",
"Z  c #414175",
"+  c #5F5F93",
"M  c #7D7DB7",
"d  c #7D7DB9",
"`  c #3A3A6E",
"&  c #F1F2F8",
"%  c #F6F6FA",
"P  c #3F3E73",
"m  c #58588C",
"z  c #E2E3F1",
"u  c #5D5C91",
"c  c #D8D8EB",
"w  c #D8D8EC",
"g  c #7676B5",
"E  c #6767AD",
"~  c #4C4D81",
"[  c #ABABD6",
/* pixels */
"                                        ",
"                                        ",
"    . . . X o O + + + + +               ",
"    . @ @ # $ % & % * = - ;             ",
"    . @ : > . . . X o O + + + + +       ",
"    , # < 1 . @ @ # $ % & % * = - ;     ",
"    o > 2 3 . @ : > 4 5 * * = 6 - 7     ",
"    O 8 9 0 , # < 1 q 0 0 0 0 w - 7     ",
"    + 3 * e o > 2 3 * r = 6 w t y 7     ",
"    u i p a O 8 9 0 s a d f g h j 7     ",
"    k l z x + 3 * e z 6 c v h b n 7     ",
"    m = d f u i p a M f N B V C Z 7     ",
"    A S D F k l z x G H h J K L P 7     ",
"    I U Y h m = d f T B V R E W Q 7     ",
"    ! ~ ^ j A S D F h / ( ) W _ ` 7     ",
"      7 7 7 I U Y h ' ( ) ] _ [ { 7     ",
"            ! ~ ^ j } Z | Q `  ...7     ",
"              7 7 7 7 7 7 7 7 7 7 7     ",
"                                        ",
"                                        "
};
