/* XPM */
static char *dbdrop_xpm[] = {
/* columns rows colors chars-per-pixel */
"20 20 79 1",
"9 c #FCFEFC",
"n c #B94B39",
"> c #D4D5E0",
"H c #780505",
"z c #5C1311",
"l c #BBBBD8",
"a c #B28283",
"h c #740E04",
"P c #CC361C",
"= c #8483B3",
"R c #9C7274",
"u c #B08890",
"Q c #BCC2D4",
"f c #660F0B",
"q c #B4B4D6",
"+ c #3C3C6E",
"L c #8C8BBA",
"d c #BC7E81",
"Z c #ADA4AB",
"A c #F44410",
"5 c #444474",
"i c #4F150F",
"M c #DCC5CC",
"J c #FC8D67",
"g c #FC937B",
"  c None",
"j c #BC6658",
"c c #E44E2C",
"O c #4C4C80",
"& c #7979B1",
"1 c #D4DAE4",
"% c #848284",
"t c #A4A3C1",
"@ c #343654",
"y c #737980",
"2 c #7A7A99",
"S c #FC3A0C",
"4 c #B4B3B6",
"r c #BCBEB4",
"< c #32304A",
"# c #3C3B58",
"3 c #1C1D30",
"8 c #E4EAF4",
"7 c #AAABCF",
"s c #E7F4FA",
"b c #D24629",
"* c #64649B",
"V c #DC451C",
"w c #C4C6D1",
"E c #975551",
". c #9C9DB5",
", c #7C7C88",
"k c #690606",
"$ c #545374",
"e c #D4D3CA",
"x c #E55727",
"I c #D22E1C",
"D c #A84C4C",
"T c #AC3428",
"G c #D1C6CF",
"o c #595A92",
"N c #EC4C1C",
"6 c #A5A6AB",
"p c #AA6C69",
"B c #EE3A0E",
"v c #890306",
"C c #885A5C",
": c #E4E6EF",
"Y c #5C0204",
"0 c #9494AB",
"K c #E42C14",
"W c #BB9EA5",
"X c #6C6EA0",
"; c #C9CCDD",
"- c #ABABBE",
"U c #BC3224",
"F c #CC989C",
"m c #4A0906",
"! c #CCCDD7",
/* pixels */
"                    ",
"                    ",
"   .XoO++@#$%       ",
"  &*=-;:>-,$<#      ",
"  o*=-;1;-2$<34     ",
"  o&XoO++@@@536     ",
"  o7;898;%=o*36     ",
"  o0q198;%&o$36     ",
"  o.4wertyuip3aiu   ",
"  o7;89s:dfghjkgkp  ",
"  o0l198;zgxcvgbnmM ",
"  o.4w98;ufxNBVbkCZ ",
"  o7;898;%jvASBvDFG ",
"  &o&.98;dHJBBBKvp  ",
"   L*$5@@igbbvPIUmG ",
"    >w4-6aYnkDHTYCZ ",
"          RmEFpmEWG ",
"           MWG GWQ  ",
"            !       ",
"                    "
};
