/* XPM */
static const char *down_xpm[] = {
/* columns rows colors chars-per-pixel */
"20 20 102 2",
"&  c #CACACA",
"O  c #0062C7",
"M  c #62C1FF",
"+  c #005FC4",
"V  c #31ACFF",
"f  c #005CC1",
"H  c #56BCFF",
"q  c #82CDFF",
"4  c #A5A5A5",
"6  c #8CD2FF",
"#  c #FFFFFF",
"Q  c #4AB7FF",
"@  c #77A6D9",
"N  c #48B7FF",
",  c #A0D9FF",
"L  c #32ADFF",
"]  c #4DB8FF",
"O. c #5E7DB2",
"u  c #83CEFF",
"C  c #26A8FF",
">  c #A6A6A6",
"z  c #0041A6",
"w  c #77C9FF",
"p  c #6BC4FF",
"   c None",
"Z  c #00359A",
"/  c #00359B",
"~  c #33AEFF",
"$  c #DFFEFF",
"-  c #95D5FF",
"%. c #989898",
"o  c #0064C9",
"m  c #6EC5FF",
"$. c #4B6599",
"i  c #78CAFF",
"b  c #005EC4",
"y  c #005BC1",
"%  c #0058BD",
"g  c #0058BE",
"*  c #A7DCFF",
" . c #6082B7",
"5  c #96D6FF",
"l  c #54BBFF",
"G  c #6FC6FF",
"U  c #4C669A",
"9  c #004CB2",
"'  c #59BCFF",
"r  c #0049AE",
"B  c #3CB1FF",
"+. c #2BABFF",
"W  c #57BCFF",
"0  c #8DD2FF",
"x  c #003DA3",
"c  c #003AA0",
"7  c #81CDFF",
"Y  c #9A9A9A",
"!  c #3FB2FF",
"v  c #00379D",
"(  c #4D679B",
"I  c #00349A",
"8  c #75C8FF",
"#. c #00349B",
"X  c #0066CB",
"K  c #3DB2FF",
".  c #79ADE0",
"=  c #9FD9FF",
".. c #42B3FF",
"h  c #78C9FF",
"A  c #9B9B9B",
"[  c #40B3FF",
")  c #B9B9B9",
"o. c #2AA9FF",
":  c #0054B9",
"{  c #34AEFF",
"k  c #60BFFF",
"F  c #7BCAFF",
"3  c #0051B6",
"T  c #638EC2",
"e  c #6AC4FF",
"<  c #96D5FF",
"d  c #A3A3A3",
"^  c #28A9FF",
";  c #8AD0FF",
"`  c #0048AE",
"s  c #0045AA",
"P  c #26A9FF",
"j  c #6DC5FF",
"|  c #BABABA",
"_  c #6188BC",
"X. c #35AFFF",
"D  c #86D0FF",
"t  c #A4A4A4",
"}  c #29AAFF",
"n  c #ABE3FF",
"@. c #5C78AC",
"R  c #70C6FF",
"a  c #5FC0FF",
"1  c #8BD1FF",
"S  c #76A5D8",
"J  c #49B6FF",
"E  c #64C1FF",
"2  c #7FCCFF",
/* pixels */
"                                        ",
"                                        ",
"            . X X o O + @               ",
"            X # $ $ $ $ % &             ",
"            X $ * = - ; : >             ",
"            o $ , < 1 2 3 4             ",
"            O $ 5 6 7 8 9 4             ",
"            + $ 0 q w e r t             ",
"            y $ u i p a s d             ",
"      O + f g $ h j k l z x c v         ",
"      b $ $ $ n m M l N B V C Z A       ",
"      S g D F G M H J K L P I U Y       ",
"        T 3 R E W Q ! ~ ^ / ( A )       ",
"          _ ` ' ] [ { } / U A |         ",
"             .z ..X.o.Z U Y |           ",
"              O.c +./ U Y )             ",
"                @.#.$.Y )               ",
"                  ) %.)                 ",
"                                        ",
"                                        "
};
