/* XPM */
static char *field_xpm[] = {
/* columns rows colors chars-per-pixel */
"16 16 103 2",
"u  c Black",
"U  c #3B3B6F",
"g  c #E0E0FF",
" . c #4A4A7F",
"}  c #4F4E83",
"s  c #73747D",
"a  c #78787F",
"9  c #E8E8FF",
",  c #FFFFFF",
"j  c #5C5D91",
".  c #616195",
"d  c #71717D",
"$. c #37386C",
"X. c #46477A",
"P  c #E6E5FF",
":  c #46477B",
"b  c #5A5A8F",
"3  c #F8F8FF",
"5  c #F3F4FF",
"&. c #353569",
"w  c #444478",
"#. c #3A396D",
"!  c #3A396E",
"%  c #535387",
"E  c #DADAFF",
"I  c #D5D6FF",
"l  c #F6F5FF",
"A  c #F1F1FF",
"L  c #72727D",
"   c None",
"@. c #3D3D70",
"T  c #E2E2FF",
"=  c #4C4C81",
"+  c #5B5B8F",
"&  c #515084",
"Q  c #D3D3FF",
"z  c #E5E6FF",
"O. c #404174",
"~  c #6B6B7D",
"%. c #36366A",
"y  c #FCFDFF",
"{  c #36366B",
"o  c #5E5F92",
"R  c #E0DFFF",
"]  c #D1D0FF",
";  c #48497C",
"Z  c #3E3E72",
"h  c #434276",
"n  c #FAFAFF",
"J  c #F5F6FF",
"k  c #7B7B7D",
"p  c #7B7B7F",
"8  c #EBEBFF",
"D  c #6C6C7D",
"<  c #FDFEFF",
"$  c #555588",
"X  c #5F6094",
"G  c #D7D8FF",
"m  c #F3F3FF",
"B  c #E9E8FF",
"x  c #DFE0FF",
"+. c #3F3F72",
"@  c #58598D",
"*  c #4E4E83",
"'  c #D5D5FF",
"/  c #D0D1FF",
"6  c #F1F0FF",
"_  c #ECECFF",
"c  c #DDDDFF",
"N  c #75757D",
"V  c #E5E5FF",
"-  c #4A4B7F",
"v  c #404075",
"1  c #FCFCFF",
"r  c #5E5E93",
"F  c #DBDAFF",
"W  c #D6D6FF",
".. c #48487C",
"q  c #E3E2FF",
"#  c #57578B",
"M  c #F0F1FF",
"[  c #CFCFFF",
"e  c #B2B2B2",
"0  c #E6E6FF",
"H  c #3C3D70",
"i  c #F8F9FF",
"Y  c #555489",
"`  c #D7D7FF",
"7  c #EEEEFF",
"S  c #6F6F7D",
"C  c #DADBFF",
"2  c #FBFAFF",
"4  c #F6F6FF",
"O  c #5D5C91",
"f  c #E2E3FF",
"|  c #4C4D80",
"o. c #424276",
"^  c #68687D",
"t  c #FEFEFF",
")  c #515184",
"(  c #38376C",
">  c #606094",
"K  c #F4F3FF",
/* pixels */
"                                ",
"                                ",
". X o O + @ # $ % & * = - ; :   ",
"> , < 1 2 3 4 5 6 7 8 9 0 q w e ",
"r t y u i p u a 7 s u d f g h e ",
"j y k u l u 6 u 8 u z u x c v e ",
"b n 3 u m M N u B V q u c C Z e ",
"@ 3 4 u A 7 u 9 V S u D F G H e ",
"# J K u 7 u L P q g c u G I U e ",
"Y m A u 8 u z T R u E u W Q ! e ",
"% M 7 u B u u u c ~ u ^ Q / ( e ",
") 7 _ 9 0 T g c E ` ' Q ] [ { e ",
"} |  ...X.w o.O.+.@.U #.$.%.&.e ",
"  e e e e e e e e e e e e e e e ",
"                                ",
"                                "
};
