/* XPM */
static const char *filter_xpm[] = {
/* columns rows colors chars-per-pixel */
"20 20 57 1",
"6 c #CACACA",
". c #005FBD",
"N c #686893",
"X c #0056B7",
"B c #61618D",
"- c #0053B4",
"@ c #FFFFFF",
"i c #6C6D6D",
"b c #5A5A89",
"k c #E1E1FF",
"q c #565757",
"5 c #656666",
"d c #535384",
"y c #5E5F5F",
"  c None",
"g c #4C4C7E",
"3 c #0067C4",
"= c #A8D5FF",
"t c #A2A3A3",
"v c #72729A",
"4 c #AFAFAF",
"c c #CCCCFF",
"a c #5C5C8A",
"z c #4D4D80",
"r c #676868",
"o c #004FB1",
"O c #0049AB",
"e c #6F7070",
"w c #BFBFBF",
"p c #686969",
"m c #74749B",
"j c #656591",
"8 c #525353",
"0 c #616262",
"u c #707171",
", c #0060BE",
"x c #6D6D96",
"< c #4D99DD",
"f c #4F4F81",
": c #005ABA",
"n c #75759C",
"$ c #004EB0",
"% c #B2B2B2",
"M c #6E6E97",
"# c #BDDFFF",
"7 c #5B5C5C",
"1 c #0074CF",
"> c #0074D0",
"s c #585887",
"h c #49497C",
"; c #0071CD",
"2 c #006ECA",
"& c #006BC8",
"9 c #6B6C6C",
"+ c #0065C2",
"l c #D8D8FF",
"* c #CDE6FF",
/* pixels */
"                    ",
"                    ",
"  .XoO .XoO .XoO    ",
"  +@#$%+@#$%+@#$%   ",
"  &*=-%&*=-%&*=-%   ",
"  ;#=:%;#=:%;#=:%   ",
"  >==,%>==,%>==,%   ",
"  <1234<123%<123%   ",
"   %%56 %7%6 8%%6   ",
"      9  0% qw      ",
"       e rtyw       ",
"        uipw        ",
"      asdffgh       ",
"      j@klllz%      ",
"      xlccccd%      ",
"      vlccccb%      ",
"      nmvMMNB%      ",
"       %%%%%%6      ",
"                    ",
"                    "
};
