/* XPM */
static const char *first_xpm[] = {
/* columns rows colors chars-per-pixel */
"20 20 98 2",
"U  c #58BCFF",
"g  c #0062C7",
"h  c #005FC4",
"8  c #8ED2FF",
">  c #A9DDFF",
"m  c #005CC1",
"7  c #98D7FF",
"$  c #A5A5A5",
".  c #0059BD",
"+. c #B4B4B4",
"S  c #D3F1FF",
"=  c #FFFFFF",
"/  c #C7ECFF",
"5  c #6390C3",
"(  c #4FB8FF",
"Z  c #9E9E9E",
"J  c #59BDFF",
"r  c #004DB3",
"M  c #D6F2FF",
"^  c #004AAE",
"R  c #CAEDFF",
"j  c #C5E9FF",
"X. c #979797",
"q  c #618ABD",
"F  c #0044AA",
"9  c #83CEFF",
"#  c #A6A6A6",
"<  c #6494C8",
"`  c #00389E",
"   c None",
")  c #44B4FF",
"'  c #989898",
"N  c #84CFFF",
"@  c #A7A7A7",
"e  c #6EC5FF",
",  c #0061C5",
"6  c #AEE0FF",
"4  c #005BC0",
"3  c #98D6FF",
"C  c #A0A0A0",
"t  c #6085B9",
"G  c #0055BA",
"O. c #999999",
"+  c #A8A8A8",
"z  c #004CB1",
"i  c #63C1FF",
"a  c #0046AB",
"Q  c #3CB1FF",
".. c #4A6699",
"V  c #A1A1A1",
"&  c #78ACDF",
"s  c #BFBFBF",
"L  c #0040A7",
"1  c #A8DDFF",
"T  c #003DA3",
"u  c #97D7FF",
"|  c #003A9F",
"!  c #003AA0",
"~  c #9A9A9A",
"n  c #A9A9A9",
" . c #00379D",
"]  c #6E92C5",
"K  c #4EB8FF",
"*  c #0066CB",
"p  c #58BDFF",
"f  c #0063C9",
";  c #6597CB",
"k  c #8ED3FF",
"y  c #A9DEFF",
"A  c #9B9B9B",
"O  c #AAAAAA",
"W  c #45B4FF",
"0  c #0054B9",
"_  c #34AEFF",
"E  c #4FB9FF",
"P  c #0051B6",
"%  c #A3A3A3",
"2  c #A0DAFF",
"w  c #79CAFF",
"B  c #0048AD",
"x  c #0048AF",
"l  c #83CFFF",
":  c #AFE0FF",
"c  c #0045AB",
"b  c #9C9C9C",
"o  c #ABABAB",
"o. c #BABABA",
"v  c #0042A7",
"[  c #0042A8",
"{  c #003FA5",
"}  c #003CA2",
"I  c #CDEFFF",
"Y  c #44B5FF",
"H  c #D0F0FF",
"-  c #0065CA",
"D  c #6EC6FF",
"d  c #0065CB",
"X  c #ACACAC",
/* pixels */
"                                        ",
"      . . . . . . . . . . . . .         ",
"        X X o o O O O O + @ # $ %       ",
"                & * &                   ",
"              & * = - ;                 ",
"            & * = : > , <               ",
"          & * = : 1 2 3 4 5             ",
"        & * = 6 1 2 7 8 9 0 q           ",
"      & * = : > 2 7 8 9 w e r t         ",
"      * = : y 2 u 8 9 w e i p a s       ",
"      d f g h j k l w e z x c v b       ",
"        n + m M N w e i B V C Z A       ",
"            . S w D i p F C             ",
"            G H D i J K L Z             ",
"            P I i U K Y T b             ",
"            r R U E W Q ! ~             ",
"            ^ / ( ) Q _ ` '             ",
"            ] [ { } |  ...X.            ",
"              o.O.' ' ' X.+.            ",
"                                        "
};
