/* XPM */
static char *indexecreate_xpm[] = {
/* columns rows colors chars-per-pixel */
"16 16 66 1",
"+ c #FCFEFB",
"b c #00C100",
"N c #004C00",
"# c #BCDAF9",
"x c #004900",
"7 c #CCCDF8",
"8 c #4F4E86",
"q c #ECFFEC",
"G c #004600",
"O c #055AB8",
"X c #0473CE",
"4 c #006600",
"5 c #29762B",
"1 c #687373",
"> c #BCBCCB",
"6 c #E4E5F2",
"2 c #CBCBD9",
": c #5F5E92",
"l c #00D500",
". c #5197D9",
"@ c #DBE4F4",
"  c None",
"f c #005400",
"H c #1C521E",
"s c #347F34",
"B c #004800",
"r c #B2B6BD",
"- c #696B92",
"o c #0666C3",
"d c #006500",
"3 c #125E24",
"y c #006200",
"v c #00D400",
"e c #005F00",
"a c #A1A4AB",
"p c #005900",
"S c #00CB00",
"M c #005600",
"c c #474775",
"g c #3A723D",
"C c #47477B",
"i c #00EE00",
"F c #3A6F3D",
"% c #B6B5B2",
"j c #00E800",
"$ c #ABD8FB",
"& c #044EB2",
"; c #68699D",
"* c #696A6D",
"D c #004700",
"w c #8CFE8C",
"k c #00DF00",
"Z c #ADB1B8",
", c #ABB4B2",
"h c #006400",
"9 c #747674",
"t c #5B5C62",
"u c #86FE86",
"m c #005B00",
"n c #317C31",
"< c #D6DEED",
"z c #00CA00",
"V c #1C531E",
"= c #797AA5",
"0 c #C5C6C2",
"A c #004F00",
/* pixels */
"         .XXooO ",
"         X+@#$O%",
"         X#$$$&%",
"        *ooO&&&%",
"==-;:  *>,%%%%%%",
"=+<<:%123445ooO ",
"=677890%4qwer$O%",
"-<778**tyuipa$&%",
"-<778sdyyuippfg%",
"-<778hquuijklzxr",
"::88chwiijkvzbxa",
" %%%%nmMMklNNBVa",
"     CCCMvzNaaaZ",
"        ASbDa&&%",
"        FGGHa%%%",
"         raaZ   "
};
