/* XPM */
static char *indexe_tmp_xpm[] = {
/* columns rows colors chars-per-pixel */
"16 16 30 1",
"@ c #FCFEFB",
"$ c #BCDAF9",
"8 c #CCCDF8",
"2 c #4F4E86",
"+ c #055AB8",
"o c #0473CE",
", c #687373",
": c #BCBCCB",
"1 c #E4E5F2",
"< c #CBCBD9",
"; c #5F5E92",
"9 c #A6A6A9",
"q c #485860",
"X c #5197D9",
"# c #DBE4F4",
". c None",
"5 c #696B92",
"O c #0666C3",
"0 c #474775",
"  c #FF0000",
"& c #B6B5B2",
"% c #ABD8FB",
"* c #044EB2",
"= c #696A6D",
"> c #ABB4B2",
"3 c #747674",
"6 c #5B5C62",
"7 c #D6DEED",
"- c #797AA5",
"4 c #C5C6C2",
/* pixels */
"      ...XooOO+.",
" .  . ...o@#$%+&",
"..  .....o$%%%*&",
"..  ....=OO+***&",
"--  ;..=:>&&&&&&",
"-@  ;&,<&XooOO+.",
"-1  234&1o@#$%+&",
"5    ==66o$%%%*&",
"57882=9&&OO+***&",
"57882&64..&&&&&&",
";;220&.6<XooOO+.",
".&&&&&..qo@#$%+&",
".........o$%%%*&",
".........OO+***&",
"..........&&&&&&",
"................"
};
