/* XPM */
static char *indexe_xpm[] = {
/* columns rows colors chars-per-pixel */
"16 16 30 1",
"+ c #FCFEFB",
"# c #BCDAF9",
"4 c #CCCDF8",
"5 c #4F4E86",
"O c #055AB8",
"X c #0473CE",
"1 c #687373",
"> c #BCBCCB",
"3 c #E4E5F2",
"2 c #CBCBD9",
": c #5F5E92",
"9 c #A6A6A9",
"q c #485860",
". c #5197D9",
"@ c #DBE4F4",
"  c None",
"- c #696B92",
"o c #0666C3",
"0 c #474775",
"% c #B6B5B2",
"$ c #ABD8FB",
"& c #044EB2",
"; c #68699D",
"* c #696A6D",
", c #ABB4B2",
"6 c #747674",
"8 c #5B5C62",
"< c #D6DEED",
"= c #797AA5",
"7 c #C5C6C2",
/* pixels */
"         .XXooO ",
"         X+@#$O%",
"         X#$$$&%",
"        *ooO&&&%",
"==-;:  *>,%%%%%%",
"=+<<:%12%.XXooO ",
"=344567%3X+@#$O%",
"-<445**88X#$$$&%",
"-<445*9%%ooO&&&%",
"-<445%87  %%%%%%",
"::550% 82.XXooO ",
" %%%%%  qX+@#$O%",
"         X#$$$&%",
"         ooO&&&%",
"          %%%%%%",
"                "
};
