/* XPM */
static char *leftarrow1_xpm[] = {
/* columns rows colors chars-per-pixel */
"16 16 114 2",
"1. c #1D73EE",
"@. c #2468D2",
"f  c #B0DBFB",
">  c #8BBFE9",
"O  c #355FB3",
"d  c #7B9ACE",
"h  c #3794FD",
"<. c #A3C0EE",
":. c #1478F8",
"$  c #A8BEDF",
"+  c #E6E8EF",
"%. c #0876FF",
"#  c #2143A1",
"P  c #2375DC",
"6  c #96D4FD",
"=. c #DAE3F0",
"*  c #B2BDD9",
"A  c #1A86FF",
"(  c #107EFF",
"S  c #0172FF",
"Y  c #2181FD",
"V  c #3356A9",
"|  c #1C77EB",
"2  c #1A3F9F",
"*. c #0867EB",
"/  c #2485F5",
"u  c #315FBE",
"n  c #1F84FF",
"5  c #9ED9FF",
"%  c #9DC0E7",
"O. c #1C6EE4",
"Q  c #F6F5F4",
"N  c #2F5FBC",
"]  c #CCDBF1",
"$. c #187DFB",
"   c None",
"z  c #EAEDF2",
"8  c #194FB9",
"T  c #4986E2",
"e  c #A1D7FF",
"L  c #0F41AC",
"K  c #6B80BC",
"&  c #1442AC",
"w  c #ADCDEC",
"<  c #F2F2F3",
"@  c #6B7DBC",
"'  c #3D7BDC",
" . c #147DFE",
"!  c #B4C2DE",
">. c #0A72FA",
"X. c #1E82FE",
"9  c #C3CBE0",
"7  c #4F88D5",
".  c #AFB8D7",
"x  c #3A5CAC",
"B  c #C1CEE5",
"y  c #2762C5",
"3. c #2881F7",
"H  c #D0DAEB",
"G  c #426DC4",
"E  c #7EA0DE",
"D  c #036BF5",
"-. c #5E91E2",
"b  c #82C3FF",
"J  c #EEEFF1",
"C  c #406DBA",
"I  c #298EFD",
"l  c #6F8BCD",
"4  c #C0E4FD",
"W  c #ECEFF2",
"2. c #066CF5",
"{  c #6189D0",
"R  c #2863CB",
"m  c #0E74F6",
"p  c #EFF0F1",
"+. c #A2BAE3",
"U  c #0C7AFF",
"r  c #6DBAFF",
"F  c #1253C3",
":  c #D8FFFF",
".. c #0773FF",
",. c #076AF2",
"~  c #2657B6",
")  c #147CFF",
"_  c #398CF5",
"Z  c #61A9F3",
"[  c #EBEDF1",
"}  c #0752C6",
"o  c #244EA8",
"s  c #21419F",
"t  c #5FA6F1",
"0  c #304DA4",
"=  c #304DA5",
"3  c #88A4D5",
"j  c #2D78DC",
"-  c #516FB8",
"^  c #145ECD",
"#. c #126AE3",
"1  c #6F84BE",
";. c #0862E4",
"&. c #066EF9",
"a  c #7989C0",
"i  c #B8C9E6",
";  c #BBD6F1",
",  c #1145B2",
"X  c #3151A8",
"v  c #A0C5EC",
"k  c #144CB8",
"M  c #0D51C2",
"q  c #4364B2",
"g  c #68B5FF",
"`  c #246EDB",
"o. c #136EEC",
"c  c #375FB2",
/* pixels */
"                                ",
"                    . X o O     ",
"                + @ # $ % &     ",
"              * = - ; : > ,     ",
"          < 1 2 3 4 5 6 7 8     ",
"        9 0 q w e r t y u i     ",
"    p a s d f g h j k l z       ",
"    x c v b n m M N B           ",
"    V C Z A S D F G H           ",
"    J K L P I U Y T R E W       ",
"      Q ! ~ ^ / ( ) _ ` ' ]     ",
"          [ { } |  ...X.o.O.    ",
"              +.@.#.$.%.&.*.    ",
"                =.-.;.:.>.,.    ",
"                    <.1.2.3.    ",
"                                "
};
