/* XPM */
static char *logo32_xpm[] = {
/* columns rows colors chars-per-pixel */
"32 32 423 2",
"   c None",
"1O c #000001",
"S. c #D4D4DB",
"r. c #D4D4DC",
"lO c #61616F",
"2O c #09090B",
",X c #E6E6EA",
"r  c #EFEFF1",
"jo c #7C7C88",
"n. c #428E41",
"Co c #7C7C8C",
"`  c #8E8E90",
"iO c #242427",
"yX c #858594",
"d. c #858595",
"tX c #858596",
"}X c #84D75F",
"O  c #8E8E9B",
"0. c #8E8E9D",
")X c #8E8E9E",
"[  c #00002A",
"^X c #9797A6",
"eX c #9797A7",
"@  c #A0A0AA",
"yO c #A0A0AE",
"s  c #B2B2B4",
"*O c #A9A9B5",
"wX c #A9A9B6",
">O c #B2B2BC",
"qo c #7AE128",
"!. c #B2B2BD",
"]. c #3F3F4F",
"ao c #BBBBC5",
"f  c #3F3F55",
">. c #BBBBC6",
" O c #5A5A5E",
"1X c #C4C4CD",
"^  c #CDCDD0",
"DX c #2C9D27",
" . c #C4C4CE",
"j. c #CDCDD4",
".. c #CDCDD5",
" X c #D6D6DC",
"MO c #020204",
"|o c #D6D6E0",
"Bo c #ADFB47",
"G  c #DFDFE4",
"CX c #636376",
"`o c #0B0B0E",
"c  c #E8E8EC",
"8X c #6C6C7C",
"vo c #6C6C7D",
"y  c #F1F1F3",
"do c #7CEF00",
"hX c #53A441",
"q  c #F1F1F4",
"`X c #757586",
"J. c #FAFAFA",
"/. c #FAFAFB",
"pX c #7E7E8D",
"2X c #4D9645",
"5X c #4A8F43",
"zo c #7E7E8F",
"eO c #7E7E90",
"g  c #878795",
"@. c #99999A",
"#X c #539850",
"6O c #9090A2",
"jX c #7DD368",
"^o c #9999A8",
"Mo c #9999A9",
"B  c #ABABB2",
"/  c #B4B4B5",
"I  c #B4B4B6",
"=o c #ABABB7",
",o c #ABABB8",
"EX c #229B1D",
":o c #B4B4C0",
"}  c #B4B4C1",
"hO c #414153",
"Q  c #BDBDC8",
",O c #BDBDC9",
"jO c #4A4A5B",
"@X c #86D382",
"9  c #C6C6CE",
"{o c #C6C6CF",
"L  c #CFCFD2",
"+X c #89D486",
"3  c #CFCFD5",
"]o c #CFCFD7",
"2o c #76D839",
"XO c #CFCFD8",
"9o c #D8D8DE",
"h  c #D8D8DF",
"&  c #5C5C6E",
"pO c #040406",
"%X c #040408",
"_. c #95DB97",
"z  c #E1E1E6",
"dX c #318532",
"Ko c #656578",
"v  c #EAEAED",
"t. c #EAEAEE",
"N. c #348035",
"k. c #F3F3F4",
"lX c #4F9E40",
"xo c #777788",
"VX c #777789",
"^. c #FCFCFC",
"Oo c #7FD552",
"RX c #64C654",
"YX c #70CD56",
"ko c #808092",
"4. c #9B9B9B",
"So c #898999",
"<o c #007F00",
"(o c #9292A2",
"rO c #9292A4",
"[X c #82D366",
"cX c #098205",
"HX c #7FD268",
")o c #9B9BAA",
"xO c #3A3A40",
"'. c #A4A4AE",
"A. c #A4A4B1",
".O c #434347",
".  c #1F1F3F",
"M  c #B6B6B7",
"C  c #3A3A4E",
"0o c #7BE12A",
"|. c #B6B6C1",
"0O c #434357",
";o c #BFBFC9",
"[. c #BFBFCA",
"&X c #4C4C5D",
"}o c #C8C8D0",
"S  c #C8C8D1",
"%o c #5E5E68",
"5  c #555567",
"k  c #DADAE0",
"V  c #707076",
"7o c #E3E3E7",
"Xo c #72D243",
"6o c #E3E3E8",
"&o c #E3E3E9",
".o c #75D347",
"e  c #ECECEF",
" o c #78D44B",
"Wo c #828287",
"l. c #F5F5F6",
"#o c #6CCA4D",
"f. c #18181C",
"Jo c #79798B",
"XX c #FEFEFE",
"oX c #FEFEFF",
"TX c #69C954",
"%  c #828290",
"6. c #949495",
"uX c #828291",
"Zo c #2A2A2D",
"z. c #9D9D9D",
"aO c #2A2A2F",
"rX c #8B8B9B",
"Eo c #333333",
"&. c #9D9DA2",
"V. c #333336",
"kX c #7BD264",
"(X c #9494A4",
"nX c #9D9DA7",
"%. c #A6A6AA",
"MX c #9D9DAC",
"Ro c #A6A6B3",
"!o c #AFAFBB",
"[o c #AFAFBC",
";O c #B8B8C2",
"T. c #B8B8C3",
"SX c #454559",
"-  c #45455A",
"zO c #575761",
"qO c #4E4E61",
"7. c #CACAD2",
"ZX c #4E4E62",
"b. c #D3D3D5",
"oO c #CACAD4",
"F  c #D3D3DA",
"Vo c #ADFC47",
"D. c #DCDCE2",
"ho c #080808",
"j  c #DCDCE3",
"J  c #E5E5E9",
"sX c #2F8432",
"8o c #E5E5EA",
"). c #99DC9A",
"fX c #358935",
"8O c #69697C",
".X c #EEEEF0",
"n  c #EEEEF1",
"0  c #EEEEF2",
",  c #F7F7F8",
">X c #F7F7F9",
";  c #7B7B8B",
"Uo c #7B7B8C",
"to c #7B7B8D",
"7O c #7B7B8F",
"UX c #77D559",
"no c #848494",
"OX c #50984B",
"mo c #8D8D9D",
"4  c #9696A1",
"!X c #9696A4",
"Ho c #9696A5",
"GX c #7DD16A",
"qX c #9F9FAC",
"~o c #9F9FAD",
"Ao c #A8A8AF",
"5O c #9F9FAE",
"*. c #A8A8B1",
"No c #A8A8B5",
"c. c #BABABA",
"x. c #BABABB",
"E  c #3E3E4C",
"$o c #259D1A",
"}. c #B1B1BD",
"7  c #353550",
"*  c #47475B",
"5. c #CCCCCF",
"gO c #505061",
"-o c #CCCCD4",
"Lo c #505064",
"A  c #CCCCD5",
"<O c #626269",
"{  c #595968",
"E. c #62626A",
"fO c #595969",
"io c #D5D5DB",
"vO c #010102",
"X. c #D5D5DC",
"{. c #D5D5DD",
"l  c #DEDEE3",
";. c #626272",
"m. c #378E33",
"L. c #E7E7EB",
"6  c #7D7D7E",
"uO c #74747D",
"Y  c #E7E7EC",
"cO c #131316",
"t  c #F0F0F2",
"oo c #79D44C",
"2  c #F0F0F3",
"o  c #747484",
"'o c #1C1C1E",
"~. c #F9F9FA",
"PX c #73CF51",
"LX c #76D054",
"0X c #7D7D8F",
"#. c #989899",
"U  c #98989A",
"mX c #868697",
"{X c #82D461",
"Fo c #8F8F9F",
"#  c #9898A4",
"vX c #098305",
"NX c #9898A7",
"C. c #AAAAAF",
"QX c #AAAAB6",
"yo c #AAAAB7",
"F. c #BCBCBC",
"=O c #B3B3BD",
"OO c #B3B3BE",
":. c #B3B3BF",
"3o c #404050",
"sO c #494953",
"-O c #BCBCC4",
"ro c #525263",
";X c #CECED5",
"5o c #CECED6",
"Qo c #CECED8",
"1o c #78D83C",
"kO c #5B5B6C",
"<X c #D7D7DD",
"p. c #D7D7DE",
"bO c #030305",
"nO c #030306",
"2. c #E0E0E4",
"O. c #E0E0E5",
"Io c #646476",
"aX c #2D8030",
"W. c #E0E0E8",
"=  c #7F7F7F",
"7X c #0C0C10",
"3. c #E9E9EC",
"q. c #0C0C11",
"K  c #E9E9ED",
"]  c #6D6D7D",
"wo c #6D6D7F",
"u  c #F2F2F4",
"iX c #767685",
"Z  c #767686",
"+o c #78D24F",
"T  c #88888B",
"H. c #FBFBFC",
"_  c #919193",
"*X c #7F7F90",
"(  c #9A9A9A",
"R. c #27272B",
"m  c #9A9A9B",
"KX c #7BD35C",
"lo c #888898",
"4O c #91919D",
"Y. c #4E824B",
"WX c #A3A3A7",
"`. c #579756",
"bX c #058002",
"Q. c #9A9AA8",
"Do c #9A9AA9",
"$. c #ACACAF",
"xX c #0B7907",
"P  c #B5B5B6",
"tO c #A3A3B3",
"-X c #ACACB8",
"w. c #ACACB9",
"a  c #BEBEBE",
"=X c #B5B5C0",
"9. c #B5B5C1",
"8. c #BEBEC8",
"i. c #C7C7CB",
"e. c #BEBEC9",
"U. c #84C780",
",. c #C7C7D0",
"Yo c #89E236",
"<. c #D0D0D8",
"@O c #D0D0DB",
"1. c #D9D9DF",
"mO c #050506",
"M. c #358D32",
"zX c #29772C",
"po c #E2E2E6",
"-. c #05050B",
"H  c #E2E2E7",
"'X c #666678",
"6X c #666679",
"fo c #66667A",
"go c #0E0E12",
"b  c #EBEBEE",
"8  c #6F6F7E",
"$X c #6F6F80",
"K. c #F4F4F5",
"N  c #F4F4F6",
"@o c #71CE4D",
"<  c #FDFDFD",
"|X c #86D85B",
"y. c #9C9C9C",
"BX c #8A8A9A",
"Go c #8A8A9B",
"h. c #9393A2",
"/o c #9393A3",
"P. c #5C9457",
"*o c #A5A5B1",
"~X c #A5A5B2",
"4X c #80D373",
">o c #AEAEBA",
"3X c #83D477",
"so c #AEAEBB",
"AX c #3B3B4E",
"_o c #B7B7C0",
"Po c #3B3B4F",
":O c #B7B7C1",
"4o c #B7B7C2",
"s. c #B7B7C3",
"a. c #C0C0CA",
"3O c #56565E",
"]X c #319F27",
"To c #8BE436",
"I. c #86C682",
"u. c #D2D2D5",
"~  c #D2D2D9",
"p  c #DBDBDC",
"9O c #56566A",
"o. c #DBDBE1",
"eo c #07070B",
">  c #E4E4E7",
"+. c #E4E4E8",
"R  c #7A7A7B",
"x  c #E4E4E9",
"co c #686879",
"wO c #68687B",
"w  c #EDEDF0",
"gX c #378638",
"#O c #7A7A83",
"d  c #838386",
"i  c #F6F6F7",
":X c #F6F6F8",
"bo c #7A7A8B",
"1  c #FFFFFF",
"IX c #76D155",
"_X c #838393",
"9X c #838395",
"G. c #9E9E9E",
"=. c #8C8C9B",
"B. c #8C8C9C",
"+  c #95959F",
"g. c #9595A0",
"$O c #343437",
"$  c #9595A2",
"'  c #9E9EA4",
"JX c #82D866",
"(. c #589D57",
"/X c #9595A5",
")  c #A7A7AB",
"Z. c #9E9EAC",
"%O c #A7A7B0",
"FX c #7FD171",
"v. c #B9B9B9",
"W  c #B0B0BC",
":  c #B9B9C2",
"|  c #B9B9C4",
"+O c #B9B9C5",
"uo c #C2C2CB",
"!  c #C2C2CD",
"&O c #C2C2CE",
"D  c #CBCBD3",
"dO c #585866",
"X  c #585868",
/* pixels */
"                    . X o O + @ # $ % & *         = = = = =     ",
"                - ; : > , < 1 1 1 1 < 2 3 4 5 6 = = =     = =   ",
"            7 8 9 0 q w e w r t y u u i p a s d = = = =   = =   ",
"          f g h j k l z x c v b w w n m = M N = B V = = =       ",
"        C Z A S D F k G H J c K b L P m P I = U Y T R           ",
"        E W Q ! D ~ h l H J ^ / ( = / s = = ) _ ` ' ] [         ",
"        { } |  ...X.o.O.+.c I P e @.#.= $.X.%.= &.*.=.-.        ",
"        ;.:.>.,.<.1.2.J 3.e r 4.= = = 5.z = 6.7.8.9.0.q.        ",
"        ] w.e.7.r.l J t.n y u y.= = u.m #.i.p...a.s.d.f.        ",
"        g.h. .j.1.z K r k.l.z.x.z.c.v.b.b +.n.m.M.N.B.V.        ",
"        C.Z.A.S.D.J w u i z.F.G.H.J., K.r L.P.I.U.Y.T.R.        ",
"        E.W.Q.!.D.b y l.~.G.G.< < ^./.i u e (.)._.`.'.          ",
"        ].[.{.}.|. X.X~.XXa 1 1 1 1 oX/.u O.OX+X@X#X$X%X        ",
"        &X*X|.S =X-XT.;XO.n :X>X, q ,X<X1X:.2X3X4X5X6X7X        ",
"        8X9X0XqX:.wXeXrXtXyXuXiXpXaXsXdXfXgXhXjXkXlXzXxXcXvXbX  ",
"        nXmXMXmXB.Q.NXBXVXCXZXAXSXDXFXGXHXJXKXLXPXIXUXYXTXRXEX  ",
"        WXQX!XT.~X^X/X(X)X_X`X'X$X]X[X{X}X|X o.oXoooOo+o@o#o$o  ",
"        %o&o*o=o..-o;o:o>o,o,ow.,o<o<o<o<o<o<o1o2o<o<o<o<o<o<o  ",
"        3o:.p.4o:.5o+.b c 6o7oH 7oH 8ot.L.9o<o0oqo<owoeo        ",
"        rotoyo,.4oyoW uoiopov 2 e ,Xo.-oaoso<ododo<ofogo        ",
"      hojokoko!XsowXeXlozoxo$XcovobonomoMoNo<oBoVo<oCoZo        ",
"        AoSoDoFoGoHo^XB.JoKoLoPo* IoUo)XDoDo<oYoTo<oRoEo        ",
"        WoQo=.W !o~o^oNX/orX*X`XboSo(o^XNX)o<o<o<o<o_o`o        ",
"        'o<.S Ro;o]oD a.T.:.W [o[o}.:oao{o]o}o-X=o|o O          ",
"          .OXOoO}.| <.z L.K L.,X,Xc L.6o9o1XOO+O@O#O            ",
"            $O%O&Ow.Z.~o*O=O_o-O;O:O>OwXA.yo,O+O<O1O            ",
"              2O3O4O5O6O7O8O9O0OqOwOeOrOtOyOuOiO                ",
"                  pOaOsOdOfOgOhOjOkOlOzOxOcO                    ",
"                          vObOnOmOMO                            ",
"                                                                ",
"                                                                ",
"                                                                "
};
