/* XPM */
static char *opendb_xpm[] = {
/* columns rows colors chars-per-pixel */
"20 20 127 2",
"4  c #8A761B",
",. c #FCFEFC",
"y. c #D4D5E0",
"K  c #F8F8CE",
"L  c #E5E38C",
"O  c #9A891D",
"G  c #7E6B1C",
"%  c #FFFFFF",
"t. c #949694",
"~  c #907E1B",
"'  c #8483B3",
"r. c #67666D",
"5  c #86731A",
"<  c #F2F29E",
"7. c #B4B4D6",
"+  c #98861D",
"b  c #776418",
"I  c #A79530",
"w. c #8C8BBA",
"=  c #F9F9CF",
"|  c #8E7B1B",
"y  c #E6E793",
"i  c #E1E08D",
"6  c #847019",
"1  c #F0EF9C",
"&. c #444474",
"(  c #AFA03C",
"-  c #917F1C",
"u  c #E4E490",
"a  c #DAD986",
"w  c #F3F39F",
")  c #D5D27C",
"   c None",
"9  c #B1A986",
"3. c #7D6918",
"P  c #B2A441",
"R  c #4C4C80",
"A  c #A3922F",
"*  c #FAFAD0",
"_  c #7979B1",
"p  c #DDDD89",
"8. c #D4DAE4",
"!  c #848284",
"2. c #806D19",
"H  c #948332",
"E  c #343654",
"q. c #737980",
"$. c #A69632",
"5. c #766217",
";  c #A8A276",
"o. c #7A7A99",
"s  c #D6D682",
",  c #F4F4A1",
"+. c #B4B3B6",
"0  c #9A881D",
"m  c #95841D",
"}  c #32304A",
"W  c #3C3B58",
"&  c #FBFBD1",
"O. c #1C1D30",
"j  c #EDED99",
">. c #E4EAF4",
"r  c #EDED9A",
":. c #AAABCF",
"J  c #93811C",
" . c #F4F4C8",
"`  c #64649B",
"D  c #9D8C2C",
"n  c #A1A4AB",
"#  c #BDB689",
"k  c #EBEA97",
"X. c #C3BB5F",
"9. c #C4C6D1",
"8  c #7F6B19",
"U  c #9C9DB5",
"3  c #8C7A1B",
"t  c #E9EA96",
"M  c #EEEE9A",
"z  c #E4E390",
"{  c #7C7C88",
"X  c #9E8D1F",
"Q  c #545374",
"0. c #D4D3CA",
"l  c #E7E793",
">  c #F6F6A2",
":  c #9C8A1E",
"Z  c #A69530",
"T  c #595A92",
"N  c #EAEB97",
"*. c #A5A6AB",
"=. c #887419",
"f  c #C3C7D0",
"1. c #837019",
"V  c #E5E491",
"4. c #796517",
"@. c #8B781B",
"c  c #D9D985",
"B  c #E8E894",
"g  c #98871D",
"o  c #9D8B1E",
";. c #B6AB4D",
"6. c #9494AB",
"x  c #E1E18D",
"e  c #F0F09C",
"h  c #F0F09D",
"#. c #D9D394",
"Y  c #6C6EA0",
"/  c #C8BE61",
"e. c #454649",
"[  c #C9CCDD",
"d  c #7A6618",
"@  c #96841D",
"S  c #A08F2D",
"]  c #ABABBE",
"^  c #F7F7CD",
"q  c #F3F4A0",
"<. c #B6AE87",
"7  c #826E19",
"$  c #9E8C1F",
".. c #AD9E39",
"C  c #A89731",
".  c #C3BD8A",
"F  c #99882A",
"v  c #D3D37F",
"-. c #B7A953",
"2  c #ECED99",
"%. c #D8D782",
/* pixels */
"                                        ",
"  . X o O + @ #                         ",
"  $ % & & * = - ;                       ",
"  : & > , < 1 2 3 4 5 6 7 8 9           ",
"  0 & q w e r t y u i p a s d f         ",
"  g * w h j k l z x p c s v b n         ",
"  m = h M N B V C Z A S D F G H         ",
"  J K L P C C I I U Y T R E W Q !       ",
"  ~ ^ / ( ) p p _ ` ' ] [ ] { Q } W     ",
"  |  ...X.p p p T ` ' ] [ ] o.Q } O.+.  ",
"  @.#.$.%.p p p T _ Y T R E E E &.O.*.  ",
"  =.-.;.p p p p T :.[ >.,.! ' T ` O.*.  ",
"  <.1.2.3.d 4.5.T 6.7.8.,.! _ T Q O.*.  ",
"    f n n n n n T U +.9.0.q.Y T T O.*.  ",
"                T U +.9.,.! _ T T O.*.  ",
"                T :.[ >.,.! ' T ` O.*.  ",
"                _ T _ U ,.! _ W } W *.  ",
"                  w.` Q &.E E e.r.t.9.  ",
"                    y.9.+.*.] +.9.y.    ",
"                                        "
};
