/* XPM */
static char *redo_xpm[] = {
/* columns rows colors chars-per-pixel */
"20 20 137 2",
"O  c #016FC3",
"M  c #78C8FC",
"P  c #3BB1FF",
".. c #4D8FCB",
"g  c #D0E4F5",
"A  c #2485D0",
"N  c #4AB7FF",
"e. c #0F539C",
"&. c #0661AF",
"R  c #1069B4",
"-. c #D5D9E3",
"X  c #2285CF",
"h  c #00418F",
"n  c #63C2FF",
"d. c #2A5893",
")  c #096BBD",
"o  c #0774C8",
"8. c #2166A9",
",  c #117CCC",
"#  c #B3CDE7",
"@. c #94D4FF",
"9. c #318ED7",
"q. c #C9D1DD",
"i. c #084C97",
"[  c #D1E5F5",
"0. c #0D509B",
"j  c #BFC3CC",
"g. c #D8DDE7",
"d  c #3B93D8",
"1. c #00357F",
"o. c #1D75C1",
"&  c #E5F2FB",
"s. c #BDCCE0",
"W  c #C2D0E3",
"f. c #9AA1AA",
"J  c #4DA9EA",
"H  c #0E60AC",
"w. c #DBE4F0",
"%. c #DBE4F1",
"z  c #77C0F2",
"S  c #77C0F3",
"7  c #257DC5",
"   c None",
"{  c #49B8FF",
"a  c #75C9FF",
"D  c #0568B8",
"%  c #288AD4",
"!  c #75C3F9",
"r. c #2380CC",
"3. c #6A9CCB",
"B  c #42B4FF",
"]  c #2C6CAF",
":  c #1E76BF",
"O. c #6088AF",
";. c #2C66A8",
"p  c #7DCBFF",
"6. c #6085AE",
"2  c #98D6FF",
"Z  c #86B7E0",
"2. c #1F4887",
"=  c #DFF2FE",
"X. c #358DD2",
"4  c #8CD1FF",
"<  c #E9F4FD",
"6  c #76C4FA",
"F  c #A8ABB3",
"+  c #0970C2",
":. c #004391",
"b  c #5BB0EC",
"t  c #D1EDFF",
".  c #B8D3ED",
"@  c #3384C8",
"U  c #BDD4EC",
"C  c #A1A4AB",
"#. c #2BABFF",
";  c #A0CCED",
"x  c #0266B8",
"$. c #00347F",
"e  c #CCDDF0",
"^  c #3AB1FF",
"1  c #9CD8FF",
"k  c #8FBDE4",
"~  c #49B7FF",
"7. c #9DA1AA",
"i  c #75BFF3",
"Q  c #0755A4",
"l  c #2185D0",
"0  c #2C6BAD",
"5. c #196EB9",
"3  c #93D4FF",
"w  c #2C65A6",
"$  c #A1C7E8",
">  c #689BCB",
"v  c #126DBA",
"f  c #0A59A6",
"*. c #4EA6E6",
"j. c #C3C7D0",
"|  c #2FADFF",
"m  c #5BBEFF",
"h. c #E1E5EF",
"r  c #0978CA",
"+. c #004B99",
"}  c #34AEFF",
"8  c #236AAE",
"q  c #004897",
"E  c #ADB1B8",
"5  c #85CFFF",
"-  c #C2E3F9",
"=. c #0D5AA4",
"Y  c #0E73C3",
"y. c #E4E9F3",
"V  c #003F8B",
">. c #003F8D",
"T  c #60B0E9",
"I  c #003C87",
"_  c #6AB8F0",
"K  c #52BAFF",
"(  c #003984",
"<. c #003985",
"a. c #7C93B5",
"s  c #6DC5FF",
" . c #003682",
"9  c #B8CCE4",
"u  c #83C9F8",
"G  c #7F9AB4",
"/  c #35AFFF",
"p. c #0B54A2",
"y  c #97D6FF",
"`  c #025FB1",
"t. c #265997",
"4. c #2077C1",
",. c #013D8A",
"u. c #CAD6E8",
"c  c #0563B4",
"L  c #42B5FF",
"'  c #B6BAC2",
"*  c #DCEFFC",
/* pixels */
"                                        ",
"                                        ",
"        . X o O + @ #                   ",
"      $ % & * = - ; : >                 ",
"      , < 1 2 3 4 5 6 7 8 9 0 q w       ",
"    e r t y u i 5 p a s d f g 3 h j     ",
"    k l 2 z x c v b s n m M N B V C     ",
"    Z A S D C F G H J m K N L P I C     ",
"    U Y T R E     W Q ! ~ B ^ / ( C     ",
"      ) _ ` '     ] [ { B P } |  .C     ",
"      ..X.o.O.    +.@.B P / | #.$.C     ",
"      %.&.*.=.-.  ;.:.>.,.<. .1.2.C     ",
"        3.4.5.6.    j C 7.C C C C j     ",
"          8.9.0.q.                      ",
"          w.e.r.t.y.                    ",
"            u.i.p.a.                    ",
"              s.d.f.g.                  ",
"                h.j.y.                  ",
"                                        ",
"                                        "
};
