/* XPM */
static char *remove_xpm[] = {
/* columns rows colors chars-per-pixel */
"20 20 44 1",
"; c #B94B39",
"5 c #780505",
"* c #5C1311",
"o c #B28283",
"# c #740E04",
"i c #CC361C",
"f c #9C7274",
"g c #BCC2CC",
". c #B08890",
"h c #BCC2D4",
"+ c #660F0B",
"O c #BC7E81",
"4 c #ADA4AB",
"e c #F44410",
"X c #4F150F",
"0 c #E84218",
"1 c #FC8D67",
"@ c #FC937B",
"  c None",
"< c #BC6658",
"> c #E44E2C",
"r c #FC3A0C",
"- c #D24629",
"2 c #DC451C",
"7 c #975551",
"& c #690606",
"= c #E55727",
"p c #D22E1C",
"t c #A84C4C",
"d c #AC3428",
"a c #C8200C",
"w c #D1C6CF",
"6 c #EC4C1C",
"$ c #AA6C69",
"q c #EE3A0E",
", c #890306",
"3 c #885A5C",
"% c #5C0204",
"u c #E42C14",
"8 c #BB9EA5",
"s c #BC3224",
"y c #CC989C",
": c #4A0906",
"9 c #CCCDD7",
/* pixels */
"                    ",
"                    ",
"                    ",
"    .Xo     .X.     ",
"   O+@#$   o%@&$    ",
"   *@==#$ o&@-;:    ",
"   .+==>,<&12-&34   ",
"    $5=66,@2-&789   ",
"     $&=0q2-&78w    ",
"      <,erq,tyw     ",
"     O51qqqu,$      ",
"    o&120,iup&$     ",
"   o&12-&t5iua5$    ",
"   X@--&ty$&pps:w   ",
"   o%;&78w $%d%34   ",
"    f:78g   f:78w   ",
"      89      8h    ",
"                    ",
"                    ",
"                    "
};
