/* XPM */
static char *sqlicon_xpm[] = {
/* columns rows colors chars-per-pixel */
"16 16 28 1",
"o c #FCFEFC",
"X c #71A67A",
"% c #E4FAFA",
". c #046604",
"$ c #045A04",
": c #68DC45",
"9 c #85E768",
", c #044B04",
"  c None",
"# c #248316",
"3 c #3BC028",
"2 c #156B0E",
"O c #70AF70",
"= c #74E34C",
"1 c #4DCA32",
"> c #5CD63C",
"8 c #C4C6D1",
"+ c #BCF8A8",
"6 c #547655",
"@ c #99F074",
"5 c #9EEE84",
"7 c #A5A6AB",
"* c #79EC4F",
"- c #16770E",
"; c #719B79",
"< c #C9F8C4",
"& c #84F254",
"4 c #5C8668",
/* pixels */
"                ",
" ..X            ",
" .oO.X          ",
" .o+@#$X        ",
" .%&**=-$;      ",
" .%**=::>-,;    ",
" $<*=::>1112,;  ",
" $+=::>111333,4 ",
" $5::>11133.,678",
" $9:>1113.,6778 ",
" $:>1112,6778   ",
" ,>112,6778     ",
" ,12,6778       ",
" ,,6778         ",
"  778           ",
"                "
};
