/* XPM */
static char *starttransact_xpm[] = {
/* columns rows colors chars-per-pixel */
"20 20 42 1",
". c Black",
"7 c #FCFEFC",
"> c #D4D5E0",
"p c #BBBBD8",
"f c #949694",
"= c #8483B3",
"d c #67666D",
"@ c #3C3C6E",
"a c #8C8BBA",
"5 c #444474",
"  c None",
"+ c #4C4C80",
"9 c #7979B1",
"1 c #D4DAE4",
"& c #848284",
"e c #A4A3C1",
"# c #343654",
"r c #737980",
"u c #B4C2DC",
"2 c #7A7A99",
"4 c #B4B3B6",
"w c #BCBEB4",
"< c #32304A",
"$ c #3C3B58",
"3 c #1C1D30",
"8 c #E4EAF4",
"t c #AAABCF",
"y c #E7F4FA",
"* c #64649B",
"0 c #C4C6D1",
"X c #9C9DB5",
", c #7C7C88",
"% c #545374",
"q c #D4D3CA",
"O c #595A92",
"6 c #A5A6AB",
": c #E4E6EF",
"i c #9494AB",
"o c #6C6EA0",
"s c #454649",
"; c #C9CCDD",
"- c #ABABBE",
/* pixels */
"                    ",
"                    ",
"  .                 ",
"  .. XoO+@@#$%&     ",
"  ...*=-;:>-,%<$    ",
"  ....=-;1;-2%<34   ",
"  .....O+@@###536   ",
"  ......78;&=O*36   ",
"  .....178;&9O%36   ",
"  ....40qweroOO36   ",
"  ...t;87y:u=O*36   ",
"  ..Oip178;&=O%36   ",
"  . OX4078;&9OO36   ",
"    Ot;878;&=O*36   ",
"    9O9X78;&9$<$6   ",
"     a*%5####sdf0   ",
"      >04-66-40>    ",
"                    ",
"                    ",
"                    "
};
