/* XPM */
static char *stoptransact_xpm[] = {
/* columns rows colors chars-per-pixel */
"20 20 41 1",
"& c Black",
"u c #FCFEFC",
"- c #D4D5E0",
"y c #BBBBD8",
"d c #949694",
"9 c #8483B3",
"s c #67666D",
"+ c #3C3C6E",
"p c #8C8BBA",
"5 c #444474",
"  c None",
"O c #4C4C80",
"4 c #7979B1",
", c #D4DAE4",
"% c #848284",
"w c #A4A3C1",
"@ c #343654",
"e c #737980",
"t c #B4C2DC",
"1 c #7A7A99",
"3 c #B4B3B6",
"q c #BCBEB4",
"> c #32304A",
"# c #3C3B58",
"2 c #1C1D30",
"8 c #E4EAF4",
"7 c #AAABCF",
"r c #E7F4FA",
"* c #64649B",
"i c #C4C6D1",
". c #9C9DB5",
": c #7C7C88",
"$ c #545374",
"o c #595A92",
"6 c #A5A6AB",
"= c #E4E6EF",
"0 c #9494AB",
"X c #6C6EA0",
"a c #454649",
"< c #C9CCDD",
"; c #ABABBE",
/* pixels */
"                    ",
"                    ",
"                    ",
"     .XoO++@#$%     ",
"  &&&*&&&=-;:$>#    ",
"  &&&*&&&,<;1$>23   ",
"  &&&4&&&++@@@526   ",
"  &&&7&&&8<%9o*26   ",
"  &&&0&&&8<%4o$26   ",
"  &&&.&&&qweXoo26   ",
"  &&&7&&&r=t9o*26   ",
"    o0y,u8<%9o$26   ",
"    o.3iu8<%4oo26   ",
"    o7<8u8<%9o*26   ",
"    4o4.u8<%4#>#6   ",
"     p*$5@@@@asdi   ",
"      -i3;66;3i-    ",
"                    ",
"                    ",
"                    "
};
