/* XPM */
static char *tablecreate_xpm[] = {
/* columns rows colors chars-per-pixel */
"20 20 136 2",
"q. c #00C100",
"t. c #004C00",
"Z  c #9595BC",
"%  c #59598D",
"]  c #403F75",
"5. c #004900",
")  c #ECFFEC",
"f  c #D4D5EB",
">. c #D9D9EE",
"g. c #004600",
"J  c #434378",
"A  c #9392BA",
"2  c #F0F0F9",
":. c #DCDDEF",
"^  c #E1E1F1",
"i  c #E6E5F4",
"R  c #006600",
"}  c #8787B1",
"E  c #29762B",
"8  c #4B4B80",
"3. c #00D500",
"I  c #E4E5F4",
"u  c #E9E9F5",
",. c #D5D6ED",
"y  c #999AC0",
"6. c #535387",
"q  c #626295",
"=  c #535388",
"1  c #F6F5FB",
"U  c #DDDEF0",
"p  c #E2E2F2",
"   c None",
"*. c #005400",
"x  c #9797BD",
"h. c #1C521E",
"C  c #9797BE",
">  c #FEFDFF",
"$  c #5B5B8F",
"%. c #347F34",
"!  c #EFEEF8",
"(  c #D6D7ED",
"a  c #9090B8",
"N  c #454579",
"o  c #636397",
"k  c #F2F2FA",
"j  c #F7F6FC",
"v  c #DEDFF0",
"y. c #004800",
"5  c #E3E3F2",
"O. c #3E3E73",
"8. c #4D4D81",
":  c #4D4D82",
"L  c #EBEBF6",
"t  c #F0EFF8",
"'  c #B2B6BD",
"n  c #D7D8ED",
"d  c #D7D8EE",
"7  c #DCDCEF",
"&. c #006500",
"T  c #125E24",
"Q  c #414276",
"H  c #8282AD",
"|  c #006200",
"h  c #5F6094",
"-. c #555589",
"X  c #646498",
";. c #E4E4F2",
"6  c #DFE0F1",
"0. c #00D400",
"`  c #005F00",
"P  c #E9E8F5",
"o. c #A1A4AB",
"M  c #D0D1EA",
"[  c #9495BB",
"V  c #9999BF",
"D  c #8A8AB4",
"#  c #5D5D91",
"X. c #005900",
"~  c #E7E8F4",
"z  c #ECECF7",
"O  c #626196",
"m  c #D3D5EB",
"#. c #DDDDEF",
"s. c #00CB00",
"r. c #005600",
"W  c #C9CAE6",
"=. c #3A723D",
"{  c #9292B9",
"i. c #47477B",
".. c #00EE00",
"F  c #8887B1",
"g  c #47477C",
"<  c #F9F8FC",
".  c #656599",
"f. c #3A6F3D",
"@. c #E0E1F2",
"c  c #E5E5F4",
"4  c #EAE9F5",
"1. c #00E800",
"7. c #4F4F83",
"/  c #908FB8",
";  c #4F4F84",
"@  c #5E5E92",
"3  c #EDEDF7",
"r  c #F2F1F9",
"$. c #D9DAEE",
"d. c #004700",
"_  c #8CFE8C",
"2. c #00DF00",
"G  c #8484AF",
"&  c #57578B",
"e  c #F5F5FB",
"w  c #FAF9FD",
"p. c #ADB1B8",
"9  c #B2B2B2",
"<. c #006400",
"B  c #9B9BC1",
"Y  c #DADBEE",
" . c #86FE86",
"e. c #005B00",
"9. c #49497D",
"K  c #F1F2F9",
"0  c #49497E",
",  c #FBFAFD",
"w. c #317C31",
"+. c #E7E7F5",
"4. c #00CA00",
"u. c #1C531E",
"S  c #8D8DB5",
"b  c #8D8DB6",
"-  c #515185",
"+  c #606094",
"*  c #565589",
"l  c #EFEFF8",
"s  c #DBDCEF",
"a. c #004F00",
/* pixels */
"                                        ",
"                                        ",
"    . X o O + @ # $ % & * = - ; :       ",
"    X > o , < 1 o 2 3 4 o 5 6 7 8 9     ",
"    o o o o o o o o o o o o o o 0 9     ",
"    q w o e r t y u i p a s d f g 9     ",
"    h j o k l z x c p v b n m M N 9     ",
"    @ o o B V C Z A a S D F G H J 9     ",
"    # K o L P I A U Y T R R E W Q 9     ",
"    $ ! o ~ c ^ / Y ( R ) _ ` ' ] 9     ",
"    % o o [ { a b D } |  ...X.o.O.9     ",
"    & +.o @.#.$.%.&.| |  ...X.X.*.=.    ",
"    -.;.o :.>.,.<.)  . ...1.2.3.4.5.'   ",
"    6.- 7.8.8 9.<._ ....1.2.0.4.q.5.o.  ",
"      9 9 9 9 9 w.e.r.r.2.3.t.t.y.u.o.  ",
"                i.i.i.r.0.4.t.o.o.o.p.  ",
"                      a.s.q.d.o.        ",
"                      f.g.g.h.o.        ",
"                        ' o.o.p.        ",
"                                        "
};
