/* XPM */
static char *tables_xpm[] = {
/* columns rows colors chars-per-pixel */
"16 16 34 1",
"9 c #FCFEFC",
"> c #CFCED0",
"1 c #0C0E3A",
", c #0A0B22",
"8 c #FCF2F4",
"6 c #040357",
": c #F1FAE1",
"- c #040205",
"$ c #999F55",
"& c #D1D0BE",
"3 c #D0CFF9",
"4 c #6462B4",
"# c #FCFDDD",
"  c None",
"< c #040538",
"q c #6B6B76",
"7 c #666A85",
"; c #FCF1E0",
"* c #9C9A66",
". c #CCCEA9",
"% c #5C5E30",
"o c #5F6228",
"t c #9C9A9E",
"O c #FCFCC4",
"r c #6C6687",
"w c #646689",
"@ c #FCFEAC",
"= c #D4D284",
"2 c #CDC9EF",
"+ c #FCF8B4",
"X c #5C5D3F",
"e c #9798B0",
"5 c #040321",
"0 c #9291B8",
/* pixels */
"                ",
".XoooX          ",
"XOO+@+o         ",
"o#O@$$$oo%ooX&  ",
"o.**=O#O#O#O#-  ",
"%##+@;:#:;:;:>  ",
"o#O@O,<<<1<<<,< ",
"o#+@O<234234325 ",
"o#O@+,6<<<<<<<5 ",
"o#@@+789099099- ",
"o#+@Oqw9eq9er9- ",
"%#O+Oq99t99e99- ",
"X---&wr9tq9eq9- ",
"     w99t99t99- ",
"     q--------- ",
"                "
};
