/* XPM */
static char *table_xpm[] = {
/* columns rows colors chars-per-pixel */
"16 16 132 2",
"e. c #BDBEE1",
"X. c #8182AD",
"Z  c #9595BC",
"r. c #3B3B71",
"a. c #403F74",
"%  c #59598D",
"O. c #7C7BA9",
"{  c #403F75",
"E  c #CFD1EA",
"f  c #D4D5EB",
"4. c #D9D9EE",
";. c #7F7FAB",
"J  c #434378",
"A  c #9392BA",
"2  c #F0F0F9",
"3. c #DCDDEF",
"/  c #E1E1F1",
"i  c #E6E5F4",
"*. c #D2D2EA",
" . c #8787B1",
"R  c #8787B2",
"8  c #4B4B80",
"I  c #E4E5F4",
"u  c #E9E9F5",
"5. c #D5D6ED",
"[  c #C6C7E4",
"y  c #999AC0",
"t. c #535387",
".. c #8584AF",
"q  c #626295",
"=  c #535388",
"1  c #F6F5FB",
"U  c #DDDEF0",
"p  c #E2E2F2",
"   c None",
"x  c #9797BD",
"C  c #9797BE",
"<. c #3D3D71",
"+. c #7979A7",
">  c #FEFDFF",
"$  c #5B5B8F",
"~  c #EFEEF8",
")  c #D6D7ED",
">. c #C2C4E3",
"a  c #9090B8",
"N  c #454579",
"o  c #636397",
"k  c #F2F2FA",
"j  c #F7F6FC",
"v  c #DEDFF0",
"5  c #E3E3F2",
",. c #C0C1E2",
"@. c #3E3E73",
"u. c #4D4D81",
":  c #4D4D82",
"L  c #EBEBF6",
"t  c #F0EFF8",
"n  c #D7D8ED",
"d  c #D7D8EE",
"7  c #DCDCEF",
"9. c #C8C9E6",
"!  c #414276",
"H  c #8282AD",
"h  c #5F6094",
"1. c #555589",
"X  c #646498",
"2. c #E4E4F2",
"6  c #DFE0F1",
"P  c #E9E8F5",
"M  c #D0D1EA",
"}  c #9495BB",
"V  c #9999BF",
"D  c #8A8AB4",
"0. c #7B7BA8",
"#  c #5D5D91",
"^  c #E7E8F4",
"z  c #ECECF7",
"O  c #626196",
"m  c #D3D5EB",
"%. c #DDDDEF",
"w. c #BFC2E2",
"Q  c #C9CAE6",
"]  c #C9CAE7",
"o. c #7E7FAB",
"|  c #9292B9",
"F  c #8887B1",
"g  c #47477C",
"<  c #F9F8FC",
".  c #656599",
"$. c #E0E1F2",
"c  c #E5E5F4",
"4  c #EAE9F5",
"W  c #CCCEE7",
"q. c #C2C3E3",
"y. c #4F4F83",
"(  c #908FB8",
";  c #4F4F84",
"@  c #5E5E92",
"3  c #EDEDF7",
"r  c #F2F1F9",
"&. c #D9DAEE",
":. c #C5C7E4",
"=. c #CFCFE9",
"G  c #8484AF",
"&  c #57578B",
"e  c #F5F5FB",
"w  c #FAF9FD",
"T  c #D7D7EC",
"9  c #B2B2B2",
"6. c #8788B1",
"B  c #9B9BC1",
"Y  c #DADBEE",
"-. c #CBCCE7",
"8. c #CBCCE8",
"`  c #8585AF",
"s. c #3A3A6F",
"i. c #49497D",
"K  c #F1F2F9",
"0  c #49497E",
",  c #FBFAFD",
"#. c #E7E7F5",
"7. c #CED0E8",
"_  c #D3D4EB",
"S  c #8D8DB5",
"b  c #8D8DB6",
"-  c #515185",
"+  c #606094",
"p. c #47467C",
"*  c #565589",
"l  c #EFEFF8",
"s  c #DBDCEF",
"'  c #CCCDE7",
/* pixels */
"                                ",
"                                ",
". X o O + @ # $ % & * = - ; :   ",
"X > o , < 1 o 2 3 4 o 5 6 7 8 9 ",
"o o o o o o o o o o o o o o 0 9 ",
"q w o e r t y u i p a s d f g 9 ",
"h j o k l z x c p v b n m M N 9 ",
"@ o o B V C Z A a S D F G H J 9 ",
"# K o L P I A U Y T R E W Q ! 9 ",
"$ ~ o ^ c / ( Y ) _ ` ' ] [ { 9 ",
"% o o } | a b D  ...X.o.O.+.@.9 ",
"& #.o $.%.&.D *.=.-.;.:.>.,.<.9 ",
"1.2.o 3.4.5.6.7.8.9.0.q.w.e.r.9 ",
"t.- y.u.8 i.p.N J ! a.@.<.r.s.9 ",
"  9 9 9 9 9 9 9 9 9 9 9 9 9 9 9 ",
"                                "
};
