/* XPM */
static char *triggers_xpm[] = {
/* columns rows colors chars-per-pixel */
"16 16 44 1",
"u c #FCFEFC",
"f c #CFCED0",
"7 c #043D07",
"= c #D0FECC",
", c #2B7C31",
"* c #F1FAE1",
"g c #6C6454",
"i c #040E04",
"6 c #17891F",
"; c #040205",
"& c #999F55",
". c #D1D0BE",
"8 c #044E04",
"@ c #FCFDDD",
"t c #199109",
"  c None",
"h c #6B6B76",
"2 c #546234",
"s c #5D666D",
"9 c #045904",
"e c #248E04",
"O c #5C5E30",
": c #37743C",
"o c #5F6228",
"+ c #FCFCC4",
"< c #07340F",
"% c #E2FED2",
"4 c #56C266",
"w c #C0FBFC",
"0 c #044404",
"a c #84AA8C",
"> c #248227",
"r c #40CF53",
"d c #626664",
"5 c #47CA59",
"$ c #FCFEAC",
"1 c #142E1C",
"- c #EFFEF9",
"p c #DCFEF9",
"# c #FCF8B4",
"X c #5C5D3F",
"y c #F9F1C8",
"3 c #2C7840",
"q c #BFFEBC",
/* pixels */
"                ",
" .XoooX         ",
" O+@#$+o        ",
" O+%$&&&OOOooX. ",
" o**%%=%--@@@@; ",
" o*:>>>,<1@@++; ",
" 2-345563<-#$#; ",
" 2*789960<@+$$; ",
" o*%=q8qw**$$$; ",
" 2*:>>e>:<@+$+; ",
" 2*34rrt,<@@+y; ",
" 2%7895q%-u@@@  ",
" Xipq0%as-.df d ",
"   :,3 ;  d d d ",
"   344  ; d g d ",
"   <00 dh fd;fgd"
};
