/* XPM */
static char *triggers2_xpm[] = {
/* columns rows colors chars-per-pixel */
"16 16 205 2",
"_. c #7A6641",
".  c #C3C09F",
"2X c #D9D6CD",
"|. c #634016",
"4  c #D5D090",
"$  c #858458",
"Y. c #FFBB80",
"]  c #81B046",
"f  c #C6EA92",
"J  c #E7E088",
"e  c #929359",
"V. c #FFAF60",
"Q  c #64885A",
"<. c #6F7142",
"z. c #87A15A",
"7  c #7A8946",
"8  c #5A712D",
")  c #ECE493",
"8. c #A7AD53",
",. c #4C7E49",
"). c #8A8565",
"{. c #AD6F48",
"n. c #F5D990",
"g  c #BAE28C",
"}  c #51A239",
"E. c #B68D4F",
"<X c #B2B19F",
"B  c #5C8B25",
"j  c #CBEEAE",
"}. c #7C4B22",
"b  c #F9F39D",
"$X c #BBA08B",
"A. c #DABF72",
"0. c #699D31",
"m. c #FFD888",
"W. c #CBB375",
"t  c #C0BE69",
"-. c #348B18",
"y  c #D9D57C",
"^. c #5E5F3D",
"t. c #567D4E",
"~. c #B8B98D",
"7. c #BDAE5D",
"0  c #536A32",
"&X c #BD8E7A",
"M  c #D3E788",
"e. c #296D16",
"[  c #458815",
"X. c #7F7E50",
"R. c #C58A4E",
"C  c #71A84D",
"k. c #B5C36B",
"6  c #676E2B",
"(. c #A2A68D",
"D. c #C3C281",
">  c #82824E",
"OX c #7A7A62",
"'. c #966338",
"3. c #F7E495",
"(  c #E6DB89",
"c  c #EEE98B",
"   c None",
"/. c #B1AF96",
"#. c #EBE297",
":. c #64B95B",
"p  c #C6C374",
"!. c #BEBB88",
"l  c #85864C",
"-X c #A37E6B",
"l. c #89A04E",
"h. c #C8B154",
"g. c #C79B42",
"p. c #FED67F",
"#  c #C5BFA5",
"F. c #C6C992",
"@X c #D4D1C0",
"!  c #8A8A56",
"-  c #FFFBCA",
"&  c #F8F7B7",
"]. c #BE8057",
"%. c #B8C170",
"U. c #EBA464",
"q. c #2D6F03",
"x. c #394E16",
"T  c #6EB245",
"_  c #DDDA89",
"@. c #E4D88C",
"6. c #C8AE63",
"f. c #ECAE59",
";  c #80794B",
"<  c #F6F4A9",
"H. c #ADAC8D",
"C. c #CE8D3D",
"H  c #FEF99D",
"u  c #B8B25E",
"L. c #F0D79F",
"2. c #ECE094",
"*X c #A67662",
"&. c #749134",
",X c #B2AD99",
"v. c #707744",
"q  c #697C4E",
"L  c #E8E691",
"T. c #F1A96E",
"G. c #575A2F",
"1  c #EDEA9D",
".. c #5E8A57",
"d  c #D8F09A",
"a. c #F0B95F",
"V  c #6CA33E",
"{  c #398815",
"j. c #D7D477",
"M. c #E3A14D",
"B. c #FFC877",
"R  c #4F9532",
"D  c #787940",
"=X c #A27361",
"oX c #5C5B3C",
"~  c #E6E69E",
"s. c #E1A147",
"w  c #A0AB89",
":X c #C4B49D",
"1X c #C2C0B3",
"+. c #F0E897",
"P  c #D8E188",
"K. c #EDE7B7",
"`  c #CED680",
"o  c #918D5E",
"+X c #B6B5A3",
"E  c #4F8F39",
"S. c #D7CB83",
":  c #AAA77A",
"4. c #EDD283",
"#X c #C7B8A5",
"9  c #66803F",
"5. c #D9BC6E",
"N  c #B2D571",
"S  c #90A982",
"W  c #2E611F",
"m  c #D1D77F",
"y. c #797D4A",
"'  c #627D1C",
"XX c #5D5934",
"%X c #C9A38E",
"U  c #689129",
"o. c #FBFAB9",
".X c #675B33",
"2  c #FBF4AC",
"*  c #FBF7B8",
"i. c #F8E193",
"/  c #F4ED95",
"n  c #F9F4A0",
"^  c #F9F4A2",
"i  c #C7C070",
"O  c #837C50",
"k  c #5F7648",
"*. c #55881F",
">X c #BCB49F",
"I. c #C78B4C",
"|  c #479237",
"Z. c #C39444",
"G  c #EDE992",
"9. c #7C9834",
"X  c #868358",
"P. c #FFD99D",
"r. c #235A16",
"K  c #F2EA95",
"s  c #EEFCA7",
";. c #379326",
"v  c #FFFFAA",
"w. c #2C720F",
"h  c #DBFFB8",
"u. c #FCF5B1",
"@  c #867D60",
"F  c #FFFFB7",
"a  c #FFFFB8",
"d. c #FFC16C",
";X c #B79B86",
"z  c #FFFFBA",
"Q. c #CFC58A",
"$. c #E6E298",
" X c #685328",
"O. c #F0EA9E",
"c. c #8F9E77",
"b. c #FFFFC1",
"1. c #FFFFC2",
",  c #FFFFC3",
"N. c #FFBB66",
" . c #427F39",
"Y  c #77B143",
"5  c #808040",
"3  c #E6DF9B",
"%  c #FFFFC8",
"=  c #FFFFC9",
"+  c #8E8564",
"`. c #88653D",
"[. c #CA8961",
"=. c #559F2C",
">. c #458940",
"Z  c #A8D88C",
"A  c #3C6229",
"J. c #7B7F5A",
"I  c #C3DD7A",
"x  c #F6F59B",
"r  c #B0B165",
/* pixels */
"                                ",
". X o O + @ #                   ",
"$ % & * = - ; :                 ",
"> , < 1 2 3 4 5 6 7 8 9 0 q w   ",
"e r t y u i p a s d f g h j k   ",
"l z x c v b n m M N B V C Z A S ",
"D F G H J K L P I U Y T R E W Q ",
"! ~ ^ / ( ) _ ` ' ] [ { } |  ...",
"X.o.O.+.@.#.$.%.&.*.=.-.;.:.>.,.",
"<.1.2.3.4.5.6.7.8.9.0.q.w.e.r.t.",
"y.u.i.p.a.s.d.f.g.h.j.k.l.z.x.c.",
"v.b.n.m.M.N.B.V.C.Z.A.S.D.F.G.H.",
"J.K.L.P.I.U.Y.T.R.E.W.Q.!.~.^./.",
"(.)._.`.'.].[.{.}.|. X.XXXoXOX+X",
"  @X#X$X%X&X*X=X-X;X:X>X,X<X1X2X",
"                                "
};
