/* XPM */
static const char *up_xpm[] = {
/* columns rows colors chars-per-pixel */
"20 20 77 1",
"F c #58BCFF",
"t c #0062C7",
"y c #005FC4",
", c #8ED2FF",
"# c #A9DDFF",
"j c #005CC1",
"> c #98D7FF",
"n c #0059BD",
"h c #A5A5A5",
"m c #D3F1FF",
"o c #FFFFFF",
"x c #9E9E9E",
"Z c #59BDFF",
"5 c #004DB3",
"k c #D6F2FF",
"D c #CAEDFF",
"u c #C5E9FF",
"T c #979797",
"N c #0044AA",
"< c #83CEFF",
"  c None",
"b c #989898",
"l c #84CFFF",
"4 c #6EC5FF",
"$ c #0061C5",
": c #AEE0FF",
"- c #005BC0",
"= c #98D6FF",
". c #77ABDE",
"V c #0055BA",
"2 c #4F79AB",
"E c #999999",
"w c #B7B7B7",
"a c #004CB1",
"9 c #63C1FF",
"q c #0046AB",
"6 c #4D73A6",
"+ c #5587BB",
"S c #0040A7",
"; c #507DB0",
"& c #A8DDFF",
"8 c #97D7FF",
"I c #003A9F",
"H c #003AA0",
"g c #9A9A9A",
"U c #00379D",
"J c #6E92C5",
"A c #4EB8FF",
"X c #0066CB",
"0 c #58BDFF",
"r c #0063C9",
"% c #5181B5",
"i c #8ED3FF",
"7 c #A9DEFF",
"v c #9B9B9B",
"W c #AAAAAA",
"1 c #0054B9",
"* c #A0DAFF",
"3 c #79CAFF",
"z c #0048AD",
"s c #0048AF",
"p c #83CFFF",
"@ c #AFE0FF",
"d c #0045AB",
"B c #9C9C9C",
"R c #BABABA",
"f c #0042A7",
"K c #0042A8",
"L c #003FA5",
"P c #003CA2",
"Y c #344F83",
"G c #44B5FF",
"C c #D0F0FF",
"c c #9D9D9D",
"O c #0065CA",
"M c #6EC6FF",
"e c #0065CB",
/* pixels */
"                    ",
"                    ",
"                    ",
"        .X.         ",
"       .XoO+        ",
"      .Xo@#$%       ",
"     .Xo@&*=-;      ",
"    .Xo:&*>,<12     ",
"   .Xo@#*>,<3456    ",
"   Xo@7*8,<3490qw   ",
"   ertyuip34asdfg   ",
"    hhjkl349zxcvb   ",
"      nm3M90NB      ",
"      VCM9ZASg      ",
"      5D9FAGHb      ",
"      JKLPIUYT      ",
"       REbbbTW      ",
"                    ",
"                    ",
"                    "
};
