/* XPM */
static char *view_xpm[] = {
/* columns rows colors chars-per-pixel */
"16 16 19 1",
"# c #FCFEFC",
"O c #CFCED0",
"o c #040E04",
"* c #9CA1B6",
". c #040205",
"& c #7C745C",
"  c None",
"; c #6B6B76",
"$ c #6E6C5C",
"+ c #666A85",
"> c #B7C6D7",
", c #CCCEA9",
"= c #C4C6CC",
"@ c #6C6687",
"- c #626664",
"X c #9C9F84",
"% c #EFFEF9",
"< c #9798B0",
": c #040321",
/* pixels */
"                ",
"                ",
"                ",
"      ..X       ",
"    X.X o       ",
" O+..           ",
" @##$.       .. ",
" +%##. ..X  o & ",
" *=##.-;#;X.X . ",
"  .%=:;>##.,    ",
"   :.O+###.     ",
"       .%=.     ",
"        ..<     ",
"                ",
"                ",
"                "
};
