/* XPM */
static char *viewdrop_xpm[] = {
/* columns rows colors chars-per-pixel */
"20 20 58 1",
"# c #FCFEFC",
"r c #B94B39",
"O c #CFCED0",
"k c #780505",
"9 c #5C1311",
"2 c #B28283",
"6 c #740E04",
"x c #CC361C",
"m c #9C7274",
"o c #040E04",
", c #B08890",
"B c #BCC2D4",
"4 c #660F0B",
"3 c #BC7E81",
"s c #ADA4AB",
"d c #F44410",
"* c #9CA1B6",
". c #040205",
"< c #4F150F",
"& c #7C745C",
"y c #DCC5CC",
"l c #FC8D67",
"5 c #FC937B",
"  c None",
"7 c #BC6658",
"q c #E44E2C",
"; c #6B6B76",
"$ c #6E6C5C",
"+ c #666A85",
"f c #FC3A0C",
"> c #B7C6D7",
"e c #D24629",
"= c #C4C6CC",
"p c #DC451C",
"@ c #6C6687",
"M c #975551",
"8 c #690606",
"0 c #E55727",
"c c #D22E1C",
"g c #A84C4C",
"n c #AC3428",
"j c #D1C6CF",
"u c #EC4C1C",
"- c #626664",
"1 c #AA6C69",
"X c #9C9F84",
"i c #EE3A0E",
"w c #890306",
"a c #885A5C",
"b c #5C0204",
"% c #EFFEF9",
"z c #E42C14",
"N c #BB9EA5",
"v c #BC3224",
"h c #CC989C",
"t c #4A0906",
": c #040321",
"V c #CCCDD7",
/* pixels */
"                    ",
"                    ",
"       ..X          ",
"     X.X o          ",
"  O+..              ",
"  @##$.       ..    ",
"  +%##. ..X  o &    ",
"  *=##.-;#;X.X .    ",
"   .%=:;>#,<1 2<,   ",
"    :.O+#345678581  ",
"        .950qw5erty ",
"         ,40uipe8as ",
"          7wdfiwghj ",
"         3kliiizw1  ",
"         <5eewxcvtj ",
"         2br8gknbas ",
"          mtMh1tMNj ",
"           yNj jNB  ",
"            V       ",
"                    "
};
