/* XPM */
static char *viewcreate_xpm[] = {
/* columns rows colors chars-per-pixel */
"20 20 55 1",
"# c #FCFEFC",
"d c #00C100",
"j c #004C00",
"O c #CFCED0",
"a c #004900",
"2 c #ECFFEC",
"m c #004600",
"o c #040E04",
"< c #006600",
"1 c #29762B",
"i c #00D500",
"* c #9CA1B6",
". c #040205",
"& c #7C745C",
"  c None",
"e c #005400",
"M c #1C521E",
"q c #347F34",
"; c #6B6B76",
"$ c #6E6C5C",
"+ c #666A85",
"k c #004800",
"> c #B7C6D7",
"5 c #B2B6BD",
"w c #006500",
", c #125E24",
"6 c #006200",
"s c #00D400",
"4 c #005F00",
"0 c #A1A4AB",
"= c #C4C6CC",
"@ c #6C6687",
"9 c #005900",
"v c #00CB00",
"h c #005600",
"r c #3A723D",
"z c #47477B",
"8 c #00EE00",
"n c #3A6F3D",
"y c #00E800",
"b c #004700",
"3 c #8CFE8C",
"- c #626664",
"u c #00DF00",
"X c #9C9F84",
"x c #ADB1B8",
"t c #006400",
"% c #EFFEF9",
"7 c #86FE86",
"g c #005B00",
"f c #317C31",
"p c #00CA00",
"l c #1C531E",
": c #040321",
"c c #004F00",
/* pixels */
"                    ",
"                    ",
"       ..X          ",
"     X.X o          ",
"  O+..              ",
"  @##$.       ..    ",
"  +%##. ..X  o &    ",
"  *=##.-;#;X.X .    ",
"   .%=:;>##,<<1     ",
"    :.O+###<2345    ",
"        .%=67890    ",
"        qw667899er  ",
"        t2778yuipa5 ",
"        t388yuspda0 ",
"        fghhuijjkl0 ",
"        zzzhspj000x ",
"           cvdb0    ",
"           nmmM0    ",
"            500x    ",
"                    "
};
